<svg xmlns="http://www.w3.org/2000/svg" xmlns:xlink="http://www.w3.org/1999/xlink" width="1080" zoomAndPan="magnify" viewBox="0 0 810 809.999993" height="1080" preserveAspectRatio="xMidYMid meet" version="1.0"><defs><g/><clipPath id="c1eda7fd1e"><path d="M 165.839844 158 L 644.339844 158 L 644.339844 652 L 165.839844 652 Z M 165.839844 158 " clip-rule="nonzero"/></clipPath></defs><rect x="-81" width="972" fill="#ffffff" y="-80.999999" height="971.999992" fill-opacity="1"/><rect x="-81" width="972" fill="#ffffff" y="-80.999999" height="971.999992" fill-opacity="1"/><g clip-path="url(#c1eda7fd1e)"><path fill="#3d3b3a" d="M 344.867188 165.683594 C 348.742188 164.710938 352.636719 163.832031 356.554688 163.050781 C 360.472656 162.269531 364.40625 161.582031 368.355469 160.988281 C 372.308594 160.398438 376.269531 159.902344 380.246094 159.503906 C 384.21875 159.105469 388.199219 158.804688 392.191406 158.597656 C 396.179688 158.390625 400.171875 158.285156 404.164062 158.273438 C 408.160156 158.261719 412.152344 158.347656 416.144531 158.53125 C 420.132812 158.710938 424.117188 158.992188 428.09375 159.367188 C 432.070312 159.742188 436.035156 160.214844 439.992188 160.785156 C 443.945312 161.351562 447.882812 162.019531 451.804688 162.777344 C 455.726562 163.539062 459.625 164.394531 463.507812 165.34375 C 467.386719 166.292969 471.242188 167.335938 475.070312 168.472656 C 478.898438 169.609375 482.699219 170.839844 486.46875 172.160156 C 490.238281 173.480469 493.972656 174.894531 497.675781 176.398438 C 501.375 177.902344 505.039062 179.492188 508.660156 181.175781 C 512.285156 182.855469 515.867188 184.621094 519.402344 186.476562 C 522.941406 188.332031 526.433594 190.273438 529.875 192.296875 C 533.320312 194.320312 536.710938 196.429688 540.050781 198.617188 C 543.394531 200.808594 546.679688 203.078125 549.910156 205.425781 C 553.140625 207.777344 556.3125 210.203125 559.425781 212.707031 C 562.539062 215.207031 565.589844 217.785156 568.578125 220.4375 C 571.566406 223.089844 574.488281 225.8125 577.339844 228.605469 C 580.195312 231.398438 582.984375 234.257812 585.699219 237.1875 C 588.414062 240.117188 591.058594 243.109375 593.628906 246.167969 C 596.203125 249.222656 598.695312 252.34375 601.117188 255.519531 C 603.535156 258.699219 605.875 261.933594 608.140625 265.226562 C 610.402344 268.519531 612.582031 271.863281 614.683594 275.261719 C 616.78125 278.660156 618.796875 282.109375 620.730469 285.605469 C 622.660156 289.101562 624.507812 292.640625 626.269531 296.226562 C 628.027344 299.8125 629.699219 303.441406 631.285156 307.105469 C 632.867188 310.773438 634.363281 314.476562 635.765625 318.21875 C 637.171875 321.957031 638.484375 325.726562 639.703125 329.53125 C 640.925781 333.335938 642.050781 337.167969 643.085938 341.023438 C 643.472656 342.449219 643.84375 343.898438 644.207031 345.378906 L 640.4375 346.695312 C 640.054688 345.144531 639.660156 343.597656 639.242188 342.050781 C 638.21875 338.226562 637.101562 334.429688 635.890625 330.660156 C 634.679688 326.890625 633.378906 323.152344 631.984375 319.445312 C 630.589844 315.738281 629.109375 312.070312 627.535156 308.4375 C 625.960938 304.804688 624.300781 301.210938 622.550781 297.660156 C 620.804688 294.105469 618.96875 290.601562 617.046875 287.136719 C 615.128906 283.675781 613.121094 280.261719 611.035156 276.898438 C 608.945312 273.535156 606.777344 270.222656 604.527344 266.96875 C 602.277344 263.710938 599.949219 260.507812 597.542969 257.363281 C 595.136719 254.222656 592.65625 251.136719 590.097656 248.117188 C 587.539062 245.09375 584.910156 242.136719 582.207031 239.242188 C 579.503906 236.347656 576.734375 233.523438 573.890625 230.765625 C 571.050781 228.007812 568.144531 225.320312 565.171875 222.707031 C 562.199219 220.089844 559.164062 217.550781 556.070312 215.082031 C 552.972656 212.617188 549.816406 210.226562 546.601562 207.914062 C 543.390625 205.601562 540.121094 203.371094 536.796875 201.21875 C 533.476562 199.066406 530.101562 196.996094 526.675781 195.007812 C 523.253906 193.019531 519.78125 191.121094 516.265625 189.300781 C 512.746094 187.484375 509.1875 185.753906 505.585938 184.113281 C 501.980469 182.46875 498.34375 180.914062 494.664062 179.453125 C 490.984375 177.988281 487.273438 176.613281 483.527344 175.332031 C 479.78125 174.046875 476.007812 172.855469 472.203125 171.757812 C 468.398438 170.660156 464.570312 169.65625 460.71875 168.746094 C 456.863281 167.835938 452.992188 167.019531 449.097656 166.300781 C 445.207031 165.578125 441.296875 164.953125 437.375 164.421875 C 433.449219 163.894531 429.515625 163.460938 425.570312 163.125 C 421.628906 162.789062 417.675781 162.546875 413.71875 162.402344 C 409.761719 162.261719 405.804688 162.214844 401.847656 162.265625 C 397.886719 162.3125 393.933594 162.460938 389.980469 162.707031 C 386.03125 162.949219 382.085938 163.289062 378.152344 163.726562 C 374.214844 164.164062 370.292969 164.699219 366.386719 165.328125 C 362.476562 165.957031 358.585938 166.679688 354.710938 167.5 C 350.839844 168.320312 346.988281 169.234375 343.160156 170.242188 C 343.757812 168.734375 344.332031 167.230469 344.867188 165.691406 Z M 169.609375 463.828125 C 169.929688 465.097656 170.25 466.359375 170.59375 467.628906 C 171.621094 471.460938 172.742188 475.269531 173.957031 479.046875 C 175.167969 482.824219 176.476562 486.574219 177.875 490.289062 C 179.273438 494.003906 180.761719 497.679688 182.339844 501.320312 C 183.917969 504.964844 185.585938 508.566406 187.339844 512.125 C 189.09375 515.683594 190.9375 519.199219 192.863281 522.667969 C 194.792969 526.136719 196.804688 529.558594 198.898438 532.929688 C 200.996094 536.300781 203.171875 539.617188 205.429688 542.878906 C 207.691406 546.144531 210.027344 549.351562 212.441406 552.5 C 214.859375 555.648438 217.351562 558.738281 219.917969 561.765625 C 222.484375 564.792969 225.125 567.753906 227.839844 570.652344 C 230.550781 573.546875 233.332031 576.375 236.183594 579.136719 C 239.035156 581.898438 241.953125 584.585938 244.9375 587.203125 C 247.921875 589.824219 250.96875 592.363281 254.078125 594.832031 C 257.183594 597.300781 260.351562 599.691406 263.578125 602.003906 C 266.804688 604.316406 270.085938 606.546875 273.417969 608.699219 C 276.753906 610.851562 280.140625 612.921875 283.578125 614.90625 C 287.015625 616.890625 290.5 618.789062 294.027344 620.605469 C 297.558594 622.417969 301.132812 624.148438 304.746094 625.785156 C 308.359375 627.425781 312.015625 628.972656 315.703125 630.433594 C 319.394531 631.894531 323.121094 633.261719 326.878906 634.539062 C 330.636719 635.816406 334.421875 637 338.238281 638.089844 C 342.054688 639.183594 345.898438 640.179688 349.761719 641.082031 C 353.628906 641.984375 357.511719 642.792969 361.417969 643.503906 C 365.320312 644.214844 369.242188 644.832031 373.175781 645.351562 C 377.113281 645.871094 381.058594 646.292969 385.011719 646.617188 C 388.96875 646.945312 392.929688 647.171875 396.894531 647.304688 C 400.863281 647.433594 404.832031 647.46875 408.800781 647.40625 C 412.769531 647.34375 416.734375 647.183594 420.695312 646.925781 C 424.65625 646.667969 428.605469 646.3125 432.550781 645.859375 C 436.492188 645.40625 440.421875 644.859375 444.339844 644.214844 C 448.253906 643.570312 452.152344 642.828125 456.035156 641.992188 C 459.914062 641.15625 463.769531 640.226562 467.605469 639.203125 C 466.988281 640.707031 466.386719 642.222656 465.832031 643.761719 C 461.953125 644.75 458.050781 645.640625 454.128906 646.441406 C 450.203125 647.238281 446.265625 647.941406 442.308594 648.546875 C 438.347656 649.152344 434.378906 649.664062 430.398438 650.074219 C 426.414062 650.488281 422.425781 650.804688 418.425781 651.023438 C 414.429688 651.242188 410.429688 651.363281 406.425781 651.386719 C 402.421875 651.410156 398.417969 651.335938 394.417969 651.164062 C 390.417969 650.996094 386.425781 650.726562 382.4375 650.359375 C 378.449219 649.996094 374.476562 649.53125 370.511719 648.972656 C 366.546875 648.414062 362.597656 647.757812 358.664062 647.007812 C 354.730469 646.253906 350.820312 645.410156 346.929688 644.464844 C 343.039062 643.523438 339.171875 642.488281 335.332031 641.359375 C 331.488281 640.226562 327.679688 639.003906 323.898438 637.6875 C 320.117188 636.371094 316.367188 634.964844 312.65625 633.464844 C 308.945312 631.96875 305.269531 630.378906 301.632812 628.703125 C 298 627.027344 294.40625 625.261719 290.855469 623.410156 C 287.308594 621.554688 283.804688 619.617188 280.347656 617.59375 C 276.894531 615.574219 273.492188 613.46875 270.136719 611.277344 C 266.785156 609.089844 263.488281 606.820312 260.246094 604.472656 C 257.003906 602.121094 253.820312 599.695312 250.695312 597.191406 C 247.574219 594.6875 244.511719 592.109375 241.511719 589.453125 C 238.515625 586.800781 235.582031 584.078125 232.71875 581.28125 C 229.851562 578.484375 227.054688 575.621094 224.332031 572.6875 C 221.605469 569.753906 218.949219 566.757812 216.371094 563.695312 C 213.789062 560.636719 211.285156 557.511719 208.859375 554.328125 C 206.429688 551.144531 204.082031 547.90625 201.8125 544.605469 C 199.539062 541.308594 197.351562 537.957031 195.246094 534.554688 C 193.136719 531.148438 191.113281 527.695312 189.175781 524.191406 C 187.238281 520.6875 185.386719 517.140625 183.617188 513.546875 C 181.851562 509.953125 180.175781 506.320312 178.585938 502.644531 C 176.996094 498.972656 175.5 495.257812 174.089844 491.511719 C 172.683594 487.761719 171.367188 483.984375 170.140625 480.171875 C 168.917969 476.359375 167.785156 472.519531 166.75 468.652344 C 166.441406 467.488281 166.140625 466.316406 165.839844 465.152344 Z M 169.609375 463.828125 " fill-opacity="1" fill-rule="evenodd"/></g><g fill="#000000" fill-opacity="1"><g transform="translate(128.960942, 427.293793)"><g><path d="M 46.25 -4.359375 C 44.914062 -3.265625 42.796875 -2.164062 39.890625 -1.0625 C 36.984375 0.03125 33.8125 0.578125 30.375 0.578125 C 24.894531 0.578125 20.128906 -0.613281 16.078125 -3 C 12.023438 -5.382812 8.925781 -8.585938 6.78125 -12.609375 C 4.644531 -16.640625 3.578125 -21.0625 3.578125 -25.875 C 3.578125 -31.164062 4.644531 -35.882812 6.78125 -40.03125 C 8.925781 -44.175781 11.929688 -47.40625 15.796875 -49.71875 C 19.660156 -52.03125 24.117188 -53.1875 29.171875 -53.1875 C 32.359375 -53.1875 35.3125 -52.753906 38.03125 -51.890625 C 40.75 -51.035156 43.128906 -49.96875 45.171875 -48.6875 L 41.109375 -38.890625 C 37.335938 -41.742188 33.472656 -43.171875 29.515625 -43.171875 C 26.847656 -43.171875 24.347656 -42.429688 22.015625 -40.953125 C 19.679688 -39.484375 17.820312 -37.472656 16.4375 -34.921875 C 15.0625 -32.367188 14.375 -29.546875 14.375 -26.453125 C 14.375 -23.066406 15.015625 -20.097656 16.296875 -17.546875 C 17.585938 -14.992188 19.421875 -13.003906 21.796875 -11.578125 C 24.179688 -10.148438 26.972656 -9.4375 30.171875 -9.4375 C 32.742188 -9.4375 35.050781 -9.851562 37.09375 -10.6875 C 39.144531 -11.519531 40.769531 -12.507812 41.96875 -13.65625 Z M 46.25 -4.359375 "/></g></g></g><g fill="#000000" fill-opacity="1"><g transform="translate(235.969989, 427.293793)"><g><path d="M 17.15625 -52.609375 L 17.15625 0 L 6.796875 0 L 6.796875 -52.609375 Z M 17.15625 -52.609375 "/></g></g></g><g fill="#000000" fill-opacity="1"><g transform="translate(317.10239, 427.293793)"><g><path d="M 35.171875 0 L 24.09375 -16.734375 L 17.15625 -16.734375 L 17.15625 0 L 6.796875 0 L 6.796875 -52.609375 L 22.734375 -52.609375 C 29.265625 -52.609375 34.328125 -51.023438 37.921875 -47.859375 C 41.515625 -44.691406 43.3125 -40.367188 43.3125 -34.890625 C 43.3125 -31.640625 42.632812 -28.597656 41.28125 -25.765625 C 39.925781 -22.929688 37.84375 -20.707031 35.03125 -19.09375 L 47.25 0 Z M 17.15625 -26.734375 L 24.515625 -26.734375 C 27.328125 -26.734375 29.375 -27.554688 30.65625 -29.203125 C 31.945312 -30.847656 32.59375 -32.625 32.59375 -34.53125 C 32.59375 -36.4375 32.046875 -38.257812 30.953125 -40 C 29.859375 -41.738281 27.738281 -42.609375 24.59375 -42.609375 L 17.15625 -42.609375 Z M 17.15625 -26.734375 "/></g></g></g><g fill="#000000" fill-opacity="1"><g transform="translate(423.325103, 427.293793)"><g><path d="M 46.25 -4.359375 C 44.914062 -3.265625 42.796875 -2.164062 39.890625 -1.0625 C 36.984375 0.03125 33.8125 0.578125 30.375 0.578125 C 24.894531 0.578125 20.128906 -0.613281 16.078125 -3 C 12.023438 -5.382812 8.925781 -8.585938 6.78125 -12.609375 C 4.644531 -16.640625 3.578125 -21.0625 3.578125 -25.875 C 3.578125 -31.164062 4.644531 -35.882812 6.78125 -40.03125 C 8.925781 -44.175781 11.929688 -47.40625 15.796875 -49.71875 C 19.660156 -52.03125 24.117188 -53.1875 29.171875 -53.1875 C 32.359375 -53.1875 35.3125 -52.753906 38.03125 -51.890625 C 40.75 -51.035156 43.128906 -49.96875 45.171875 -48.6875 L 41.109375 -38.890625 C 37.335938 -41.742188 33.472656 -43.171875 29.515625 -43.171875 C 26.847656 -43.171875 24.347656 -42.429688 22.015625 -40.953125 C 19.679688 -39.484375 17.820312 -37.472656 16.4375 -34.921875 C 15.0625 -32.367188 14.375 -29.546875 14.375 -26.453125 C 14.375 -23.066406 15.015625 -20.097656 16.296875 -17.546875 C 17.585938 -14.992188 19.421875 -13.003906 21.796875 -11.578125 C 24.179688 -10.148438 26.972656 -9.4375 30.171875 -9.4375 C 32.742188 -9.4375 35.050781 -9.851562 37.09375 -10.6875 C 39.144531 -11.519531 40.769531 -12.507812 41.96875 -13.65625 Z M 46.25 -4.359375 "/></g></g></g><g fill="#000000" fill-opacity="1"><g transform="translate(530.334168, 427.293793)"><g><path d="M 17.15625 -52.609375 L 17.15625 -10 L 41.890625 -10 L 41.890625 0 L 6.796875 0 L 6.796875 -52.609375 Z M 17.15625 -52.609375 "/></g></g></g><g fill="#000000" fill-opacity="1"><g transform="translate(633.340175, 427.293793)"><g><path d="M 42.671875 -52.609375 L 42.671875 -42.609375 L 17.15625 -42.609375 L 17.15625 -31.375 L 39.75 -31.375 L 39.75 -21.375 L 17.15625 -21.375 L 17.15625 -10 L 43.671875 -10 L 43.671875 0 L 6.796875 0 L 6.796875 -52.609375 Z M 42.671875 -52.609375 "/></g></g></g><g fill="#000000" fill-opacity="1"><g transform="translate(251.563808, 489.401788)"><g><path d="M 2.375 -17.34375 L 7.3125 -17.34375 C 9.488281 -17.34375 11.285156 -16.910156 12.703125 -16.046875 C 14.128906 -15.191406 15.164062 -14.085938 15.8125 -12.734375 C 16.46875 -11.390625 16.796875 -9.957031 16.796875 -8.4375 C 16.796875 -6.75 16.398438 -5.265625 15.609375 -3.984375 C 14.828125 -2.710938 13.773438 -1.726562 12.453125 -1.03125 C 11.140625 -0.34375 9.707031 0 8.15625 0 L 2.375 0 Z M 7.65625 -2.671875 C 8.882812 -2.671875 9.972656 -2.898438 10.921875 -3.359375 C 11.867188 -3.816406 12.609375 -4.492188 13.140625 -5.390625 C 13.671875 -6.296875 13.9375 -7.375 13.9375 -8.625 C 13.9375 -9.988281 13.644531 -11.128906 13.0625 -12.046875 C 12.488281 -12.960938 11.75 -13.632812 10.84375 -14.0625 C 9.945312 -14.488281 9.023438 -14.703125 8.078125 -14.703125 L 5.171875 -14.703125 L 5.171875 -2.671875 Z M 7.65625 -2.671875 "/></g></g></g><g fill="#000000" fill-opacity="1"><g transform="translate(279.227609, 489.401788)"><g><path d="M 13.890625 -17.34375 L 13.890625 -14.671875 L 5.171875 -14.671875 L 5.171875 -10.0625 L 12.9375 -10.0625 L 12.9375 -7.390625 L 5.171875 -7.390625 L 5.171875 -2.671875 L 14.21875 -2.671875 L 14.21875 0 L 2.375 0 L 2.375 -17.34375 Z M 13.890625 -17.34375 "/></g></g></g><g fill="#000000" fill-opacity="1"><g transform="translate(304.437167, 489.401788)"><g><path d="M 11.484375 -13.8125 C 9.992188 -14.59375 8.664062 -14.984375 7.5 -14.984375 C 6.644531 -14.984375 5.96875 -14.789062 5.46875 -14.40625 C 4.96875 -14.03125 4.71875 -13.507812 4.71875 -12.84375 C 4.71875 -12.1875 5.03125 -11.640625 5.65625 -11.203125 C 6.28125 -10.773438 7.160156 -10.34375 8.296875 -9.90625 C 9.148438 -9.601562 9.878906 -9.257812 10.484375 -8.875 C 11.097656 -8.488281 11.601562 -7.960938 12 -7.296875 C 12.40625 -6.628906 12.609375 -5.785156 12.609375 -4.765625 C 12.609375 -3.847656 12.375 -3.015625 11.90625 -2.265625 C 11.445312 -1.515625 10.78125 -0.914062 9.90625 -0.46875 C 9.039062 -0.03125 8.007812 0.1875 6.8125 0.1875 C 5.757812 0.1875 4.722656 0.0234375 3.703125 -0.296875 C 2.691406 -0.617188 1.789062 -1.066406 1 -1.640625 L 2.234375 -3.8125 C 2.828125 -3.363281 3.523438 -2.992188 4.328125 -2.703125 C 5.128906 -2.410156 5.867188 -2.265625 6.546875 -2.265625 C 7.390625 -2.265625 8.128906 -2.46875 8.765625 -2.875 C 9.398438 -3.28125 9.71875 -3.898438 9.71875 -4.734375 C 9.71875 -5.410156 9.453125 -5.96875 8.921875 -6.40625 C 8.390625 -6.851562 7.648438 -7.257812 6.703125 -7.625 C 5.710938 -7.988281 4.890625 -8.347656 4.234375 -8.703125 C 3.585938 -9.066406 3.03125 -9.566406 2.5625 -10.203125 C 2.09375 -10.847656 1.859375 -11.65625 1.859375 -12.625 C 1.859375 -14.039062 2.335938 -15.179688 3.296875 -16.046875 C 4.253906 -16.910156 5.519531 -17.375 7.09375 -17.4375 C 8.238281 -17.4375 9.242188 -17.304688 10.109375 -17.046875 C 10.972656 -16.785156 11.78125 -16.414062 12.53125 -15.9375 Z M 11.484375 -13.8125 "/></g></g></g><g fill="#000000" fill-opacity="1"><g transform="translate(327.835835, 489.401788)"><g><path d="M 5.171875 -17.34375 L 5.171875 0 L 2.375 0 L 2.375 -17.34375 Z M 5.171875 -17.34375 "/></g></g></g><g fill="#000000" fill-opacity="1"><g transform="translate(344.920179, 489.401788)"><g><path d="M 16.171875 -1.59375 C 15.703125 -1.144531 14.875 -0.734375 13.6875 -0.359375 C 12.5 0.00390625 11.414062 0.1875 10.4375 0.1875 C 8.613281 0.1875 7.007812 -0.175781 5.625 -0.90625 C 4.238281 -1.632812 3.171875 -2.640625 2.421875 -3.921875 C 1.679688 -5.203125 1.3125 -6.648438 1.3125 -8.265625 C 1.3125 -10.222656 1.710938 -11.898438 2.515625 -13.296875 C 3.316406 -14.691406 4.394531 -15.742188 5.75 -16.453125 C 7.113281 -17.171875 8.601562 -17.53125 10.21875 -17.53125 C 11.21875 -17.53125 12.164062 -17.414062 13.0625 -17.1875 C 13.96875 -16.957031 14.757812 -16.65625 15.4375 -16.28125 L 14.53125 -13.703125 C 14.050781 -13.984375 13.421875 -14.226562 12.640625 -14.4375 C 11.859375 -14.644531 11.171875 -14.75 10.578125 -14.75 C 8.585938 -14.75 7.019531 -14.203125 5.875 -13.109375 C 4.738281 -12.015625 4.171875 -10.476562 4.171875 -8.5 C 4.171875 -7.332031 4.4375 -6.296875 4.96875 -5.390625 C 5.5 -4.492188 6.242188 -3.800781 7.203125 -3.3125 C 8.171875 -2.820312 9.273438 -2.578125 10.515625 -2.578125 C 11.066406 -2.578125 11.59375 -2.628906 12.09375 -2.734375 C 12.601562 -2.835938 13.035156 -2.984375 13.390625 -3.171875 L 13.390625 -6.046875 L 10.125 -6.046875 L 10.125 -8.71875 L 16.171875 -8.71875 Z M 16.171875 -1.59375 "/></g></g></g><g fill="#000000" fill-opacity="1"><g transform="translate(372.464846, 489.401788)"><g><path d="M 17.703125 -17.34375 L 17.703125 0.625 L 17.625 0.625 L 5.125 -11.515625 L 5.1875 0 L 2.375 0 L 2.375 -17.9375 L 2.53125 -17.9375 L 14.984375 -5.671875 L 14.9375 -17.34375 Z M 17.703125 -17.34375 "/></g></g></g><g fill="#000000" fill-opacity="1"><g transform="translate(402.106336, 489.401788)"><g/></g></g><g fill="#000000" fill-opacity="1"><g transform="translate(419.262161, 489.401788)"><g><path d="M 11.484375 -13.8125 C 9.992188 -14.59375 8.664062 -14.984375 7.5 -14.984375 C 6.644531 -14.984375 5.96875 -14.789062 5.46875 -14.40625 C 4.96875 -14.03125 4.71875 -13.507812 4.71875 -12.84375 C 4.71875 -12.1875 5.03125 -11.640625 5.65625 -11.203125 C 6.28125 -10.773438 7.160156 -10.34375 8.296875 -9.90625 C 9.148438 -9.601562 9.878906 -9.257812 10.484375 -8.875 C 11.097656 -8.488281 11.601562 -7.960938 12 -7.296875 C 12.40625 -6.628906 12.609375 -5.785156 12.609375 -4.765625 C 12.609375 -3.847656 12.375 -3.015625 11.90625 -2.265625 C 11.445312 -1.515625 10.78125 -0.914062 9.90625 -0.46875 C 9.039062 -0.03125 8.007812 0.1875 6.8125 0.1875 C 5.757812 0.1875 4.722656 0.0234375 3.703125 -0.296875 C 2.691406 -0.617188 1.789062 -1.066406 1 -1.640625 L 2.234375 -3.8125 C 2.828125 -3.363281 3.523438 -2.992188 4.328125 -2.703125 C 5.128906 -2.410156 5.867188 -2.265625 6.546875 -2.265625 C 7.390625 -2.265625 8.128906 -2.46875 8.765625 -2.875 C 9.398438 -3.28125 9.71875 -3.898438 9.71875 -4.734375 C 9.71875 -5.410156 9.453125 -5.96875 8.921875 -6.40625 C 8.390625 -6.851562 7.648438 -7.257812 6.703125 -7.625 C 5.710938 -7.988281 4.890625 -8.347656 4.234375 -8.703125 C 3.585938 -9.066406 3.03125 -9.566406 2.5625 -10.203125 C 2.09375 -10.847656 1.859375 -11.65625 1.859375 -12.625 C 1.859375 -14.039062 2.335938 -15.179688 3.296875 -16.046875 C 4.253906 -16.910156 5.519531 -17.375 7.09375 -17.4375 C 8.238281 -17.4375 9.242188 -17.304688 10.109375 -17.046875 C 10.972656 -16.785156 11.78125 -16.414062 12.53125 -15.9375 Z M 11.484375 -13.8125 "/></g></g></g><g fill="#000000" fill-opacity="1"><g transform="translate(442.660833, 489.401788)"><g><path d="M 12.75 -17.34375 L 12.75 -14.671875 L 8.265625 -14.671875 L 8.265625 0 L 5.5 0 L 5.5 -14.671875 L 1.140625 -14.671875 L 1.140625 -17.34375 Z M 12.75 -17.34375 "/></g></g></g><g fill="#000000" fill-opacity="1"><g transform="translate(466.08332, 489.401788)"><g><path d="M 4.890625 -6.25 C 4.890625 -5.570312 5.0625 -4.945312 5.40625 -4.375 C 5.757812 -3.8125 6.238281 -3.359375 6.84375 -3.015625 C 7.445312 -2.671875 8.101562 -2.5 8.8125 -2.5 C 9.5625 -2.5 10.238281 -2.664062 10.84375 -3 C 11.457031 -3.332031 11.9375 -3.785156 12.28125 -4.359375 C 12.632812 -4.929688 12.8125 -5.5625 12.8125 -6.25 L 12.8125 -17.34375 L 15.5625 -17.34375 L 15.5625 -6.171875 C 15.5625 -4.929688 15.257812 -3.828125 14.65625 -2.859375 C 14.0625 -1.898438 13.25 -1.148438 12.21875 -0.609375 C 11.1875 -0.078125 10.050781 0.1875 8.8125 0.1875 C 7.570312 0.1875 6.441406 -0.078125 5.421875 -0.609375 C 4.398438 -1.148438 3.59375 -1.898438 3 -2.859375 C 2.414062 -3.828125 2.125 -4.929688 2.125 -6.171875 L 2.125 -17.34375 L 4.890625 -17.34375 Z M 4.890625 -6.25 "/></g></g></g><g fill="#000000" fill-opacity="1"><g transform="translate(493.270567, 489.401788)"><g><path d="M 2.375 -17.34375 L 7.3125 -17.34375 C 9.488281 -17.34375 11.285156 -16.910156 12.703125 -16.046875 C 14.128906 -15.191406 15.164062 -14.085938 15.8125 -12.734375 C 16.46875 -11.390625 16.796875 -9.957031 16.796875 -8.4375 C 16.796875 -6.75 16.398438 -5.265625 15.609375 -3.984375 C 14.828125 -2.710938 13.773438 -1.726562 12.453125 -1.03125 C 11.140625 -0.34375 9.707031 0 8.15625 0 L 2.375 0 Z M 7.65625 -2.671875 C 8.882812 -2.671875 9.972656 -2.898438 10.921875 -3.359375 C 11.867188 -3.816406 12.609375 -4.492188 13.140625 -5.390625 C 13.671875 -6.296875 13.9375 -7.375 13.9375 -8.625 C 13.9375 -9.988281 13.644531 -11.128906 13.0625 -12.046875 C 12.488281 -12.960938 11.75 -13.632812 10.84375 -14.0625 C 9.945312 -14.488281 9.023438 -14.703125 8.078125 -14.703125 L 5.171875 -14.703125 L 5.171875 -2.671875 Z M 7.65625 -2.671875 "/></g></g></g><g fill="#000000" fill-opacity="1"><g transform="translate(520.934373, 489.401788)"><g><path d="M 5.171875 -17.34375 L 5.171875 0 L 2.375 0 L 2.375 -17.34375 Z M 5.171875 -17.34375 "/></g></g></g><g fill="#000000" fill-opacity="1"><g transform="translate(538.018725, 489.401788)"><g><path d="M 1.3125 -8.65625 C 1.3125 -10.238281 1.707031 -11.707031 2.5 -13.0625 C 3.289062 -14.425781 4.363281 -15.507812 5.71875 -16.3125 C 7.082031 -17.125 8.566406 -17.53125 10.171875 -17.53125 C 11.765625 -17.53125 13.238281 -17.125 14.59375 -16.3125 C 15.945312 -15.507812 17.03125 -14.425781 17.84375 -13.0625 C 18.65625 -11.695312 19.0625 -10.226562 19.0625 -8.65625 C 19.0625 -7.050781 18.660156 -5.570312 17.859375 -4.21875 C 17.054688 -2.863281 15.972656 -1.789062 14.609375 -1 C 13.242188 -0.207031 11.765625 0.1875 10.171875 0.1875 C 8.566406 0.1875 7.082031 -0.203125 5.71875 -0.984375 C 4.363281 -1.773438 3.289062 -2.84375 2.5 -4.1875 C 1.707031 -5.539062 1.3125 -7.03125 1.3125 -8.65625 Z M 4.171875 -8.65625 C 4.171875 -7.519531 4.441406 -6.484375 4.984375 -5.546875 C 5.523438 -4.609375 6.257812 -3.863281 7.1875 -3.3125 C 8.113281 -2.757812 9.132812 -2.484375 10.25 -2.484375 C 11.34375 -2.484375 12.34375 -2.753906 13.25 -3.296875 C 14.15625 -3.847656 14.875 -4.59375 15.40625 -5.53125 C 15.9375 -6.476562 16.203125 -7.519531 16.203125 -8.65625 C 16.203125 -9.78125 15.929688 -10.816406 15.390625 -11.765625 C 14.847656 -12.722656 14.113281 -13.476562 13.1875 -14.03125 C 12.269531 -14.59375 11.265625 -14.875 10.171875 -14.875 C 9.054688 -14.875 8.039062 -14.59375 7.125 -14.03125 C 6.21875 -13.476562 5.5 -12.722656 4.96875 -11.765625 C 4.4375 -10.816406 4.171875 -9.78125 4.171875 -8.65625 Z M 4.171875 -8.65625 "/></g></g></g><g fill="#3d3b3a" fill-opacity="1"><g transform="translate(362.243397, 397.758151)"><g><path d="M 118.203125 -124.234375 C 119.773438 -123.359375 119.335938 -122.3125 116.890625 -121.09375 L 114.265625 -120.03125 C 114.097656 -119.863281 113.75 -120.039062 113.21875 -120.5625 C 112.875 -121.082031 112.875 -121.519531 113.21875 -121.875 C 113.570312 -122.394531 113.660156 -122.695312 113.484375 -122.78125 C 113.304688 -122.875 112.519531 -122.921875 111.125 -122.921875 C 110.425781 -123.097656 109.550781 -123.226562 108.5 -123.3125 C 107.457031 -123.40625 106.5 -123.535156 105.625 -123.703125 C 104.40625 -123.878906 101.476562 -124.097656 96.84375 -124.359375 C 92.207031 -124.617188 86.875 -124.835938 80.84375 -125.015625 C 74.820312 -125.191406 68.925781 -125.367188 63.15625 -125.546875 C 57.394531 -125.722656 52.59375 -125.8125 48.75 -125.8125 L 47.703125 -125.8125 C 47.347656 -125.8125 46.773438 -125.851562 45.984375 -125.9375 C 45.203125 -126.019531 44.289062 -125.976562 43.25 -125.8125 L 41.9375 -125.015625 C 41.757812 -124.671875 41.453125 -124.320312 41.015625 -123.96875 C 40.578125 -123.625 40.1875 -123.1875 39.84375 -122.65625 L 37.484375 -120.296875 C 36.785156 -119.253906 35.910156 -118.25 34.859375 -117.28125 C 33.804688 -116.320312 32.582031 -115.054688 31.1875 -113.484375 L 26.734375 -108.765625 C 25.679688 -107.367188 24.71875 -106.234375 23.84375 -105.359375 C 23.5 -105.015625 22.929688 -104.40625 22.140625 -103.53125 C 21.359375 -102.65625 20.53125 -101.78125 19.65625 -100.90625 C 17.382812 -98.28125 15.632812 -96.222656 14.40625 -94.734375 C 13.1875 -93.253906 11.96875 -91.816406 10.75 -90.421875 L 7.59375 -87.015625 L 5.234375 -84.125 L -1.828125 -76.265625 L -10.484375 -66.3125 L -14.671875 -61.328125 C -17.472656 -58.179688 -20.617188 -54.421875 -24.109375 -50.046875 C -27.609375 -45.679688 -30.882812 -41.445312 -33.9375 -37.34375 C -37 -33.238281 -39.40625 -29.960938 -41.15625 -27.515625 C -42.019531 -26.117188 -42.890625 -24.503906 -43.765625 -22.671875 C -44.640625 -20.835938 -45.164062 -19.570312 -45.34375 -18.875 C -45.34375 -18 -44.992188 -17.5625 -44.296875 -17.5625 C -43.597656 -17.382812 -43.421875 -17.035156 -43.765625 -16.515625 C -43.941406 -16.160156 -44.554688 -15.984375 -45.609375 -15.984375 C -46.304688 -16.160156 -46.828125 -16.859375 -47.171875 -18.078125 C -47.347656 -19.128906 -47 -20.789062 -46.125 -23.0625 C -45.78125 -23.9375 -45.472656 -24.722656 -45.203125 -25.421875 C -44.941406 -26.117188 -44.8125 -26.378906 -44.8125 -26.203125 C -44.644531 -26.203125 -44.5625 -26.46875 -44.5625 -27 C -44.5625 -27 -44.515625 -27.039062 -44.421875 -27.125 C -44.335938 -27.207031 -44.296875 -27.335938 -44.296875 -27.515625 C -43.941406 -27.335938 -43.675781 -27.601562 -43.5 -28.3125 C -43.332031 -28.65625 -43.25 -29.085938 -43.25 -29.609375 L -43.25 -30.140625 C -42.894531 -29.960938 -41.320312 -31.796875 -38.53125 -35.640625 L -27.78125 -50.0625 L -21.234375 -58.1875 C -19.835938 -59.9375 -18.566406 -61.507812 -17.421875 -62.90625 C -16.285156 -64.300781 -15.632812 -65.085938 -15.46875 -65.265625 C -15.113281 -65.441406 -14.628906 -65.878906 -14.015625 -66.578125 C -13.410156 -67.273438 -12.757812 -68.0625 -12.0625 -68.9375 C -9.957031 -71.726562 -8.46875 -73.601562 -7.59375 -74.5625 C -6.726562 -75.519531 -6.207031 -76 -6.03125 -76 C -5.851562 -76 -5.503906 -76.4375 -4.984375 -77.3125 L -2.890625 -79.9375 L -0.78125 -82.296875 C 2.007812 -85.617188 4.015625 -87.976562 5.234375 -89.375 C 6.460938 -90.769531 7.425781 -91.816406 8.125 -92.515625 C 9.519531 -93.910156 10.21875 -94.695312 10.21875 -94.875 C 10.21875 -94.695312 10.914062 -95.4375 12.3125 -97.09375 C 13.71875 -98.757812 14.421875 -99.59375 14.421875 -99.59375 C 15.285156 -100.820312 16.851562 -102.742188 19.125 -105.359375 C 21.40625 -107.984375 23.8125 -110.691406 26.34375 -113.484375 C 28.875 -116.285156 30.75 -118.296875 31.96875 -119.515625 L 35.125 -122.921875 L 35.90625 -123.96875 L 36.6875 -124.5 C 36.863281 -124.84375 37.039062 -125.101562 37.21875 -125.28125 C 37.394531 -125.457031 37.566406 -125.632812 37.734375 -125.8125 C 34.941406 -125.8125 31.710938 -125.8125 28.046875 -125.8125 C 24.378906 -125.8125 21.929688 -125.722656 20.703125 -125.546875 L 12.0625 -125.015625 L 4.984375 -124.75 L -1.578125 -124.234375 C -4.722656 -124.054688 -7.648438 -123.835938 -10.359375 -123.578125 C -13.066406 -123.316406 -14.59375 -123.097656 -14.9375 -122.921875 C -16.6875 -122.566406 -18.609375 -122.300781 -20.703125 -122.125 C -22.796875 -121.957031 -23.929688 -121.960938 -24.109375 -122.140625 C -24.984375 -123.015625 -24.195312 -123.800781 -21.75 -124.5 C -21.050781 -124.664062 -19.4375 -124.878906 -16.90625 -125.140625 C -14.375 -125.410156 -11.707031 -125.675781 -8.90625 -125.9375 C -6.113281 -126.195312 -4.019531 -126.328125 -2.625 -126.328125 L 3.140625 -126.859375 L 40.09375 -127.640625 L 41.15625 -128.6875 L 43.25 -131.046875 L 44.03125 -131.828125 C 44.382812 -132.179688 45.210938 -132.925781 46.515625 -134.0625 C 47.828125 -135.195312 49.09375 -136.375 50.3125 -137.59375 C 51.539062 -138.820312 52.242188 -139.523438 52.421875 -139.703125 C 52.597656 -140.046875 53.90625 -141.179688 56.34375 -143.109375 L 58.703125 -145.203125 C 58.878906 -145.546875 59.535156 -146.15625 60.671875 -147.03125 C 61.804688 -147.90625 62.460938 -148.34375 62.640625 -148.34375 C 63.160156 -148.34375 63.507812 -148.082031 63.6875 -147.5625 C 64.039062 -146.863281 63.953125 -146.25 63.421875 -145.71875 L 62.375 -144.40625 L 59.75 -142.3125 C 58.882812 -141.613281 57.707031 -140.566406 56.21875 -139.171875 C 54.726562 -137.773438 53.722656 -136.726562 53.203125 -136.03125 C 52.148438 -134.800781 51.101562 -133.75 50.0625 -132.875 C 49.363281 -132.175781 48.488281 -131.300781 47.4375 -130.25 C 46.382812 -129.207031 45.6875 -128.425781 45.34375 -127.90625 L 50.328125 -127.90625 L 57.65625 -127.640625 C 58.882812 -127.640625 61.941406 -127.550781 66.828125 -127.375 C 71.722656 -127.195312 77.140625 -126.976562 83.078125 -126.71875 C 89.023438 -126.457031 94.441406 -126.238281 99.328125 -126.0625 C 104.222656 -125.894531 107.367188 -125.722656 108.765625 -125.546875 C 111.734375 -125.367188 113.875 -125.191406 115.1875 -125.015625 C 116.5 -124.835938 117.503906 -124.578125 118.203125 -124.234375 Z M 118.203125 -124.234375 "/></g></g></g><g fill="#3d3b3a" fill-opacity="1"><g transform="translate(388.976708, 397.758151)"><g><path d="M 94.359375 -144.15625 C 95.398438 -142.925781 95.222656 -141.351562 93.828125 -139.4375 C 93.304688 -138.5625 92.390625 -137.425781 91.078125 -136.03125 C 89.765625 -134.632812 88.757812 -133.757812 88.0625 -133.40625 L 84.125 -130.515625 C 83.425781 -129.816406 82.507812 -129.117188 81.375 -128.421875 C 80.238281 -127.722656 79.320312 -127.113281 78.625 -126.59375 L 74.703125 -124.234375 C 73.648438 -123.535156 72.863281 -123.1875 72.34375 -123.1875 C 71.644531 -122.832031 71.207031 -122.566406 71.03125 -122.390625 C 71.03125 -122.046875 70.59375 -121.695312 69.71875 -121.34375 L 68.140625 -120.828125 C 67.097656 -120.296875 65.304688 -119.375 62.765625 -118.0625 C 60.234375 -116.757812 57.566406 -115.453125 54.765625 -114.140625 C 51.972656 -112.828125 49.617188 -111.734375 47.703125 -110.859375 C 46.304688 -110.160156 45.34375 -109.8125 44.8125 -109.8125 C 44.289062 -109.8125 42.804688 -109.203125 40.359375 -107.984375 L 35.90625 -106.140625 C 35.726562 -105.972656 35.113281 -105.710938 34.0625 -105.359375 C 33.019531 -105.015625 31.625 -104.40625 29.875 -103.53125 L 19.921875 -99.078125 L 18.609375 -98.28125 L 14.15625 -93.828125 C 11.707031 -91.378906 9.039062 -88.710938 6.15625 -85.828125 C 3.269531 -82.953125 1.65625 -81.164062 1.3125 -80.46875 L 1.3125 -79.9375 C 1.488281 -79.757812 1.925781 -79.847656 2.625 -80.203125 C 2.800781 -80.203125 2.890625 -80.242188 2.890625 -80.328125 C 2.890625 -80.421875 2.972656 -80.46875 3.140625 -80.46875 C 4.191406 -80.988281 5.375 -81.507812 6.6875 -82.03125 C 8 -82.5625 9.703125 -83.175781 11.796875 -83.875 C 14.585938 -84.75 16.25 -84.832031 16.78125 -84.125 C 16.945312 -83.78125 16.59375 -83.082031 15.71875 -82.03125 C 13.28125 -79.582031 11.796875 -77.835938 11.265625 -76.796875 L 11.015625 -76 C 10.140625 -74.257812 9.875 -73.390625 10.21875 -73.390625 L 10.75 -73.390625 L 11.796875 -73.640625 C 13.191406 -74.171875 15.632812 -75.222656 19.125 -76.796875 C 22.625 -78.367188 25.25 -79.503906 27 -80.203125 L 33.546875 -83.078125 C 34.066406 -83.078125 34.585938 -83.035156 35.109375 -82.953125 C 35.640625 -82.867188 35.296875 -82.390625 34.078125 -81.515625 C 32.503906 -80.984375 31.671875 -80.675781 31.578125 -80.59375 C 31.492188 -80.507812 31.40625 -80.421875 31.3125 -80.328125 C 31.226562 -80.242188 30.226562 -79.765625 28.3125 -78.890625 C 27.601562 -78.710938 27.03125 -78.40625 26.59375 -77.96875 C 26.164062 -77.53125 25.773438 -77.3125 25.421875 -77.3125 C 23.671875 -76.613281 22.664062 -76.132812 22.40625 -75.875 C 22.144531 -75.613281 21.578125 -75.304688 20.703125 -74.953125 C 20.179688 -74.785156 18.609375 -74.132812 15.984375 -73 C 13.367188 -71.863281 11.535156 -71.207031 10.484375 -71.03125 L 9.953125 -70.765625 C 9.429688 -70.585938 8.734375 -70.765625 7.859375 -71.296875 C 6.816406 -72.160156 6.726562 -73.644531 7.59375 -75.75 L 8.390625 -77.3125 C 8.734375 -78.1875 9.253906 -79.0625 9.953125 -79.9375 C 10.660156 -80.8125 11.097656 -81.25 11.265625 -81.25 C 11.441406 -81.25 11.53125 -81.335938 11.53125 -81.515625 C 11.53125 -81.679688 11.09375 -81.59375 10.21875 -81.25 L 7.34375 -80.203125 C 5.9375 -79.847656 4.972656 -79.410156 4.453125 -78.890625 L 2.890625 -77.84375 L 2.625 -77.84375 L 1.046875 -77.0625 L -2.09375 -73.90625 L -2.625 -73.640625 L -3.40625 -73.125 L -4.1875 -72.34375 L -5.5 -71.296875 L -6.296875 -70.765625 C -6.640625 -70.410156 -7.070312 -70.320312 -7.59375 -70.5 C -7.769531 -70.675781 -8.078125 -70.894531 -8.515625 -71.15625 C -8.953125 -71.414062 -9.171875 -71.722656 -9.171875 -72.078125 C -9.171875 -72.597656 -8.953125 -73.117188 -8.515625 -73.640625 C -8.078125 -74.171875 -7.6875 -74.609375 -7.34375 -74.953125 L -4.984375 -77.578125 L -2.625 -80.46875 L -1.578125 -81.515625 L 7.59375 -91.203125 C 9 -92.429688 10.09375 -93.484375 10.875 -94.359375 C 11.664062 -95.234375 12.0625 -95.671875 12.0625 -95.671875 C 11.882812 -95.835938 11.488281 -95.832031 10.875 -95.65625 C 10.257812 -95.488281 9.953125 -95.316406 9.953125 -95.140625 C 9.785156 -94.960938 9.566406 -94.875 9.296875 -94.875 C 9.035156 -94.875 8.820312 -94.785156 8.65625 -94.609375 L 3.9375 -93.046875 C 2.53125 -92.691406 1.566406 -92.34375 1.046875 -92 L -1.578125 -90.6875 C -2.972656 -90.332031 -3.84375 -90.15625 -4.1875 -90.15625 C -5.238281 -90.15625 -5.503906 -90.679688 -4.984375 -91.734375 C -4.628906 -92.078125 -3.929688 -92.425781 -2.890625 -92.78125 L 5.234375 -95.671875 L 7.859375 -96.71875 C 8.210938 -97.0625 8.738281 -97.320312 9.4375 -97.5 C 10.488281 -98.019531 11.1875 -98.28125 11.53125 -98.28125 C 11.707031 -98.28125 11.835938 -98.320312 11.921875 -98.40625 C 12.015625 -98.5 12.0625 -98.546875 12.0625 -98.546875 C 12.0625 -98.546875 12.847656 -98.894531 14.421875 -99.59375 L 16.78125 -100.375 C 17.125 -100.726562 17.644531 -101.207031 18.34375 -101.8125 C 19.039062 -102.425781 19.738281 -103.085938 20.4375 -103.796875 L 29.359375 -111.65625 L 34.859375 -116.375 L 43.25 -122.921875 C 43.414062 -123.097656 44.242188 -123.707031 45.734375 -124.75 C 47.222656 -125.800781 48.753906 -126.851562 50.328125 -127.90625 L 54.78125 -130.78125 L 57.140625 -132.359375 L 60.015625 -133.9375 C 66.128906 -137.425781 72.242188 -140.046875 78.359375 -141.796875 L 80.46875 -142.3125 C 81.863281 -143.007812 83.609375 -143.535156 85.703125 -143.890625 L 88.59375 -144.40625 C 89.988281 -144.757812 91.253906 -144.890625 92.390625 -144.796875 C 93.523438 -144.710938 94.179688 -144.5 94.359375 -144.15625 Z M 91.734375 -140.21875 C 91.734375 -140.21875 91.773438 -140.304688 91.859375 -140.484375 C 91.953125 -140.660156 92 -140.832031 92 -141 C 91.820312 -141.53125 91.472656 -141.882812 90.953125 -142.0625 C 90.597656 -142.226562 89.585938 -142.222656 87.921875 -142.046875 C 86.265625 -141.878906 85.265625 -141.707031 84.921875 -141.53125 L 80.71875 -140.21875 C 78.445312 -139.519531 75.738281 -138.601562 72.59375 -137.46875 C 69.445312 -136.332031 66.65625 -135.15625 64.21875 -133.9375 C 60.894531 -132.1875 57.394531 -130.128906 53.71875 -127.765625 C 50.050781 -125.410156 47.257812 -123.445312 45.34375 -121.875 L 43.25 -120.296875 C 43.070312 -120.296875 42.066406 -119.550781 40.234375 -118.0625 C 38.398438 -116.582031 36.300781 -114.835938 33.9375 -112.828125 C 31.582031 -110.816406 29.53125 -109.023438 27.78125 -107.453125 L 24.640625 -104.84375 C 24.460938 -104.84375 24.375 -104.578125 24.375 -104.046875 C 24.375 -103.878906 25.25 -104.144531 27 -104.84375 C 27.875 -105.1875 28.570312 -105.53125 29.09375 -105.875 C 29.613281 -106.226562 29.960938 -106.40625 30.140625 -106.40625 C 30.492188 -106.40625 31.367188 -106.753906 32.765625 -107.453125 C 33.460938 -107.804688 34.03125 -108.066406 34.46875 -108.234375 C 34.90625 -108.410156 35.207031 -108.5 35.375 -108.5 C 35.550781 -108.5 36.515625 -108.851562 38.265625 -109.5625 L 44.03125 -111.90625 L 49.28125 -114.265625 L 52.9375 -115.578125 C 53.289062 -115.753906 53.90625 -116.015625 54.78125 -116.359375 C 55.65625 -116.710938 56.441406 -117.15625 57.140625 -117.6875 L 62.109375 -120.03125 L 65 -121.609375 L 68.140625 -123.1875 L 77.0625 -128.15625 C 78.800781 -129.207031 80.546875 -130.34375 82.296875 -131.5625 C 84.046875 -132.789062 85.269531 -133.753906 85.96875 -134.453125 L 88.59375 -136.546875 C 88.757812 -136.546875 89.28125 -137.160156 90.15625 -138.390625 Z M 91.734375 -140.21875 "/></g></g></g><g fill="#3d3b3a" fill-opacity="1"><g transform="translate(426.717797, 397.758151)"><g><path d="M -2.625 -71.546875 C -4.71875 -71.378906 -6.023438 -71.335938 -6.546875 -71.421875 C -7.078125 -71.503906 -7.425781 -71.984375 -7.59375 -72.859375 C -7.945312 -73.734375 -7.597656 -75.046875 -6.546875 -76.796875 C -5.148438 -78.890625 -3.140625 -80.984375 -0.515625 -83.078125 C 2.097656 -85.179688 4.71875 -86.671875 7.34375 -87.546875 C 11.53125 -89.109375 13.890625 -89.191406 14.421875 -87.796875 C 14.585938 -87.097656 12.664062 -85.351562 8.65625 -82.5625 C 6.375 -80.988281 4.488281 -79.804688 3 -79.015625 C 1.519531 -78.234375 0.0820312 -77.664062 -1.3125 -77.3125 C -2.882812 -76.96875 -3.84375 -76.359375 -4.1875 -75.484375 C -4.882812 -74.785156 -4.972656 -74.347656 -4.453125 -74.171875 C -2.878906 -73.648438 5.332031 -76.617188 20.1875 -83.078125 L 20.703125 -83.34375 L 21.484375 -83.34375 L 21.75 -83.078125 C 22.445312 -82.734375 22.535156 -82.296875 22.015625 -81.765625 L 18.609375 -80.203125 L 6.8125 -74.953125 C 4.539062 -73.734375 2.75 -72.945312 1.4375 -72.59375 C 0.125 -72.25 -1.226562 -71.898438 -2.625 -71.546875 Z M -0.53125 -80.203125 C -0.695312 -80.023438 -0.390625 -80.066406 0.390625 -80.328125 C 1.179688 -80.585938 2.273438 -81.066406 3.671875 -81.765625 C 4.890625 -82.472656 6.238281 -83.304688 7.71875 -84.265625 C 9.207031 -85.222656 10.039062 -85.789062 10.21875 -85.96875 C 10.21875 -86.3125 9.738281 -86.265625 8.78125 -85.828125 C 7.820312 -85.398438 6.90625 -85.007812 6.03125 -84.65625 C 5.15625 -84.476562 3.882812 -83.773438 2.21875 -82.546875 C 0.5625 -81.328125 -0.351562 -80.546875 -0.53125 -80.203125 Z M -0.53125 -80.203125 "/></g></g></g><g fill="#000000" fill-opacity="1"><g transform="translate(340.223522, 539.587818)"><g><path d="M 9.234375 -11.515625 L 9.234375 -9.75 L 3.4375 -9.75 L 3.4375 -6.671875 L 8.59375 -6.671875 L 8.59375 -4.90625 L 3.4375 -4.90625 L 3.4375 -1.765625 L 9.453125 -1.765625 L 9.453125 0 L 1.578125 0 L 1.578125 -11.515625 Z M 9.234375 -11.515625 "/></g></g></g><g fill="#000000" fill-opacity="1"><g transform="translate(356.965172, 539.587818)"><g><path d="M 7.625 -9.1875 C 6.632812 -9.695312 5.753906 -9.953125 4.984375 -9.953125 C 4.410156 -9.953125 3.957031 -9.828125 3.625 -9.578125 C 3.300781 -9.328125 3.140625 -8.976562 3.140625 -8.53125 C 3.140625 -8.09375 3.347656 -7.726562 3.765625 -7.4375 C 4.179688 -7.15625 4.765625 -6.867188 5.515625 -6.578125 C 6.078125 -6.378906 6.5625 -6.148438 6.96875 -5.890625 C 7.375 -5.640625 7.707031 -5.289062 7.96875 -4.84375 C 8.238281 -4.394531 8.375 -3.835938 8.375 -3.171875 C 8.375 -2.554688 8.21875 -2 7.90625 -1.5 C 7.601562 -1.007812 7.160156 -0.613281 6.578125 -0.3125 C 6.003906 -0.0195312 5.320312 0.125 4.53125 0.125 C 3.832031 0.125 3.144531 0.0195312 2.46875 -0.1875 C 1.789062 -0.40625 1.191406 -0.707031 0.671875 -1.09375 L 1.484375 -2.53125 C 1.878906 -2.238281 2.34375 -1.992188 2.875 -1.796875 C 3.40625 -1.597656 3.898438 -1.5 4.359375 -1.5 C 4.910156 -1.5 5.394531 -1.632812 5.8125 -1.90625 C 6.238281 -2.175781 6.453125 -2.59375 6.453125 -3.15625 C 6.453125 -3.59375 6.273438 -3.957031 5.921875 -4.25 C 5.566406 -4.550781 5.078125 -4.820312 4.453125 -5.0625 C 3.796875 -5.300781 3.25 -5.539062 2.8125 -5.78125 C 2.382812 -6.019531 2.015625 -6.351562 1.703125 -6.78125 C 1.390625 -7.207031 1.234375 -7.742188 1.234375 -8.390625 C 1.234375 -9.328125 1.550781 -10.082031 2.1875 -10.65625 C 2.832031 -11.226562 3.675781 -11.539062 4.71875 -11.59375 C 5.476562 -11.59375 6.144531 -11.503906 6.71875 -11.328125 C 7.289062 -11.148438 7.828125 -10.90625 8.328125 -10.59375 Z M 7.625 -9.1875 "/></g></g></g><g fill="#000000" fill-opacity="1"><g transform="translate(372.50421, 539.587818)"><g><path d="M 8.46875 -11.515625 L 8.46875 -9.75 L 5.5 -9.75 L 5.5 0 L 3.65625 0 L 3.65625 -9.75 L 0.765625 -9.75 L 0.765625 -11.515625 Z M 8.46875 -11.515625 "/></g></g></g><g fill="#000000" fill-opacity="1"><g transform="translate(388.059064, 539.587818)"><g><path d="M 1.578125 -11.515625 L 4.859375 -11.515625 C 6.304688 -11.515625 7.5 -11.226562 8.4375 -10.65625 C 9.382812 -10.09375 10.070312 -9.363281 10.5 -8.46875 C 10.9375 -7.570312 11.15625 -6.617188 11.15625 -5.609375 C 11.15625 -4.484375 10.894531 -3.492188 10.375 -2.640625 C 9.851562 -1.796875 9.15625 -1.144531 8.28125 -0.6875 C 7.40625 -0.226562 6.445312 0 5.40625 0 L 1.578125 0 Z M 5.078125 -1.765625 C 5.898438 -1.765625 6.625 -1.914062 7.25 -2.21875 C 7.882812 -2.53125 8.378906 -2.984375 8.734375 -3.578125 C 9.085938 -4.179688 9.265625 -4.898438 9.265625 -5.734375 C 9.265625 -6.640625 9.070312 -7.394531 8.6875 -8 C 8.300781 -8.601562 7.804688 -9.046875 7.203125 -9.328125 C 6.609375 -9.617188 5.992188 -9.765625 5.359375 -9.765625 L 3.4375 -9.765625 L 3.4375 -1.765625 Z M 5.078125 -1.765625 "/></g></g></g><g fill="#000000" fill-opacity="1"><g transform="translate(406.430574, 539.587818)"><g/></g></g><g fill="#000000" fill-opacity="1"><g transform="translate(417.82374, 539.587818)"><g><path d="M 8.140625 -1.765625 L 8.140625 0 L 0.859375 0 L 1.421875 -0.5625 C 2.460938 -1.613281 3.28125 -2.46875 3.875 -3.125 C 4.476562 -3.78125 4.976562 -4.441406 5.375 -5.109375 C 5.769531 -5.785156 5.96875 -6.425781 5.96875 -7.03125 C 5.96875 -7.59375 5.789062 -8.023438 5.4375 -8.328125 C 5.09375 -8.640625 4.660156 -8.796875 4.140625 -8.796875 C 3.585938 -8.796875 3.15625 -8.632812 2.84375 -8.3125 C 2.539062 -8 2.390625 -7.648438 2.390625 -7.265625 C 2.390625 -6.609375 2.59375 -6.066406 3 -5.640625 L 1.890625 -4.609375 C 1.503906 -4.816406 1.191406 -5.191406 0.953125 -5.734375 C 0.710938 -6.273438 0.59375 -6.769531 0.59375 -7.21875 C 0.59375 -7.800781 0.742188 -8.347656 1.046875 -8.859375 C 1.359375 -9.378906 1.804688 -9.796875 2.390625 -10.109375 C 2.984375 -10.421875 3.675781 -10.578125 4.46875 -10.578125 C 5.125 -10.578125 5.710938 -10.421875 6.234375 -10.109375 C 6.765625 -9.796875 7.171875 -9.378906 7.453125 -8.859375 C 7.734375 -8.347656 7.875 -7.789062 7.875 -7.1875 C 7.875 -6.582031 7.738281 -5.984375 7.46875 -5.390625 C 7.195312 -4.804688 6.867188 -4.257812 6.484375 -3.75 C 6.097656 -3.238281 5.554688 -2.578125 4.859375 -1.765625 Z M 8.140625 -1.765625 "/></g></g></g><g fill="#000000" fill-opacity="1"><g transform="translate(433.014649, 539.587818)"><g><path d="M 4.953125 0.03125 C 4.109375 0.0390625 3.351562 -0.160156 2.6875 -0.578125 C 2.019531 -0.992188 1.492188 -1.601562 1.109375 -2.40625 C 0.734375 -3.207031 0.546875 -4.160156 0.546875 -5.265625 C 0.546875 -7.066406 0.9375 -8.398438 1.71875 -9.265625 C 2.507812 -10.140625 3.585938 -10.570312 4.953125 -10.5625 C 5.796875 -10.570312 6.550781 -10.367188 7.21875 -9.953125 C 7.882812 -9.535156 8.40625 -8.925781 8.78125 -8.125 C 9.15625 -7.332031 9.34375 -6.378906 9.34375 -5.265625 C 9.34375 -4.128906 9.148438 -3.160156 8.765625 -2.359375 C 8.390625 -1.566406 7.867188 -0.96875 7.203125 -0.5625 C 6.546875 -0.15625 5.796875 0.0390625 4.953125 0.03125 Z M 4.9375 -1.71875 C 5.769531 -1.71875 6.390625 -2.039062 6.796875 -2.6875 C 7.210938 -3.34375 7.421875 -4.21875 7.421875 -5.3125 C 7.421875 -6.382812 7.210938 -7.234375 6.796875 -7.859375 C 6.390625 -8.484375 5.769531 -8.789062 4.9375 -8.78125 C 4.113281 -8.789062 3.492188 -8.476562 3.078125 -7.84375 C 2.671875 -7.207031 2.46875 -6.347656 2.46875 -5.265625 C 2.46875 -4.191406 2.671875 -3.332031 3.078125 -2.6875 C 3.492188 -2.039062 4.113281 -1.71875 4.9375 -1.71875 Z M 4.9375 -1.71875 "/></g></g></g><g fill="#000000" fill-opacity="1"><g transform="translate(449.234102, 539.587818)"><g><path d="M 3.71875 -10.453125 L 3.71875 0 L 1.875 0 L 1.875 -8.671875 L 0.828125 -8.671875 L 0.828125 -10.453125 Z M 3.71875 -10.453125 "/></g></g></g><g fill="#000000" fill-opacity="1"><g transform="translate(460.864641, 539.587818)"><g><path d="M 8.140625 -1.765625 L 8.140625 0 L 0.859375 0 L 1.421875 -0.5625 C 2.460938 -1.613281 3.28125 -2.46875 3.875 -3.125 C 4.476562 -3.78125 4.976562 -4.441406 5.375 -5.109375 C 5.769531 -5.785156 5.96875 -6.425781 5.96875 -7.03125 C 5.96875 -7.59375 5.789062 -8.023438 5.4375 -8.328125 C 5.09375 -8.640625 4.660156 -8.796875 4.140625 -8.796875 C 3.585938 -8.796875 3.15625 -8.632812 2.84375 -8.3125 C 2.539062 -8 2.390625 -7.648438 2.390625 -7.265625 C 2.390625 -6.609375 2.59375 -6.066406 3 -5.640625 L 1.890625 -4.609375 C 1.503906 -4.816406 1.191406 -5.191406 0.953125 -5.734375 C 0.710938 -6.273438 0.59375 -6.769531 0.59375 -7.21875 C 0.59375 -7.800781 0.742188 -8.347656 1.046875 -8.859375 C 1.359375 -9.378906 1.804688 -9.796875 2.390625 -10.109375 C 2.984375 -10.421875 3.675781 -10.578125 4.46875 -10.578125 C 5.125 -10.578125 5.710938 -10.421875 6.234375 -10.109375 C 6.765625 -9.796875 7.171875 -9.378906 7.453125 -8.859375 C 7.734375 -8.347656 7.875 -7.789062 7.875 -7.1875 C 7.875 -6.582031 7.738281 -5.984375 7.46875 -5.390625 C 7.195312 -4.804688 6.867188 -4.257812 6.484375 -3.75 C 6.097656 -3.238281 5.554688 -2.578125 4.859375 -1.765625 Z M 8.140625 -1.765625 "/></g></g></g></svg>