<svg version="1.2" xmlns="http://www.w3.org/2000/svg" viewBox="0 0 300 110" width="300" height="110">
	<title>4v4y_ekbm_220302</title>
	<defs>
		<linearGradient id="g1" x2="1" gradientUnits="userSpaceOnUse" gradientTransform="matrix(0,82.487,-103.006,0,110.066,18.715)">
			<stop offset="0" stop-color="#fbb03b"/>
			<stop offset="1" stop-color="#f15a24"/>
		</linearGradient>
		<linearGradient id="g2" x2="1" gradientUnits="userSpaceOnUse" gradientTransform="matrix(0,82.479,-101.932,0,93.033,18.717)">
			<stop offset="0" stop-color="#fbb03b"/>
			<stop offset="1" stop-color="#f15a24"/>
		</linearGradient>
		<linearGradient id="g3" x2="1" gradientUnits="userSpaceOnUse" gradientTransform="matrix(0,82.486,-58.932,0,112.806,18.715)">
			<stop offset="0" stop-color="#fbb03b"/>
			<stop offset="1" stop-color="#f15a24"/>
		</linearGradient>
		<linearGradient id="g4" x2="1" gradientUnits="userSpaceOnUse" gradientTransform="matrix(0,82.486,-36.343,0,196.669,18.715)">
			<stop offset="0" stop-color="#fbb03b"/>
			<stop offset="1" stop-color="#f15a24"/>
		</linearGradient>
		<linearGradient id="g5" x2="1" gradientUnits="userSpaceOnUse" gradientTransform="matrix(0,82.484,-86.537,0,288.785,18.716)">
			<stop offset="0" stop-color="#fbb03b"/>
			<stop offset="1" stop-color="#f15a24"/>
		</linearGradient>
		<linearGradient id="g6" x2="1" gradientUnits="userSpaceOnUse" gradientTransform="matrix(0,-63.197,79.617,0,-12.252,98.096)">
			<stop offset="0" stop-color="#fbb03b"/>
			<stop offset="1" stop-color="#f15a24"/>
		</linearGradient>
		<linearGradient id="g7" x2="1" gradientUnits="userSpaceOnUse" gradientTransform="matrix(0,-63.196,83.223,0,73.013,98.095)">
			<stop offset="0" stop-color="#fbb03b"/>
			<stop offset="1" stop-color="#f15a24"/>
		</linearGradient>
		<linearGradient id="g8" x2="1" gradientUnits="userSpaceOnUse" gradientTransform="matrix(0,-63.196,98.292,0,100.347,98.096)">
			<stop offset="0" stop-color="#fbb03b"/>
			<stop offset="1" stop-color="#f15a24"/>
		</linearGradient>
		<linearGradient id="g9" x2="1" gradientUnits="userSpaceOnUse" gradientTransform="matrix(0,-63.197,59.947,0,62.659,98.096)">
			<stop offset="0" stop-color="#fbb03b"/>
			<stop offset="1" stop-color="#f15a24"/>
		</linearGradient>
		<linearGradient id="g10" x2="1" gradientUnits="userSpaceOnUse" gradientTransform="matrix(0,-63.197,55.517,0,191.747,98.096)">
			<stop offset="0" stop-color="#fbb03b"/>
			<stop offset="1" stop-color="#f15a24"/>
		</linearGradient>
		<linearGradient id="g11" x2="1" gradientUnits="userSpaceOnUse" gradientTransform="matrix(0,-63.197,49.349,0,136.411,98.096)">
			<stop offset="0" stop-color="#fbb03b"/>
			<stop offset="1" stop-color="#f15a24"/>
		</linearGradient>
		<linearGradient id="g12" x2="1" gradientUnits="userSpaceOnUse" gradientTransform="matrix(0,-63.197,84.117,0,227.047,98.096)">
			<stop offset="0" stop-color="#fbb03b"/>
			<stop offset="1" stop-color="#f15a24"/>
		</linearGradient>
	</defs>
	<style>
		.s0 { fill: #c69c6d } 
		.s1 { fill: #736357 } 
		.s2 { fill: #000000 } 
		.s3 { fill: url(#g1) } 
		.s4 { fill: url(#g2) } 
		.s5 { fill: url(#g3) } 
		.s6 { fill: url(#g4) } 
		.s7 { fill: url(#g5) } 
		.s8 { fill: url(#g6) } 
		.s9 { fill: url(#g7) } 
		.s10 { fill: url(#g8) } 
		.s11 { fill: url(#g9) } 
		.s12 { fill: url(#g10) } 
		.s13 { fill: url(#g11) } 
		.s14 { fill: url(#g12) } 
		.s15 { fill: #ffffff } 
		.s16 { fill: #ffb169 } 
	</style>
	<g id="Layer 1">
		<g id="&lt;Group&gt;">
			<g id="&lt;Group&gt;">
				<path id="&lt;Path&gt;" class="s0" d="m65.5 62.3c0.5 0 1-0.2 1.4-0.5 0.5-0.5 0.8-1.1 0.8-1.8 0.2-4.8-0.8-8.1-2.9-10.3-1.7-1.8-4.2-2.6-7.5-2.6-1.6 0-3.4 0.2-5.4 0.5 1.4-3.1 2.3-5.4 2.8-7.3 1.9-6.7 1.1-10.9-0.6-13.5 10-3.2 20.1-6.3 29-6.3 2.8 0 5.3 0.3 7.5 0.9q0.4 0.1 0.7 0.1c0.9 0 1.7-0.5 2.1-1.5 0.1-0.2 2.3-6.6-1.2-11.6-2.6-3.7-7.4-5.6-14.4-5.6-9.8 0-22.5 5-34.8 9.8-9.6 3.7-18.7 7.3-24.1 7.3q0 0 0 0-1 0-1.8-0.2-0.3-0.1-0.6-0.1c-0.4 0-0.9 0.2-1.3 0.4-0.5 0.4-0.9 1-0.9 1.7-0.3 3 1.2 9.1 8.7 11q2 0.5 4.4 0.5c2.5 0 5.5-0.4 9.1-1.2-1.4 4.6-4.1 11.3-8.1 20q-1.9 0.1-3.7 0.1c-2.7 0-5.3-0.2-7.7-0.7q-0.3 0-0.5 0c-0.9 0-1.8 0.6-2.1 1.5-0.1 0.3-1 3 0.8 5.9q2.1 3.4 7.7 4.9c-2.7 5.7-5.9 12-9.4 18.9-2.9 5.9-3 12 0 16.8 2.2 3.6 5.8 5.8 9.5 5.8 0.6 0 1.2-0.3 1.7-0.7 0.4-0.5 0.6-1.1 0.6-1.7-0.2-4.1 8.3-20 15.1-32.7q1.7-3.2 3.3-6.3c2-0.3 3.7-0.7 5.4-1 3.2-0.7 6-1.3 9.3-1.3 2.1 0 4.2 0.2 6.6 0.7q0.2 0.1 0.5 0.1z"/>
				<path id="&lt;Path&gt;" class="s0" d="m84.4 28.4q-1.1 0-2.4 0.1c-0.9 0-1.7 0.6-2 1.5-0.1 0.4-0.1 0.9 0 1.4-0.1 1.1-0.8 4.5-1.3 6.8l-0.4 1.8c-0.5 2-0.1 3.9 1.2 5.5 2.1 2.6 5.8 3.5 8.3 3.5 3 0 5-1.1 5.7-3 1.9-5.3 3.3-10.4 0.8-14-1.7-2.4-5-3.6-9.9-3.6z"/>
				<path id="&lt;Compound Path&gt;" class="s0" d="m292 74.4c-0.8-1.5-2.4-2.5-4.1-2.5-1.4 0-2.7 0.6-3.6 1.7-1 1-1.8 2.2-2.7 3.5-2.7 3.6-6.2 8.6-15.3 14.6-4.4 2.9-6.6 3.4-7.5 3.4-0.7 0-0.9-0.2-1-0.3-0.2-0.3-0.8-1.3-0.6-4.4 0.2-1.5 0.6-3.4 1.3-5.4q1.4 0.2 2.9 0.2c11.6 0 20.9-10.4 22-19.6 0.8-6.5-2.6-11.5-8.8-13q-2.2-0.5-4.3-0.5c-5.7 0-11.4 2.7-16.3 7.9-7.6 7.9-12.7 20.9-12.3 30.9q0.1 1.8 0.4 3.4-0.9-0.3-2.1-0.3-0.5 0-0.9 0c-1.6 0.2-6.9 0.8-11.6 1.5 7.5-12 22.2-35.7 23.2-38.2 0.5-1.4 0.4-2.9-0.5-4.2-1.5-2.2-5-3.2-7.7-3.2q-0.8 0-1.5 0.1l-24.2 3.4c-0.9 0.1-1.6 0.6-2 1.3q-0.1-0.1-0.2-0.2c-1.5-1.7-3.8-2.7-6.8-2.7-1.5 0-3.1 0.3-4.3 0.8-4 1.6-9.5 6.1-14.5 11.3q0.7-4.7-1.6-7.7c-1.9-2.5-5.4-3.9-10.1-3.9q-1.2 0-2.6 0.1c-0.7 0.1-1.4 0.6-1.8 1.3-0.3 0.5-0.3 1.2-0.1 1.8 0 0.2 0.1 1-0.1 3.1-0.6 5.4-4 13.1-7.2 19.8-2.8 3.9-6.6 8.2-14.2 13.3-4.4 2.9-6.6 3.4-7.5 3.4-0.7 0-0.9-0.2-1-0.3-0.2-0.3-0.9-1.3-0.6-4.4 0.1-1.5 0.6-3.4 1.2-5.4q1.5 0.2 2.9 0.2c11.6 0 20.9-10.4 22.1-19.6 0.7-6.5-2.6-11.5-8.9-13q-2.1-0.5-4.3-0.5c-5.7 0-11.3 2.7-16.2 7.9-2.6 2.7-4.9 5.9-6.8 9.5q0 0 0 0c2.7-5.7 5.2-11.1 2.6-14.4-1.3-1.8-3.5-2.7-6.4-2.7-3 0-6.1 1.1-7.7 2.2l-0.2 0.1c-1.1 0.8-3 2-5.4 4.7-0.7-4.2-4.5-7.1-9.4-7.1q-2.7 0-5.4 1.1c-1.2 0.4-1.7 1.8-1.3 2.9 0 0.1 1 2.6 0.4 5.6-0.2 0.7-1.2 3.7-6.5 16.9-6.3 7.6-11.7 12.9-15.1 15.1 0.1-0.7 0.3-1.6 1-3 2.9-6.5 5.2-11.2 7-15 2.5-4.9 3.9-8 4.8-10.8 1.3-4.2 1.1-7.5-0.8-10-1.9-2.7-5.5-4.1-10.3-4.1q-1.2 0-2.5 0.2c-0.9 0-1.6 0.6-1.9 1.3-0.3 0.6-0.2 1.3 0 1.8 0 0.2 0.1 1-0.2 2.9-0.5 3.6-3.8 10.9-6.9 17.9-1.8 3.9-3.6 8-4.9 11.4-3.4 8.6 0 14.9 4.4 17.1 0.9 0.4 3.1 1.4 6.3 1.4 2.7 0 5.3-0.7 7.7-2q1.5-0.8 3.2-2.2c0.1 0.8 0.5 1.5 0.8 1.9 1.1 1.6 3.3 2.5 6.7 2.6q0.8 0 1.5 0c2.4 0 4.8-0.4 6.4-3.4 0.2-0.4 0.5-1.1 1.2-2.6 5.7-12.7 10.7-22.1 15.1-28.1-0.7 2.1-1.2 3.9-1.2 4.9q0 3.5 1.9 5.5c1.7 1.7 4.3 2.5 8 2.5q0 0 0 0 0.9 0 2-0.1 0 0 0 0c-0.4 2.4-0.6 4.7-0.5 6.9 0.4 9 6 14.3 14.9 14.3 2.6 0 5.4-0.5 7.4-1.3q3.5-1.5 7.2-3.9c0.1 2.1 1.5 3.7 3.1 4.4 1.2 0.6 3 0.7 3.8 0.7 2 0 5.6-0.4 7.5-3.1 0.2-0.3 0.4-0.6 0.6-0.9 2.7-3.9 13.8-20.2 24-31-2.6 5.3-5.7 11.6-7.3 16.9-2.3 7.9-0.5 14.4 4.6 16.9 0.8 0.5 3.1 1.4 6.3 1.4 2.7 0 5.3-0.7 7.7-2q0.3-0.2 0.6-0.4c0.6 3.6 2.9 4.4 4.9 4.4q0.3 0 0.6-0.1c2-0.2 15.3-2.1 27.9-4 2.1-0.3 3.4-0.5 3.7-0.5 0.7-0.1 1.4-0.5 1.8-1.3 2.6 2.5 6.2 3.8 10.7 3.8q0 0 0 0c2.6 0 5.3-0.5 7.3-1.3 13-5.3 23.7-19.1 27.7-24.8 1-1.5 1.2-3.2 0.4-4.7zm-20.1-12.2c4.9-0.5-1.1 18-11.9 14.7 3.4-7.2 8.7-14.4 11.9-14.7zm-115.1 0c5-0.5-1.1 18-11.8 14.7 3.3-7.2 8.7-14.4 11.8-14.7zm66 10.7c-3.4 4.6-14 17.3-20 21.2 0.1-0.6 0.3-1.6 0.8-3 2.8-6.8 4.8-11.1 6.5-14.5 2.6-5.3 4.3-8.9 5.7-16.3q0-0.1 0-0.1c1.1 1.1 2.7 1.8 4.9 1.8q0.7 0 1.5-0.1l8.3-1.1c-2 3.3-4.5 7.3-7 11.4q-0.4 0.3-0.7 0.7z"/>
			</g>
			<g id="&lt;Group&gt;">
				<path id="&lt;Path&gt;" class="s1" d="m63.2 62.3c0.5 0 1-0.2 1.4-0.5 0.5-0.5 0.8-1.1 0.9-1.8 0.1-4.8-0.9-8.1-2.9-10.3-1.8-1.8-4.2-2.6-7.5-2.6-1.7 0-3.5 0.2-5.5 0.5 1.4-3.1 2.3-5.4 2.8-7.3 1.9-6.7 1.1-10.9-0.5-13.5 9.9-3.2 20-6.3 28.9-6.3 2.8 0 5.3 0.3 7.6 0.9q0.3 0.1 0.6 0.1c0.9 0 1.8-0.5 2.1-1.5 0.1-0.2 2.4-6.6-1.2-11.6-2.5-3.7-7.4-5.6-14.3-5.6-9.9 0-22.6 5-34.8 9.8-9.7 3.7-18.8 7.3-24.1 7.3q0 0 0 0-1.1 0-1.9-0.2-0.2-0.1-0.5-0.1c-0.5 0-0.9 0.2-1.3 0.4-0.6 0.4-0.9 1-1 1.7-0.3 3 1.2 9.1 8.7 11q2 0.5 4.4 0.5c2.6 0 5.5-0.4 9.1-1.2-1.4 4.6-4.1 11.3-8.1 20q-1.9 0.1-3.7 0.1c-2.7 0-5.3-0.2-7.7-0.7q-0.2 0-0.4 0c-1 0-1.9 0.6-2.2 1.5-0.1 0.3-0.9 3 0.8 5.9q2.1 3.4 7.7 4.9c-2.7 5.7-5.9 12-9.3 18.9-3 5.9-3 12-0.1 16.8 2.2 3.6 5.9 5.8 9.6 5.8 0.6 0 1.2-0.3 1.6-0.7 0.4-0.5 0.6-1.1 0.6-1.7-0.2-4.1 8.3-20 15.1-32.7q1.7-3.2 3.3-6.3c2-0.3 3.7-0.7 5.4-1 3.3-0.7 6-1.3 9.3-1.3 2.1 0 4.3 0.2 6.6 0.7q0.3 0.1 0.5 0.1z"/>
				<path id="&lt;Path&gt;" class="s1" d="m79.8 28.5c-0.9 0-1.7 0.6-2 1.5-0.2 0.4-0.2 0.9-0.1 1.4 0 1.1-0.8 4.5-1.3 6.8l-0.4 1.8c-0.5 2 0 3.9 1.2 5.5 2.1 2.6 5.8 3.5 8.4 3.5 2.9 0 5-1.1 5.6-3 1.9-5.3 3.4-10.4 0.8-14-1.7-2.4-4.9-3.6-9.9-3.6q-1.1 0-2.3 0.1z"/>
				<path id="&lt;Compound Path&gt;" class="s1" d="m289.8 74.4c-0.8-1.5-2.4-2.5-4.2-2.5-1.3 0-2.6 0.6-3.6 1.7-0.9 1-1.8 2.2-2.7 3.5-2.6 3.6-6.2 8.6-15.3 14.6-4.3 2.9-6.5 3.4-7.4 3.4-0.7 0-0.9-0.2-1-0.3-0.2-0.3-0.9-1.3-0.6-4.4 0.1-1.5 0.5-3.4 1.2-5.4q1.5 0.2 2.9 0.2c11.6 0 20.9-10.4 22-19.6 0.8-6.5-2.6-11.5-8.8-13q-2.1-0.5-4.3-0.5c-5.7 0-11.3 2.7-16.3 7.9-7.5 7.9-12.7 20.9-12.3 30.9q0.1 1.8 0.5 3.4-1-0.3-2.2-0.3-0.4 0-0.9 0c-1.5 0.2-6.9 0.8-11.5 1.5 7.4-12 22.1-35.7 23.1-38.2 0.6-1.4 0.4-2.9-0.4-4.2-1.6-2.2-5-3.2-7.8-3.2q-0.8 0-1.4 0.1l-24.3 3.4c-0.9 0.1-1.6 0.6-2 1.3q-0.1-0.1-0.2-0.2c-1.4-1.7-3.8-2.7-6.7-2.7-1.6 0-3.1 0.3-4.3 0.8-4.1 1.6-9.5 6.1-14.6 11.3q0.7-4.7-1.5-7.7c-2-2.5-5.5-3.9-10.1-3.9q-1.3 0-2.6 0.1c-0.8 0.1-1.5 0.6-1.8 1.3-0.3 0.5-0.4 1.2-0.1 1.8 0 0.2 0.1 1-0.2 3.1-0.6 5.4-3.9 13.1-7.2 19.8-2.8 3.9-6.5 8.2-14.2 13.3-4.4 2.9-6.6 3.4-7.5 3.4-0.7 0-0.9-0.2-1-0.3-0.2-0.3-0.9-1.3-0.6-4.4 0.2-1.5 0.6-3.4 1.3-5.4q1.4 0.2 2.9 0.2c11.6 0 20.9-10.4 22-19.6 0.8-6.5-2.6-11.5-8.8-13q-2.2-0.5-4.4-0.5c-5.7 0-11.3 2.7-16.2 7.9-2.6 2.7-4.9 5.9-6.8 9.5q0 0 0.1 0c2.6-5.7 5.1-11.1 2.6-14.4-1.4-1.8-3.6-2.7-6.4-2.7-3 0-6.2 1.1-7.8 2.2l-0.2 0.1c-1.1 0.8-2.9 2-5.4 4.7-0.7-4.2-4.4-7.1-9.4-7.1q-2.7 0-5.4 1.1c-1.1 0.4-1.7 1.8-1.2 2.9 0 0.1 0.9 2.6 0.3 5.6-0.1 0.7-1.2 3.7-6.4 16.9-6.4 7.6-11.8 12.9-15.2 15.1 0.1-0.7 0.4-1.6 1-3 3-6.5 5.2-11.2 7.1-15 2.4-4.9 3.9-8 4.8-10.8 1.3-4.2 1-7.5-0.8-10-2-2.7-5.5-4.1-10.4-4.1q-1.2 0-2.5 0.2c-0.8 0-1.5 0.6-1.9 1.3-0.2 0.6-0.2 1.3 0 1.8 0.1 0.2 0.1 1-0.1 2.9-0.6 3.6-3.8 10.9-7 17.9-1.7 3.9-3.6 8-4.9 11.4-3.3 8.6 0 14.9 4.5 17.1 0.8 0.4 3.1 1.4 6.3 1.4 2.6 0 5.2-0.7 7.7-2q1.4-0.8 3.2-2.2c0.1 0.8 0.4 1.5 0.7 1.9 1.2 1.6 3.4 2.5 6.8 2.6q0.8 0 1.5 0c2.3 0 4.7-0.4 6.3-3.4 0.2-0.4 0.6-1.1 1.2-2.6 5.7-12.7 10.8-22.1 15.1-28.1-0.7 2.1-1.1 3.9-1.1 4.9q-0.1 3.5 1.9 5.5c1.6 1.7 4.2 2.5 7.9 2.5q0 0 0 0 1 0 2-0.1 0.1 0 0.1 0c-0.4 2.4-0.6 4.7-0.5 6.9 0.4 9 5.9 14.3 14.9 14.3 2.6 0 5.3-0.5 7.3-1.3q3.6-1.5 7.2-3.9c0.2 2.1 1.5 3.7 3.1 4.4 1.2 0.6 3.1 0.7 3.8 0.7 2 0 5.6-0.4 7.5-3.1 0.2-0.3 0.5-0.6 0.7-0.9 2.6-3.9 13.7-20.2 24-31-2.7 5.3-5.8 11.6-7.3 16.9-2.3 7.9-0.6 14.4 4.5 16.9 0.8 0.5 3.1 1.4 6.3 1.4 2.7 0 5.3-0.7 7.7-2q0.3-0.2 0.6-0.4c0.7 3.6 3 4.4 4.9 4.4q0.3 0 0.6-0.1c2.1-0.2 15.3-2.1 28-4 2-0.3 3.4-0.5 3.6-0.5 0.7-0.1 1.5-0.5 1.9-1.3 2.5 2.5 6.2 3.8 10.6 3.8q0 0 0 0c2.6 0 5.4-0.5 7.4-1.3 12.9-5.3 23.6-19.1 27.6-24.8 1.1-1.5 1.2-3.2 0.5-4.7zm-21.2-10.7c4-0.4-0.9 14.4-9.5 11.8 2.7-5.8 7-11.5 9.5-11.8zm-115.1 0c4-0.4-0.8 14.4-9.4 11.8 2.7-5.8 6.9-11.5 9.4-11.8zm67 9.2c-3.4 4.6-14 17.3-20 21.2 0.1-0.6 0.3-1.6 0.9-3 2.7-6.8 4.8-11.1 6.4-14.5 2.6-5.3 4.3-8.9 5.7-16.3q0-0.1 0-0.1c1.1 1.1 2.8 1.8 4.9 1.8q0.7 0 1.5-0.1l8.3-1.1c-2 3.3-4.5 7.3-7 11.4q-0.4 0.3-0.7 0.7z"/>
			</g>
			<g id="&lt;Group&gt;">
				<path id="&lt;Path&gt;" class="s2" d="m61.7 62.3c0.5 0 1-0.2 1.4-0.5 0.5-0.5 0.8-1.1 0.8-1.8 0.2-4.8-0.8-8.1-2.8-10.3-1.8-1.8-4.3-2.6-7.6-2.6-1.6 0-3.4 0.2-5.4 0.5 1.4-3.1 2.3-5.4 2.8-7.3 1.9-6.7 1.1-10.9-0.6-13.5 10-3.2 20.1-6.3 29-6.3 2.8 0 5.3 0.3 7.6 0.9q0.3 0.1 0.6 0.1c0.9 0 1.8-0.5 2.1-1.5 0.1-0.2 2.4-6.6-1.2-11.6-2.6-3.7-7.4-5.6-14.4-5.6-9.8 0-22.5 5-34.8 9.8-9.6 3.7-18.7 7.3-24 7.3q0 0 0 0-1.1 0-1.9-0.2-0.3-0.1-0.5-0.1c-0.5 0-1 0.2-1.3 0.4-0.6 0.4-0.9 1-1 1.7-0.3 3 1.2 9.1 8.7 11q2 0.5 4.4 0.5c2.6 0 5.5-0.4 9.1-1.2-1.4 4.6-4.1 11.3-8.1 20q-1.9 0.1-3.7 0.1c-2.7 0-5.3-0.2-7.7-0.7q-0.2 0-0.5 0c-0.9 0-1.8 0.6-2.1 1.5-0.1 0.3-0.9 3 0.8 5.9q2.1 3.4 7.7 4.9c-2.7 5.7-5.9 12-9.3 18.9-3 5.9-3.1 12-0.1 16.8 2.2 3.6 5.8 5.8 9.5 5.8 0.7 0 1.3-0.3 1.7-0.7 0.4-0.5 0.6-1.1 0.6-1.7-0.2-4.1 8.3-20 15.1-32.7q1.7-3.2 3.3-6.3c2-0.3 3.7-0.7 5.4-1 3.2-0.7 6-1.3 9.3-1.3 2.1 0 4.2 0.2 6.6 0.7q0.3 0.1 0.5 0.1z"/>
				<path id="&lt;Path&gt;" class="s2" d="m78.2 28.5c-0.9 0-1.6 0.6-1.9 1.5-0.2 0.4-0.2 0.9-0.1 1.4 0 1.1-0.8 4.5-1.3 6.8l-0.4 1.8c-0.5 2 0 3.9 1.2 5.5 2.1 2.6 5.8 3.5 8.4 3.5 2.9 0 4.9-1.1 5.6-3 1.9-5.3 3.3-10.4 0.8-14-1.7-2.4-4.9-3.6-9.9-3.6q-1.1 0-2.4 0.1z"/>
				<path id="&lt;Compound Path&gt;" class="s2" d="m288.2 74.4c-0.7-1.5-2.4-2.5-4.1-2.5-1.4 0-2.6 0.6-3.6 1.7-1 1-1.8 2.2-2.7 3.5-2.6 3.6-6.2 8.6-15.3 14.6-4.3 2.9-6.5 3.4-7.5 3.4-0.6 0-0.8-0.2-0.9-0.3-0.2-0.3-0.9-1.3-0.6-4.4 0.1-1.5 0.5-3.4 1.2-5.4q1.5 0.2 2.9 0.2c11.6 0 20.9-10.4 22-19.6 0.8-6.5-2.6-11.5-8.8-13q-2.1-0.5-4.3-0.5c-5.7 0-11.3 2.7-16.3 7.9-7.6 7.9-12.7 20.9-12.3 30.9q0.1 1.8 0.5 3.4-1-0.3-2.2-0.3-0.4 0-0.9 0c-1.6 0.2-6.9 0.8-11.5 1.5 7.4-12 22.1-35.7 23.1-38.2 0.6-1.4 0.4-2.9-0.4-4.2-1.6-2.2-5.1-3.2-7.8-3.2q-0.8 0-1.4 0.1l-24.3 3.4c-0.9 0.1-1.6 0.6-2 1.3q-0.1-0.1-0.2-0.2c-1.4-1.7-3.8-2.7-6.7-2.7-1.6 0-3.1 0.3-4.3 0.8-4.1 1.6-9.5 6.1-14.6 11.3q0.7-4.7-1.5-7.7c-2-2.5-5.5-3.9-10.1-3.9q-1.3 0-2.6 0.1c-0.8 0.1-1.5 0.6-1.8 1.3-0.3 0.5-0.4 1.2-0.2 1.8 0.1 0.2 0.2 1-0.1 3.1-0.6 5.4-3.9 13.1-7.2 19.8-2.8 3.9-6.5 8.2-14.2 13.3-4.4 2.9-6.6 3.4-7.5 3.4-0.7 0-0.9-0.2-1-0.3-0.2-0.3-0.9-1.3-0.6-4.4 0.2-1.5 0.6-3.4 1.2-5.4q1.5 0.2 2.9 0.2c11.6 0 21-10.4 22.1-19.6 0.8-6.5-2.6-11.5-8.8-13q-2.2-0.5-4.4-0.5c-5.7 0-11.3 2.7-16.2 7.9-2.6 2.7-4.9 5.9-6.8 9.5q0 0 0 0c2.7-5.7 5.2-11.1 2.7-14.4-1.4-1.8-3.6-2.7-6.4-2.7-3 0-6.2 1.1-7.8 2.2l-0.2 0.1c-1.1 0.8-2.9 2-5.4 4.7-0.7-4.2-4.5-7.1-9.4-7.1q-2.7 0-5.4 1.1c-1.1 0.4-1.7 1.8-1.3 2.9 0.1 0.1 1 2.6 0.4 5.6-0.2 0.7-1.2 3.7-6.5 16.9-6.3 7.6-11.7 12.9-15.1 15.1 0.1-0.7 0.4-1.6 1-3 3-6.5 5.2-11.2 7.1-15 2.4-4.9 3.8-8 4.7-10.8 1.4-4.2 1.1-7.5-0.7-10-2-2.7-5.5-4.1-10.4-4.1q-1.2 0-2.5 0.2c-0.8 0-1.5 0.6-1.9 1.3-0.2 0.6-0.2 1.3 0 1.8 0.1 0.2 0.1 1-0.1 2.9-0.6 3.6-3.8 10.9-7 17.9-1.8 3.9-3.6 8-4.9 11.4-3.3 8.6 0 14.9 4.4 17.1 0.9 0.4 3.1 1.4 6.4 1.4 2.6 0 5.2-0.7 7.7-2q1.4-0.8 3.2-2.2c0.1 0.8 0.4 1.5 0.7 1.9 1.1 1.6 3.4 2.5 6.8 2.6q0.8 0 1.5 0c2.3 0 4.7-0.4 6.3-3.4 0.2-0.4 0.6-1.1 1.2-2.6 5.7-12.7 10.7-22.1 15.1-28.1-0.7 2.1-1.1 3.9-1.2 4.9q0 3.5 2 5.5c1.6 1.7 4.2 2.5 7.9 2.5q0 0 0 0 1 0 2-0.1 0 0 0.1 0c-0.4 2.4-0.6 4.7-0.5 6.9 0.4 9 5.9 14.3 14.9 14.3 2.5 0 5.3-0.5 7.3-1.3q3.6-1.5 7.2-3.9c0.2 2.1 1.5 3.7 3.1 4.4 1.2 0.6 3 0.7 3.8 0.7 2 0 5.6-0.4 7.5-3.1 0.2-0.3 0.5-0.6 0.7-0.9 2.6-3.9 13.7-20.2 23.9-31-2.6 5.3-5.7 11.6-7.2 16.9-2.3 7.9-0.6 14.4 4.5 16.9 0.8 0.5 3.1 1.4 6.3 1.4 2.7 0 5.3-0.7 7.7-2q0.3-0.2 0.6-0.4c0.7 3.6 3 4.4 4.9 4.4q0.3 0 0.6-0.1c2.1-0.2 15.3-2.1 28-4 2-0.3 3.4-0.5 3.6-0.5 0.7-0.1 1.4-0.5 1.9-1.3 2.5 2.5 6.1 3.8 10.6 3.8q0 0 0 0c2.6 0 5.3-0.5 7.4-1.3 12.9-5.3 23.6-19.1 27.6-24.8 1.1-1.5 1.2-3.2 0.4-4.7zm-21.1-10.7c4-0.4-0.9 14.4-9.5 11.8 2.7-5.8 7-11.5 9.5-11.8zm-115.1 0c4-0.4-0.9 14.4-9.4 11.8 2.6-5.8 6.9-11.5 9.4-11.8zm67 9.2c-3.4 4.6-14 17.3-20 21.2 0.1-0.6 0.3-1.6 0.9-3 2.7-6.8 4.8-11.1 6.4-14.5 2.6-5.3 4.3-8.9 5.7-16.3q0-0.1 0-0.1c1.1 1.1 2.8 1.8 4.9 1.8q0.7 0 1.5-0.1l8.3-1.1c-2 3.3-4.5 7.3-7 11.4q-0.4 0.3-0.7 0.7z"/>
			</g>
			<g id="&lt;Group&gt;">
				<g id="&lt;Group&gt;">
					<path id="&lt;Path&gt;" class="s3" d="m44.1 50.8c2.2-4.6 3.9-8.4 4.7-11.1 2-7.3 0.9-11.8-2.7-14 14-4.4 29.6-9.7 41.4-6.4 0 0 5.2-14.2-13.5-14.2-18.6 0-50.5 19.6-61.2 16.8 0 0-0.7 6.7 6.9 8.6 4.2 1 9.8 0.1 16.2-1.6-0.9 4.6-4.2 13-9.8 25.3-4.3 0.4-8.8 0.3-13.4-0.5 0 0-2.2 6.6 9.7 8.3q-4.5 9.6-10.6 21.6c-5.4 10.6 1 19.3 7.4 19.3-0.2-5.6 10.6-24.7 19.2-41.1 8.8-1.3 13.4-3.9 23.3-1.8 0.3-12.4-6.9-11.6-17.6-9.2z"/>
					<path id="&lt;Path&gt;" class="s4" d="m87.6 45.2c3.1-8.8 4.3-15.3-9.2-14.5 0.5 0.5-0.8 5.6-1.7 9.8-1.4 6.1 9.8 7.9 10.9 4.7z"/>
					<path id="&lt;Path&gt;" class="s5" d="m129.3 56.5c-2.5-3.2-9-1.5-11.1 0-1.5 1-5 3.1-9.8 10.4 0.5-2 0.8-5.1 0.7-6.5-0.3-4.7-5.6-7.3-11.8-4.9 0 0 1.3 3.1 0.5 6.9-0.3 1.6-3.4 9.5-6.7 17.6-5.1 6.1-12.7 14.4-17.2 16.6-1.7 0.7-3.5-1.2-1-6.6 7-15.3 10.3-20.9 11.8-25.6 3.4-10.7-6-11.5-11.3-11 0 0 0.5 0.7 0 4.1-0.9 6.2-8.4 20.5-12 29.9-2.7 6.9-0.5 12.3 3.4 14.2 1.7 0.9 6.6 2.3 11.9-0.6 2.6-1.4 5.8-4.3 9.1-7.7-1.4 3.4-2.3 5.7-2.4 6.1-1 2.9 2.6 3.5 5.1 3.6 2.9 0.1 4.6 0.2 5.8-2.2 1.3-2.3 13.4-32.2 23.9-38.6 0 0-4.4 11.5-4.5 14-0.1 3.7 2 6 9.5 5.5 0 0-0.8-2.4 0.4-6.6 1.8-5.9 8.2-15.4 5.7-18.6z"/>
					<path id="&lt;Compound Path&gt;" class="s6" d="m235.5 96.3c-2.2 0.2-11.6 1.4-16.2 2.1 4.6-7.4 24.5-39.3 25.5-41.9 1.2-3.1-4-4.7-7.2-4.3-3.2 0.5-24.3 3.4-24.3 3.4-1.2 0.2-0.7 4.9 4.8 4.1 2.9-0.4 8.4-1.2 13.1-1.8-2.4 3.9-6 9.7-9.8 15.8q-0.3 0.3-0.6 0.6c-3 4-15.6 19.4-22.1 22.6-1.6 0.8-3.1-1.1-0.9-6.6 7-17.5 9.8-18.6 12-30.4 1.2-6.3-6.3-6.4-9.2-5.2-5.3 2.1-14.5 10.7-22.3 20.1 2.3-4.6 3.9-8 4.2-9.1 3-10.8-6-11.5-11.3-11 0 0 0.4 0.6 0 4.1-0.6 5.6-3.9 13.2-7.5 20.8-2.7 3.7-6.5 8.4-15 14-11.7 7.9-13 1.6-12.5-3.4 0.2-2.3 0.9-5 1.9-7.8 19.4 4.8 33.5-23.6 17.1-27.6-17.2-4.2-30.7 20.9-30.1 36 0.7 14.1 14.4 12.9 19.2 11 4.5-1.9 8.8-4.9 12.6-8.2q-1 2.2-1.9 4.2c-1.1 2.5 0.2 4 1.3 4.6 1.4 0.6 6.7 0.9 8.6-1.7q0.3-0.4 0.6-0.9c3.4-5.1 21.1-31 33-39-0.3 2.1-9.3 16.6-12.3 26.9-2.1 7.1-0.4 12.3 3.4 14.2 1.8 0.9 6.6 2.4 11.9-0.6 1.9-1 4.1-2.9 6.5-5.1-1.7 2.9-2.7 4.9-2.7 5.2 0.1 1.7 0.4 3.8 3.2 3.6 2.9-0.3 30.3-4.4 31.5-4.5 0.8-0.1 0.2-4.7-4.5-4.2zm-81.4-35.6c6-0.6-1.4 21.7-14.3 17.7 4.1-8.8 10.5-17.4 14.3-17.7z"/>
					<path id="&lt;Compound Path&gt;" class="s7" d="m282.2 75.1c-3.5 3.8-5.9 10.2-18.4 18.5-11.8 7.9-13 1.6-12.6-3.4 0.2-2.3 0.9-5 2-7.8 19.4 4.8 33.4-23.6 17.1-27.6-17.2-4.2-30.8 20.9-30.1 36 0.6 14.1 14.4 12.9 19.1 11 13.1-5.3 24-20.2 26.7-24 1.8-2.6-1.8-5-3.8-2.7zm-13.1-14.4c6-0.6-1.3 21.7-14.2 17.7 4-8.8 10.4-17.4 14.2-17.7z"/>
				</g>
			</g>
			<g id="&lt;Group&gt;">
				<path id="&lt;Path&gt;" class="s8" d="m35.1 58.4c8.8-1.3 13.3-3.8 23.3-1.7 0-2.9-0.3-5.1-1-6.7-3.1-1.3-7.7-0.5-13.3 0.8q1.1-2.4 2.1-4.4c-1.7 0.2-3.5 0.6-5.4 1 2.2-4.5 3.9-8.3 4.6-11 2.1-7.3 0.9-11.8-2.6-14 14-4.5 29.6-9.8 41.4-6.5 0 0 1.7-4.8-0.5-8.8-2.1-1.2-5.2-2-9.7-2-18.6 0-50.5 19.6-61.2 16.8 0 0-0.2 2.1 0.9 4.3q1.1 0.6 2.7 1c4.1 1 9.8 0.1 16.1-1.7q-0.3 1.9-1.1 4.5 2.1-0.5 4.5-1.1c-0.9 4.6-4.2 13-9.8 25.3-4.3 0.4-8.8 0.3-13.4-0.5 0 0-0.4 1.4 0.3 3.2 1.4 0.7 3.4 1.4 6.1 1.8q-0.5 1.1-1.1 2.3c1.2 0.4 2.7 0.8 4.4 1q-4.5 9.6-10.6 21.6c-3 5.9-2.4 11.2-0.1 14.7 1.3 0.9 2.8 1.3 4.2 1.3-0.2-5.6 10.5-24.7 19.2-41.2z"/>
				<path id="&lt;Path&gt;" class="s9" d="m78.4 30.7c0.5 0.5-0.8 5.6-1.7 9.8q-0.3 1.2 0 2.1c3 1.3 6.9 1.1 7.6-0.7 1.4-4.2 2.5-7.9 1.7-10.5-1.7-0.6-4.2-0.9-7.6-0.7z"/>
				<path id="&lt;Path&gt;" class="s10" d="m119.9 78.4c0 0-0.9-2.5 0.4-6.6 1.5-5.1 6.5-12.8 6.2-16.9-2.9-0.7-6.8 0.5-8.3 1.6-0.7 0.4-1.9 1.2-3.4 2.6-0.5 1.1-2.4 6.3-3.6 10.1 2.3-3.1 4.7-5.6 7-7 0 0-4.4 11.5-4.5 14q0 0.9 0.2 1.8c1.4 0.4 3.4 0.6 6 0.4z"/>
				<path id="&lt;Path&gt;" class="s11" d="m91 97.5c1-1.9 9.2-21.9 17.8-32.8 0.3-1.6 0.4-3.3 0.3-4.3q0-0.9-0.4-1.8c-1.1 1.3-2.3 3-3.6 5 0.5-2.1 0.8-5.1 0.7-6.5q-0.1-1-0.4-1.8c-2.1-1-5-1-8.1 0.2 0 0 1.3 3.1 0.5 6.9-0.3 1.6-3.4 9.5-6.7 17.6-5.1 6.1-12.7 14.4-17.2 16.6-1.4 0.6-2.9-0.6-1.9-4.2q-0.8 0.5-1.5 0.8c-1.6 0.8-3.4-1.1-0.9-6.5 7-15.4 10.3-20.9 11.8-25.6 0.9-2.9 0.8-5.1 0.2-6.7-2.5-1.2-5.8-1.2-8.2-1 0 0 0.5 0.7 0 4.1-0.9 6.2-8.4 20.5-12 29.9-1.7 4.4-1.4 8.2 0 10.9q0 0 0 0c1.8 0.9 6.6 2.3 11.9-0.6 2.6-1.5 5.9-4.4 9.1-7.7-1.3 3.3-2.3 5.7-2.4 6.1-0.3 1-0.1 1.7 0.4 2.2 1.7-1.4 3.6-3.1 5.4-5-1.4 3.4-2.3 5.7-2.4 6.1q-0.1 0.1-0.1 0.1c0.7 0.1 1.3 0.2 1.9 0.2 2.8 0.1 4.6 0.1 5.8-2.2z"/>
				<path id="&lt;Path&gt;" class="s12" d="m237 96.3q-0.7-0.1-1.5 0c-2.2 0.2-11.6 1.4-16.2 2.1 0.6-1 1.5-2.4 2.6-4.2-2.3 0.3-4.4 0.6-6 0.9 4.7-7.4 24.5-39.3 25.6-42q0.1-0.2 0.1-0.5c-1.3-0.4-2.8-0.5-4-0.4-3.2 0.5-24.3 3.4-24.3 3.4-0.3 0-0.5 0.4-0.5 0.8q0.8 0.1 2 0c2.8-0.4 8.4-1.2 13-1.8q-1.1 1.8-2.5 4.1c1.9-0.3 4-0.6 5.9-0.8-2.4 3.9-6 9.7-9.8 15.8q-0.3 0.3-0.6 0.6c-3 4-15.6 19.4-22.1 22.6-1.4 0.6-2.7-0.6-1.7-4.3q-0.9 0.6-1.6 1c-1.6 0.7-3.2-1.1-1-6.6 7-17.5 9.8-18.7 12.1-30.5q0.2-1.2 0-2.1c-2-0.6-4.5-0.3-5.9 0.3-1.6 0.6-3.5 1.8-5.6 3.4-0.7 1.8-3 5.8-5.4 10.6 3.1-3.3 6.2-6.1 8.9-7.9-0.3 2.1-9.3 16.6-12.3 26.9-1.3 4.6-1.1 8.3 0.2 11 1.9 0.8 6.6 2.2 11.8-0.7 1.9-1.1 4.1-2.9 6.4-5.1-1.6 2.9-2.6 4.8-2.6 5.2 0 0.9 0.1 1.8 0.6 2.5 1.6-1 3.5-2.6 5.4-4.4-1.7 2.9-2.7 4.9-2.7 5.2q0 0.1 0 0.2c3.4-0.3 30.2-4.3 31.4-4.5 0.2 0 0.3-0.3 0.3-0.8z"/>
				<path id="&lt;Path&gt;" class="s13" d="m161.6 97.4q0.2-0.4 0.5-0.9c2-3 8.9-13.1 16.7-22.6 2-4.2 3.4-7.2 3.7-8.2q0.4-1.7 0.5-3.1c-2.7 2.7-5.4 5.8-8 8.9 2.3-4.7 3.8-8.1 4.1-9.1 0.9-3 0.8-5.2 0.2-6.8-2.5-1.1-5.7-1.1-8.1-0.9 0 0 0.4 0.6 0 4.1-0.6 5.6-3.9 13.2-7.5 20.8-2.7 3.7-6.5 8.4-15 14-8.8 5.9-11.7 3.9-12.4 0.4-3.4-0.3-3.8-3.9-3.5-7.1 0.2-2.3 1-5 2-7.9 3.6 0.9 7 0.7 10-0.3-1.5 0.3-3.2 0.2-5-0.3q0.7-1.5 1.5-3c-1.5 0.3-3.1 0.2-4.8-0.3 4-8.8 10.5-17.4 14.2-17.7 1.7-0.2 2.3 1.4 2.1 3.6q0.7-0.3 1.3-0.3c4.2-0.4 1.8 10.7-4.6 15.7 7.6-5 11.7-14.6 8.6-20.5q-1.3-0.7-2.9-1.1c-17.2-4.2-30.7 20.9-30.1 36 0.2 2.9 0.9 5.2 1.9 6.9 4.6 2.8 11 1.9 13.9 0.8 4.6-1.9 8.9-4.9 12.7-8.2q-1 2.1-1.9 4.2c-0.6 1.4-0.5 2.5-0.1 3.2 1.9-1.2 3.6-2.6 5.3-4.1q-1 2.2-1.9 4.2-0.4 0.9-0.4 1.6c2.1 0.2 5.6-0.1 7-2z"/>
				<path id="&lt;Path&gt;" class="s14" d="m256 98.5c5.4-2.2 10.4-6 14.6-10-1.8 1.6-4.1 3.3-6.8 5.1-8.8 5.9-11.7 3.9-12.5 0.4-3.3-0.3-3.7-3.9-3.4-7.1 0.2-2.3 0.9-5 2-7.9 3.5 0.9 6.9 0.7 10-0.3-1.6 0.3-3.3 0.2-5-0.3q0.7-1.5 1.5-3c-1.5 0.3-3.2 0.2-4.9-0.3 4.1-8.8 10.5-17.4 14.3-17.7 1.6-0.2 2.3 1.4 2.1 3.6q0.6-0.3 1.2-0.3c4.3-0.4 1.8 10.7-4.6 15.7 7.6-5 11.7-14.6 8.6-20.5q-1.2-0.7-2.8-1.1c-17.2-4.2-30.8 20.9-30.1 36 0.1 2.9 0.8 5.2 1.9 6.9 4.6 2.8 10.9 1.9 13.9 0.8z"/>
			</g>
			<g id="&lt;Group&gt;">
				<g id="&lt;Group&gt;">
					<path id="&lt;Path&gt;" class="s15" d="m50.8 21.9c5.3-1.6 10.5-3.3 15.9-4.6 5.9-1.4 11.1-1.4 17.1-0.1 0.6 0.2 1-0.7 0.4-1.1-4.6-3.1-10.7-1.8-15.8-0.7-6.1 1.5-12.1 3.4-17.7 6.3-0.1 0.1 0 0.2 0.1 0.2z"/>
				</g>
				<g id="&lt;Group&gt;">
					<path id="&lt;Path&gt;" class="s15" d="m69 13.3c4.1-1.1 9.7-2.2 13.5 0.1 0.4 0.2 0.8-0.3 0.5-0.6-3.6-3.6-10.1-1.1-14.1 0.4-0.1 0 0 0.1 0.1 0.1z"/>
				</g>
				<g id="&lt;Group&gt;">
					<path id="&lt;Path&gt;" class="s15" d="m83.8 33.1c4.5 1.4 2.1 7.1 2.2 10.4 0 0.4 0.5 0.5 0.7 0.2 1.7-3.4 2-10.2-2.8-10.9-0.2 0-0.3 0.2-0.1 0.3z"/>
				</g>
				<g id="&lt;Group&gt;">
					<path id="&lt;Path&gt;" class="s15" d="m84.3 35.9c0.4 1.3 0.3 2.7 0 4-0.1 0.3 0.4 0.5 0.5 0.1 0.6-1.4 0.5-2.9-0.2-4.2-0.1-0.2-0.4-0.1-0.3 0.1z"/>
				</g>
				<g id="&lt;Group&gt;">
					<path id="&lt;Path&gt;" class="s15" d="m29.5 70.2c-1.4 5.6-4.4 10.6-7.3 15.5-2.4 4.2-5.2 8.8-5.2 13.8 0 0.5 0.8 0.6 0.9 0.1 1.6-5.6 3.9-10.6 6.7-15.7 2.4-4.3 4.6-8.7 5.1-13.7 0-0.1-0.2-0.2-0.2 0z"/>
				</g>
				<g id="&lt;Group&gt;">
					<path id="&lt;Path&gt;" class="s15" d="m80.7 56.9c3.1 4.4-1.3 11.4-2.7 15.8-0.1 0.4 0.5 0.7 0.7 0.3 2.1-4.6 6.5-11.6 2.1-16.2 0 0-0.1 0.1-0.1 0.1z"/>
				</g>
				<g id="&lt;Group&gt;">
					<path id="&lt;Path&gt;" class="s15" d="m123.7 57c4.2 2.3-0.3 9-1.6 12.1-1.2 2.9-2.1 5.8-2 9 0 0.6 0.8 0.6 0.8 0 0.6-5.4 3.3-9.9 4.8-15 0.8-2.5 0.9-5.3-1.9-6.4-0.1-0.1-0.2 0.2-0.1 0.3z"/>
				</g>
				<g id="&lt;Group&gt;">
					<path id="&lt;Path&gt;" class="s15" d="m119.2 70.3c-0.9 1.5-1.5 3.4-1.3 5.3 0 0.4 0.7 0.6 0.8 0.1 0.4-1.7 0.7-3.5 1-5.2 0-0.3-0.3-0.5-0.5-0.2z"/>
				</g>
				<g id="&lt;Group&gt;">
					<path id="&lt;Path&gt;" class="s15" d="m103.4 58.1c2.2 3.1 0.7 6.7-0.1 10-0.2 0.4 0.5 0.7 0.6 0.3 1.6-3.3 2.4-7.4-0.4-10.3-0.1-0.1-0.2 0-0.1 0z"/>
				</g>
				<g id="&lt;Group&gt;">
					<path id="&lt;Path&gt;" class="s15" d="m149.1 55.9c-7.6 2.9-13.9 8.2-17.5 15.7-0.2 0.5 0.5 1 0.8 0.5 4.1-6.7 9.8-12.3 16.8-15.9 0.2-0.1 0.1-0.4-0.1-0.3z"/>
				</g>
				<g id="&lt;Group&gt;">
					<path id="&lt;Path&gt;" class="s15" d="m264.8 55.9c-7.7 2.9-14 8.2-17.5 15.7-0.3 0.5 0.5 1 0.8 0.5 4.1-6.7 9.8-12.3 16.8-15.9 0.2-0.1 0.1-0.4-0.1-0.3z"/>
				</g>
				<g id="&lt;Group&gt;">
					<path id="&lt;Path&gt;" class="s15" d="m203.6 56.9c4-0.8 2.9 5.1 2.6 6.6-0.4 1.6-0.9 3.1-1.6 4.6-1.2 2.5-2.7 4.8-4.2 7.1-2.6 4.2-5.3 8.3-5.7 13.3-0.1 0.6 0.7 0.6 0.9 0.1 2.6-7.5 8.1-13.4 10.9-20.8 0.9-2.5 3.1-13.9-3.1-11.3-0.2 0.1-0.1 0.4 0.2 0.4z"/>
				</g>
				<g id="&lt;Group&gt;">
					<path id="&lt;Path&gt;" class="s15" d="m194.8 80.8c-1.6 2.4-2.5 4.7-2.2 7.6 0 0.3 0.5 0.4 0.5 0.1 0.6-2.5 1-5.2 2.1-7.5 0.1-0.3-0.3-0.5-0.4-0.2z"/>
				</g>
				<g id="&lt;Group&gt;">
					<path id="&lt;Path&gt;" class="s15" d="m240.9 54.6c-3.1 9.4-11.5 15.8-14.9 25.1-0.2 0.4 0.4 0.6 0.7 0.3 2.7-4.7 5.8-8.9 9-13.2 2.4-3.4 6.1-7.8 5.6-12.1 0-0.3-0.3-0.3-0.4-0.1z"/>
				</g>
				<g id="&lt;Group&gt;">
					<path id="&lt;Path&gt;" class="s15" d="m237.9 54.9c0.2 1.8-1.8 4.1-2.7 5.6q-1.4 2.4-2.8 4.8c0 0.1 0.2 0.3 0.3 0.1q2.2-2.7 4.1-5.8c0.9-1.5 2.3-3 1.6-4.9-0.1-0.3-0.6-0.2-0.5 0.2z"/>
				</g>
				<g id="&lt;Group&gt;">
					<path id="&lt;Path&gt;" class="s15" d="m17.1 24.6c7.2 0.3 14.4-2.4 20.5-6.2 0.3-0.2 0.1-0.9-0.4-0.8-6.7 2.6-12.8 6.2-20.1 6.8-0.2 0-0.2 0.2 0 0.2z"/>
				</g>
				<g id="&lt;Group&gt;">
					<path id="&lt;Path&gt;" class="s15" d="m18.1 27c1.6 0.6 3.5 0.7 5.2 0.2 0.2 0 0.2-0.4-0.1-0.4-1.7 0-3.4-0.1-5.1-0.1-0.2-0.1-0.2 0.2 0 0.3z"/>
				</g>
			</g>
			<g id="&lt;Group&gt;" style="opacity: .5;mix-blend-mode: multiply">
				<g id="&lt;Group&gt;">
					<path id="&lt;Path&gt;" class="s16" d="m64.3 91.6c-0.9 0.7-1.5 1.4-1.9 2.4-0.4 1.1-0.2 2.3 0.8 3 0.3 0.2 0.9 0.2 1.2-0.1 1.1-1.3 0.4-3.1 0.7-4.6 0.1-0.5-0.4-1-0.8-0.7z"/>
				</g>
				<g id="&lt;Group&gt;">
					<path id="&lt;Path&gt;" class="s16" d="m66.1 91.5c-0.1 0.1-0.2 0.1-0.3 0.2-0.3 0.2-0.3 0.4-0.4 0.7-0.1 0.5-0.1 1 0.3 1.4 0.4 0.3 0.8 0.2 1.1-0.2 0.2-0.3 0.2-0.7 0.1-1.1 0-0.2 0-0.4-0.1-0.6q-0.1-0.1-0.1-0.2-0.2 0-0.1-0.1c-0.1-0.2-0.3-0.3-0.5-0.1z"/>
				</g>
				<g id="&lt;Group&gt;">
					<path id="&lt;Path&gt;" class="s16" d="m41.7 31.3c0.1 0.9 0.1 1.8-0.2 2.7-0.5 1.1-0.9 1.9-0.9 3.2 0.1 0.7 0.9 1.1 1.5 0.5 1.1-1.1 2.1-2.4 2.3-4 0.2-1.3-0.2-2.8-1.6-3.2-0.5-0.1-1.1 0.3-1.1 0.8z"/>
				</g>
				<g id="&lt;Group&gt;">
					<path id="&lt;Path&gt;" class="s16" d="m39.4 32c-0.3 0.3-0.5 0.6-0.7 0.9q-0.2 0.6-0.1 1.1c0 1 1.4 1.2 1.6 0.3 0.2-0.6 0.3-1.1 0.4-1.6 0.2-0.7-0.7-1.3-1.2-0.7z"/>
				</g>
				<g id="&lt;Group&gt;">
					<path id="&lt;Path&gt;" class="s16" d="m37.9 53.1c-1.2 0.6-2.6 2.1-2.3 3.5 0.2 0.8 1.2 1 1.7 0.5 0.5-0.5 0.5-1.1 0.8-1.6 0.2-0.5 0.4-1.1 0.6-1.6 0.3-0.5-0.2-1.1-0.8-0.8z"/>
				</g>
				<g id="&lt;Group&gt;">
					<path id="&lt;Path&gt;" class="s16" d="m40.2 51.7c-0.6 1-1.5 2-1.3 3.2 0.1 0.7 0.9 0.8 1.4 0.6 1.2-0.6 1.3-2.3 1.2-3.5-0.1-0.6-0.9-0.9-1.3-0.3z"/>
				</g>
				<g id="&lt;Group&gt;">
					<path id="&lt;Path&gt;" class="s16" d="m126.9 90.9c-0.1 0.6-0.4 1.2-0.4 1.9-0.1 0.6 0 1.4 0.2 2 0.3 1.1 1 2.5 2.2 2.7 0.4 0.1 0.8 0 0.9-0.4 0.3-2.1-1.7-4-1.7-6.1-0.1-0.6-1-0.8-1.2-0.1z"/>
				</g>
				<g id="&lt;Group&gt;">
					<path id="&lt;Path&gt;" class="s16" d="m128.8 90.4c-0.1 0.4-0.2 0.8-0.1 1.2 0.1 0.4 0.4 0.8 0.6 1.1 0.3 0.2 0.6 0.2 0.9 0.1 0.3-0.2 0.4-0.5 0.3-0.9 0-0.2 0-0.4-0.1-0.7 0-0.2-0.1-0.4-0.1-0.6-0.1-0.4-0.3-0.7-0.7-0.7-0.3-0.1-0.7 0.1-0.8 0.5z"/>
				</g>
				<g id="&lt;Group&gt;">
					<path id="&lt;Path&gt;" class="s16" d="m88.1 98.6c1.6-0.8 2.6-2.3 3.2-4 0.3-0.8-0.9-1.5-1.5-0.8-1 1.2-1.9 2.5-2.5 4-0.3 0.5 0.2 1.1 0.8 0.8z"/>
				</g>
				<g id="&lt;Group&gt;">
					<path id="&lt;Path&gt;" class="s16" d="m85.4 97.6c0.8-0.5 2-1.5 1.8-2.6 0-0.3-0.3-0.5-0.5-0.2-0.4 0.3-0.6 0.7-0.8 1.1q-0.3 0.7-0.9 1.2c-0.2 0.3 0.1 0.7 0.4 0.5z"/>
				</g>
				<g id="&lt;Group&gt;">
					<path id="&lt;Path&gt;" class="s16" d="m178.4 58.2c-0.4 1.3-0.7 2.5-1.4 3.7-0.6 1.1-1.5 2.3-1.5 3.6 0.1 0.7 0.8 1.2 1.5 0.8 1.3-0.8 2.1-3 2.6-4.5 0.5-1.4 0.6-3-0.7-3.8-0.2-0.1-0.4 0-0.5 0.2z"/>
				</g>
				<g id="&lt;Group&gt;">
					<path id="&lt;Path&gt;" class="s16" d="m175.8 58.3c-0.7 0.1-1.1 0.9-1.4 1.5-0.2 0.5-0.2 1.2 0.1 1.7 0.2 0.3 0.5 0.4 0.8 0.3 1.2-0.1 2.1-2 1.5-3.1-0.2-0.3-0.6-0.5-1-0.4z"/>
				</g>
				<g id="&lt;Group&gt;">
					<path id="&lt;Path&gt;" class="s16" d="m161.7 92.4c-0.9 0.7-2.1 1.6-1.5 2.9 0.1 0.2 0.4 0.3 0.6 0.3 1.4 0 1.7-1.5 1.9-2.6 0.2-0.6-0.6-1-1-0.6z"/>
				</g>
				<g id="&lt;Group&gt;">
					<path id="&lt;Path&gt;" class="s16" d="m160.3 91.5c1 0 1-1.4 0-1.4-0.9 0-0.9 1.4 0 1.4z"/>
				</g>
				<g id="&lt;Group&gt;">
					<path id="&lt;Path&gt;" class="s16" d="m210.5 94.6c-1 0.7-1.8 1.5-2.4 2.6-0.5 1.1-0.6 2.5 0.6 3.2 0.8 0.5 1.8-0.1 1.9-1.1 0-1.1 0.7-2.4 1.1-3.4 0.3-0.8-0.4-1.9-1.2-1.3z"/>
				</g>
				<g id="&lt;Group&gt;">
					<path id="&lt;Path&gt;" class="s16" d="m212.9 98.3q0-0.2 0.1-0.4c0 0.1 0 0 0.1 0q0.1-0.1 0.1-0.1c0.3-0.3 0.5-0.7 0.5-1.1 0-0.5-0.4-0.8-0.8-0.8-0.6 0-1.2 0.5-1.3 1.1q0 0.6 0.2 1.1c0 0.2 0.2 0.4 0.5 0.4 0.2 0.1 0.5 0 0.6-0.2z"/>
				</g>
				<g id="&lt;Group&gt;">
					<path id="&lt;Path&gt;" class="s16" d="m213 94.4c0.6 0 0.6-0.9 0-0.9-0.6 0-0.6 0.9 0 0.9z"/>
				</g>
				<g id="&lt;Group&gt;">
					<path id="&lt;Path&gt;" class="s16" d="m212 91.9c0.8 0 0.8-1.2 0-1.2-0.8 0-0.8 1.2 0 1.2z"/>
				</g>
				<g id="&lt;Group&gt;">
					<path id="&lt;Path&gt;" class="s16" d="m245.3 91.7c-0.8 1.1-1.4 2.2-1.3 3.6 0.1 1.1 0.4 2.3 1.5 2.6 0.3 0.1 0.6-0.1 0.7-0.4 0.3-0.8 0-1.7 0-2.5-0.1-1.1-0.1-2.1-0.2-3.1-0.1-0.4-0.5-0.6-0.7-0.2z"/>
				</g>
				<g id="&lt;Group&gt;">
					<path id="&lt;Path&gt;" class="s16" d="m243.5 91c-0.8 0.3-1.2 1.5-1 2.2 0.1 0.5 0.6 0.7 1 0.4 0.6-0.3 1.2-1.3 1.1-2-0.1-0.6-0.6-0.9-1.1-0.6z"/>
				</g>
				<g id="&lt;Group&gt;">
					<path id="&lt;Path&gt;" class="s16" d="m242.6 95.8q0.2 0 0.3 0 0.2-0.1 0.3-0.2 0.1-0.1 0.1-0.2 0.1-0.2 0.1-0.4 0-0.1 0-0.2-0.1-0.2-0.2-0.3-0.1-0.1-0.2-0.1-0.2-0.1-0.4-0.1-0.2 0-0.3 0-0.2 0.1-0.3 0.2-0.1 0.1-0.1 0.2-0.1 0.2-0.1 0.3 0 0.2 0 0.3 0.1 0.2 0.2 0.3 0.1 0.1 0.2 0.1 0.2 0.1 0.4 0.1z"/>
				</g>
				<g id="&lt;Group&gt;">
					<path id="&lt;Path&gt;" class="s16" d="m262 80.2c-1.1 0.3-2.2 0.6-3.3 0.8-1.1 0.2-2.3 0-3.3 0.4-0.3 0.1-0.3 0.4-0.1 0.5 1 0.8 2.7 0.5 3.8 0.4 1.3-0.1 2.3-0.7 3.2-1.5 0.3-0.2 0-0.6-0.3-0.6z"/>
				</g>
			</g>
		</g>
	</g>
</svg>