<svg width="1000.3956298828125px" height="1210.48572082519532px" xmlns="http://www.w3.org/2000/svg" viewBox="63.80218505859375 14.257139587402342 372.3956298828125 121.48572082519532" style="background:#596886" preserveAspectRatio="xMidYMid">
  <defs>
    <filter id="editing-hover" x="-100%" y="-100%" width="300%" height="300%">
      <feFlood flood-color="#052b4a" result="flood">
      </feFlood>
      <feComposite operator="in" in2="SourceAlpha" in="flood" result="shadow">
      </feComposite>
      <feOffset dx="-4" dy="-4" in="SourceGraphic" result="offset-1">
      </feOffset>
      <feOffset dx="4" dy="4" in="shadow" result="offset-2">
      </feOffset>
      <feMerge>
        <feMergeNode in="offset-2">
        </feMergeNode>
        <feMergeNode in="offset-1">
        </feMergeNode>
      </feMerge>
    </filter>
  </defs>
  <g filter="url(#editing-hover)">
    <g transform="translate(120.16473460197449, 98.67999267578125)">
      <path d="M2.11-6.40L2.11-6.40L2.11-6.40Q2.11-8.13 3.01-12.48L3.01-12.48L6.40-29.76L2.62-29.76L2.88-31.68L2.88-31.68Q10.56-33.98 17.98-39.62L17.98-39.62L21.06-39.62L19.52-32.64L24.51-32.64L23.94-29.76L19.01-29.76L15.74-12.48L15.74-12.48Q14.91-8.51 14.91-7.17L14.91-7.17L14.91-7.17Q14.91-4.10 17.60-3.46L17.60-3.46L17.60-3.46Q16.96-1.28 14.66 0L14.66 0L14.66 0Q12.35 1.28 9.09 1.28L9.09 1.28L9.09 1.28Q5.82 1.28 3.97-0.77L3.97-0.77L3.97-0.77Q2.11-2.82 2.11-6.40ZM49.86-10.82L49.86-10.82L49.86-10.82Q51.46-9.73 51.46-7.33L51.46-7.33L51.46-7.33Q51.46-4.93 50.24-3.39L50.24-3.39L50.24-3.39Q49.02-1.86 47.04-0.83L47.04-0.83L47.04-0.83Q42.94 1.28 38.53 1.28L38.53 1.28L38.53 1.28Q34.11 1.28 31.52 0.32L31.52 0.32L31.52 0.32Q28.93-0.64 27.20-2.43L27.20-2.43L27.20-2.43Q23.81-5.82 23.81-12.03L23.81-12.03L23.81-12.03Q23.81-21.70 29.06-27.58L29.06-27.58L29.06-27.58Q34.69-33.92 44.48-33.92L44.48-33.92L44.48-33.92Q50.56-33.92 53.57-31.36L53.57-31.36L53.57-31.36Q55.81-29.44 55.81-26.30L55.81-26.30L55.81-26.30Q55.81-15.04 36.35-15.04L36.35-15.04L36.35-15.04Q36.10-13.38 36.10-11.97L36.10-11.97L36.10-11.97Q36.10-9.02 37.41-7.90L37.41-7.90L37.41-7.90Q38.72-6.78 41.15-6.78L41.15-6.78L41.15-6.78Q43.58-6.78 46.18-7.90L46.18-7.90L46.18-7.90Q48.77-9.02 49.86-10.82ZM36.80-17.79L36.80-17.79L36.80-17.79Q41.34-17.79 43.97-20.61L43.97-20.61L43.97-20.61Q46.59-23.30 46.59-27.58L46.59-27.58L46.59-27.58Q46.59-29.06 46.05-29.86L46.05-29.86L46.05-29.86Q45.50-30.66 44.42-30.66L44.42-30.66L44.42-30.66Q43.33-30.66 42.40-30.24L42.40-30.24L42.40-30.24Q41.47-29.82 40.51-28.42L40.51-28.42L40.51-28.42Q38.14-25.22 36.80-17.79ZM66.50 0.19L66.50 0.19L66.50 0.19Q64.45 1.28 61.63 1.28L61.63 1.28L61.63 1.28Q58.82 1.28 57.28-0.16L57.28-0.16L57.28-0.16Q55.74-1.60 55.74-4.38L55.74-4.38L55.74-4.38Q55.74-7.17 57.70-9.89L57.70-9.89L57.70-9.89Q59.65-12.61 62.56-14.14L62.56-14.14L62.56-14.14Q65.47-15.68 67.52-16.58L67.52-16.58L63.49-25.86L63.49-25.86Q62.40-28.22 60.35-28.22L60.35-28.22L59.84-28.16L59.65-28.16L59.65-28.16Q60.03-30.40 62.66-32.13L62.66-32.13L62.66-32.13Q65.28-33.92 68.29-33.92L68.29-33.92L68.29-33.92Q73.15-33.92 75.39-29.06L75.39-29.06L75.90-28.03L78.66-21.25L78.66-21.25Q80.38-22.02 81.12-23.46L81.12-23.46L81.12-23.46Q81.86-24.90 81.86-27.74L81.86-27.74L81.86-27.74Q81.86-30.59 80.32-32.38L80.32-32.38L80.32-32.38Q82.75-33.92 85.95-33.92L85.95-33.92L85.95-33.92Q91.71-33.92 91.71-28.35L91.71-28.35L91.71-28.35Q91.71-22.27 84.10-18.75L84.10-18.75L80.26-16.96L83.71-8.06L83.71-8.06Q84.74-5.38 86.59-4.22L86.59-4.22L86.59-4.22Q87.36-3.71 88.26-3.65L88.26-3.65L88.26-3.65Q86.34-0.51 82.18 0.90L82.18 0.90L82.18 0.90Q80.90 1.28 79.17 1.28L79.17 1.28L79.17 1.28Q77.44 1.28 75.46 0.10L75.46 0.10L75.46 0.10Q73.47-1.09 72.77-2.94L72.77-2.94L69.25-12.10L69.25-12.10Q65.66-10.50 65.66-4.67L65.66-4.67L65.66-4.67Q65.66-1.98 66.50 0.19ZM94.46-6.40L94.46-6.40L94.46-6.40Q94.46-8.13 95.36-12.48L95.36-12.48L98.75-29.76L94.98-29.76L95.23-31.68L95.23-31.68Q102.91-33.98 110.34-39.62L110.34-39.62L113.41-39.62L111.87-32.64L116.86-32.64L116.29-29.76L111.36-29.76L108.10-12.48L108.10-12.48Q107.26-8.51 107.26-7.17L107.26-7.17L107.26-7.17Q107.26-4.10 109.95-3.46L109.95-3.46L109.95-3.46Q109.31-1.28 107.01 0L107.01 0L107.01 0Q104.70 1.28 101.44 1.28L101.44 1.28L101.44 1.28Q98.18 1.28 96.32-0.77L96.32-0.77L96.32-0.77Q94.46-2.82 94.46-6.40ZM161.15-26.62L161.15-26.62L161.15-26.62Q161.15-23.94 158.91-22.27L158.91-22.27L158.91-22.27Q156.67-20.61 153.02-20.61L153.02-20.61L153.02-20.61Q151.49-20.61 150.59-21.06L150.59-21.06L150.59-21.06Q151.30-22.72 151.52-24.80L151.52-24.80L151.52-24.80Q151.74-26.88 151.74-27.46L151.74-27.46L151.74-27.46Q151.74-30.14 149.89-30.14L149.89-30.14L149.89-30.14Q148.61-30.14 147.17-28.54L147.17-28.54L147.17-28.54Q145.73-26.94 144.51-24.45L144.51-24.45L144.51-24.45Q141.82-18.69 141.82-12.86L141.82-12.86L141.82-12.86Q141.82-9.66 143.04-8.22L143.04-8.22L143.04-8.22Q144.26-6.78 146.94-6.78L146.94-6.78L146.94-6.78Q150.66-6.78 153.60-9.86L153.60-9.86L153.60-9.86Q154.43-10.82 154.88-11.90L154.88-11.90L154.88-11.90Q157.31-10.62 157.31-7.10L157.31-7.10L157.31-7.10Q157.31-3.52 153.34-1.15L153.34-1.15L153.34-1.15Q149.25 1.28 142.72 1.28L142.72 1.28L142.72 1.28Q129.73 1.28 129.73-12.48L129.73-12.48L129.73-12.48Q129.73-22.53 135.42-28.29L135.42-28.29L135.42-28.29Q140.93-33.92 151.04-33.92L151.04-33.92L151.04-33.92Q161.15-33.92 161.15-26.62ZM176.83 1.28L176.83 1.28L176.83 1.28Q162.75 1.28 162.75-11.97L162.75-11.97L162.75-11.97Q162.75-21.38 167.94-27.46L167.94-27.46L167.94-27.46Q173.44-33.92 182.98-33.92L182.98-33.92L182.98-33.92Q189.89-33.92 193.41-30.72L193.41-30.72L193.41-30.72Q196.93-27.52 196.93-20.80L196.93-20.80L196.93-20.80Q196.93-10.56 191.42-4.61L191.42-4.61L191.42-4.61Q186.05 1.28 176.83 1.28ZM178.50-26.56L178.50-26.56L178.50-26.56Q177.73-24.83 177.12-22.24L177.12-22.24L177.12-22.24Q176.51-19.65 175.74-15.55L175.74-15.55L175.74-15.55Q174.98-11.46 174.98-6.40L174.98-6.40L174.98-6.40Q174.98-4.74 175.52-3.65L175.52-3.65L175.52-3.65Q176.06-2.56 177.54-2.56L177.54-2.56L177.54-2.56Q179.01-2.56 179.94-3.26L179.94-3.26L179.94-3.26Q180.86-3.97 181.57-5.63L181.57-5.63L181.57-5.63Q182.85-8.58 183.87-14.05L183.87-14.05L183.87-14.05Q184.90-19.52 184.99-21.89L184.99-21.89L184.99-21.89Q185.09-24.26 185.09-26.02L185.09-26.02L185.09-26.02Q185.09-27.78 184.58-28.93L184.58-28.93L184.58-28.93Q184.06-30.08 182.62-30.08L182.62-30.08L182.62-30.08Q181.18-30.08 180.22-29.18L180.22-29.18L180.22-29.18Q179.26-28.29 178.50-26.56ZM214.66 1.28L214.66 1.28L214.66 1.28Q200.58 1.28 200.58-11.97L200.58-11.97L200.58-11.97Q200.58-21.38 205.76-27.46L205.76-27.46L205.76-27.46Q211.26-33.92 220.80-33.92L220.80-33.92L220.80-33.92Q227.71-33.92 231.23-30.72L231.23-30.72L231.23-30.72Q234.75-27.52 234.75-20.80L234.75-20.80L234.75-20.80Q234.75-10.56 229.25-4.61L229.25-4.61L229.25-4.61Q223.87 1.28 214.66 1.28ZM216.32-26.56L216.32-26.56L216.32-26.56Q215.55-24.83 214.94-22.24L214.94-22.24L214.94-22.24Q214.34-19.65 213.57-15.55L213.57-15.55L213.57-15.55Q212.80-11.46 212.80-6.40L212.80-6.40L212.80-6.40Q212.80-4.74 213.34-3.65L213.34-3.65L213.34-3.65Q213.89-2.56 215.36-2.56L215.36-2.56L215.36-2.56Q216.83-2.56 217.76-3.26L217.76-3.26L217.76-3.26Q218.69-3.97 219.39-5.63L219.39-5.63L219.39-5.63Q220.67-8.58 221.70-14.05L221.70-14.05L221.70-14.05Q222.72-19.52 222.82-21.89L222.82-21.89L222.82-21.89Q222.91-24.26 222.91-26.02L222.91-26.02L222.91-26.02Q222.91-27.78 222.40-28.93L222.40-28.93L222.40-28.93Q221.89-30.08 220.45-30.08L220.45-30.08L220.45-30.08Q219.01-30.08 218.05-29.18L218.05-29.18L218.05-29.18Q217.09-28.29 216.32-26.56ZM253.82-3.52L253.82-3.52L253.82-3.52Q251.84 1.28 245.50 1.28L245.50 1.28L245.50 1.28Q242.30 1.28 240.26-0.96L240.26-0.96L240.26-0.96Q238.59-2.82 238.59-4.93L238.59-4.93L238.59-4.93Q238.59-9.73 240.83-20.22L240.83-20.22L245.50-44.80L258.50-46.08L252.29-13.70L252.29-13.70Q251.20-8.96 251.20-7.30L251.20-7.30L251.20-7.30Q251.20-3.65 253.82-3.52Z" fill="#ffd5af"></path>

    </g>
  </g>
</svg>
