<svg width="1080" height="1080" viewBox="0 0 810 809.999993" xmlns="http://www.w3.org/2000/svg">
    <defs>
        <clipPath id="7604a88896">
            <path fill="#000000" stroke="none" d="M 21.75 24.457031 L 788.25 24.457031 L 788.25 790.957031 L 21.75 790.957031 Z M 21.75 24.457031"/>
        </clipPath>
        <clipPath id="8d9aa164fd">
            <path fill="#000000" stroke="none" d="M 446 573 L 810 573 L 810 810 L 446 810 Z M 446 573"/>
        </clipPath>
        <clipPath id="4a5e5f5129">
            <path fill="#000000" stroke="none" d="M 977 737.140625 L 631.332031 1052.636719 L 415.945312 816.652344 L 761.613281 501.15625 Z M 977 737.140625"/>
        </clipPath>
        <clipPath id="94e6933b91">
            <path fill="#000000" stroke="none" d="M 977 737.140625 L 631.332031 1052.636719 L 415.945312 816.652344 L 761.613281 501.15625 Z M 977 737.140625"/>
        </clipPath>
        <clipPath id="525fdae6b2">
            <path fill="#000000" stroke="none" d="M 0 0 L 430 0 L 430 301 L 0 301 Z M 0 0"/>
        </clipPath>
        <clipPath id="21dbe80016">
            <path fill="#000000" stroke="none" d="M -217.546875 92.765625 L 219.257812 -268.746094 L 465.527344 28.8125 L 28.722656 390.324219 Z M -217.546875 92.765625"/>
        </clipPath>
        <clipPath id="d292085ede">
            <path fill="#000000" stroke="none" d="M -217.546875 92.765625 L 219.257812 -268.746094 L 465.527344 28.8125 L 28.722656 390.324219 Z M -217.546875 92.765625"/>
        </clipPath>
    </defs>
    <path id="object_2" fill="#ffffff" stroke="none" d="M -81 -80.999999 L 891 -80.999999 L 891 890.999993 L -81 890.999993 Z"/>
    <path id="object_3" fill="#ffffff" stroke="none" d="M -81 -80.999999 L 891 -80.999999 L 891 890.999993 L -81 890.999993 Z"/>
    <g id="object_4" clip-path="url(#7604a88896)">
        <path id="object_5" fill="#faf3ef" stroke="none" d="M 21.75 24.457031 L 788.25 24.457031 L 788.25 790.957031 L 21.75 790.957031 Z M 21.75 24.457031"/>
    </g>
    <g id="object_6" clip-path="url(#8d9aa164fd)">
        <g id="object_7" clip-path="url(#4a5e5f5129)">
            <g id="object_8" clip-path="url(#94e6933b91)">
                <path id="object_9" fill="#bd8334" stroke="none" d="M 712.75 660.578125 C 727.179688 646.808594 740.414062 631.730469 752.585938 615.820312 C 759.914062 606.433594 766.945312 596.71875 776.527344 589.46875 C 782.539062 584.882812 788.851562 580.625 795.445312 577.003906 C 811.6875 568.179688 829.6875 575.742188 838.835938 588.394531 C 850.042969 603.960938 853.488281 621.210938 851.695312 639.945312 C 850.917969 646.65625 850.140625 653.363281 848.589844 659.878906 C 843.703125 684.433594 840.222656 709.207031 838.304688 734.054688 C 836.550781 751.851562 834.648438 769.488281 829.941406 786.679688 C 826.019531 800.457031 820.101562 813.359375 814.179688 826.261719 C 805.753906 845.949219 796.417969 864.972656 786.15625 883.632812 C 776.636719 899.824219 765.742188 915.164062 753.640625 929.511719 C 743.679688 941.601562 733.730469 953.378906 723.621094 965.308594 C 715.148438 975.742188 705.179688 984.539062 694.019531 992.027344 C 691.117188 993.777344 687.480469 994.394531 684.726562 996.308594 C 673.371094 1004.570312 661.300781 1011.390625 649.375 1018.375 C 648.410156 1018.957031 647.128906 1019.527344 646.160156 1020.109375 C 632.851562 1026.558594 616.953125 1020.972656 610.652344 1007.824219 C 610.519531 1007.347656 610.21875 1007.019531 610.082031 1006.542969 C 607.0625 1000.605469 606.585938 993.839844 608.453125 987.339844 C 610.65625 980.226562 613.640625 973.304688 616.472656 966.21875 C 619.660156 958.210938 623.160156 950.214844 626.351562 942.207031 C 627.269531 939.269531 628.035156 936.167969 628.328125 933.203125 C 629.425781 922.902344 625.402344 914.875 617.863281 908.257812 C 607.023438 898.355469 593.03125 892.230469 578.335938 891.246094 C 562.863281 890.066406 547.363281 889.515625 531.894531 888.339844 C 519.699219 887.472656 507.523438 886.289062 495.386719 884.164062 C 483.089844 882.191406 471.601562 876.179688 462.925781 867.003906 C 450.023438 854.183594 444.429688 835.890625 447.761719 817.851562 C 450.339844 802.601562 457.539062 789.128906 466.726562 776.847656 C 481.234375 757.90625 500.761719 745.78125 522.203125 736.410156 C 537.867188 729.910156 554.074219 725.320312 570.667969 722.46875 C 595.652344 717.964844 619.527344 710.269531 643.550781 702.742188 C 668.691406 694.792969 690.347656 680.726562 709.667969 662.792969 Z M 479.800781 765.210938 C 464.910156 778.804688 453.191406 798.5 449.679688 817 C 446.171875 835.5 451.226562 851.882812 463.769531 865.628906 C 470.507812 872.679688 479.054688 877.773438 488.480469 880.871094 C 498.992188 884.171875 509.890625 885.925781 521.007812 886.277344 C 538.835938 887.402344 556.675781 888.21875 574.652344 889.507812 C 591.0625 890.726562 605.898438 895.480469 618.394531 906.871094 C 628.636719 916.121094 632.382812 926.800781 628.804688 939.964844 C 628.019531 943.378906 626.777344 946.617188 625.53125 949.851562 C 622.355469 957.550781 618.554688 965.21875 615.382812 972.914062 C 612.921875 978.761719 610.921875 984.785156 609.546875 990.839844 C 607.566406 999.84375 610.503906 1007.660156 616.953125 1014.070312 C 625.195312 1022.445312 635.304688 1024.320312 645.59375 1018.828125 C 653.945312 1014.503906 662.160156 1009.707031 670.226562 1004.742188 C 676.523438 1000.792969 682.523438 996.519531 688.667969 992.410156 C 690.765625 991.09375 693.433594 991.058594 695.382812 989.582031 C 705.429688 982.511719 714.59375 974.148438 722.398438 964.625 C 732.507812 952.695312 742.621094 940.769531 752.417969 928.828125 C 763.6875 915.542969 773.910156 901.109375 783.0625 886.160156 C 794.320312 866.285156 804.664062 845.746094 813.3125 824.65625 C 818.578125 812.347656 824.007812 799.894531 828.035156 787.21875 C 833.472656 771.15625 834.855469 754.597656 836.554688 738.050781 C 838.90625 714.007812 841.09375 690.117188 845.933594 666.5 C 847.75 657.644531 849.253906 648.773438 850.292969 639.726562 C 852.074219 621.300781 848.464844 604.199219 837.390625 589.113281 C 828.394531 576.625 812.46875 571.664062 798.886719 577.160156 C 795.375 578.570312 792.15625 580.304688 788.929688 582.351562 C 775.695312 590.53125 765.300781 601.816406 755.953125 614.25 C 743.09375 631.382812 728.878906 647.359375 713.617188 662.1875 C 694.605469 680.136719 673.550781 694.859375 648.394531 703.121094 C 629.925781 709.179688 611.011719 714.746094 592.273438 719.847656 C 577.824219 723.738281 562.984375 725.882812 548.390625 729.605469 C 522.859375 735.8125 499.410156 747.914062 479.800781 765.210938 Z M 479.800781 765.210938"/>
            </g>
        </g>
    </g>
    <g id="object_10" clip-path="url(#525fdae6b2)">
        <g id="object_11" clip-path="url(#21dbe80016)">
            <g id="object_12" clip-path="url(#d292085ede)">
                <path id="object_13" fill="#bd8334" stroke="none" d="M 97.5625 200.859375 C 79.304688 216.667969 62.414062 234.128906 46.757812 252.65625 C 37.34375 263.582031 28.273438 274.921875 16.257812 283.125 C 8.71875 288.320312 0.835938 293.101562 -7.351562 297.089844 C -27.511719 306.8125 -48.839844 296.609375 -59.160156 280.773438 C -71.804688 261.289062 -74.960938 240.222656 -71.691406 217.667969 C -70.359375 209.601562 -69.027344 201.535156 -66.765625 193.746094 C -59.421875 164.335938 -53.753906 134.574219 -49.980469 104.636719 C -46.816406 83.214844 -43.480469 62 -36.78125 41.480469 C -31.230469 25.046875 -23.3125 9.789062 -15.398438 -5.46875 C -4.050781 -28.785156 8.355469 -51.242188 21.859375 -73.214844 C 34.324219 -92.234375 48.398438 -110.148438 63.875 -126.789062 C 76.632812 -140.832031 89.351562 -154.492188 102.277344 -168.324219 C 113.140625 -180.445312 125.710938 -190.503906 139.648438 -198.90625 C 143.261719 -200.851562 147.695312 -201.386719 151.136719 -203.539062 C 165.355469 -212.867188 180.355469 -220.40625 195.183594 -228.152344 C 196.390625 -228.800781 197.972656 -229.414062 199.175781 -230.0625 C 215.652344 -237.082031 234.550781 -229.394531 241.398438 -213.125 C 241.535156 -212.539062 241.878906 -212.128906 242.011719 -211.542969 C 245.320312 -204.179688 245.5 -195.972656 242.863281 -188.21875 C 239.777344 -179.746094 235.765625 -171.550781 231.921875 -163.148438 C 227.597656 -153.648438 222.894531 -144.183594 218.570312 -134.683594 C 217.285156 -131.183594 216.175781 -127.476562 215.648438 -123.90625 C 213.714844 -111.515625 218.113281 -101.574219 226.84375 -93.128906 C 239.371094 -80.515625 255.933594 -72.285156 273.652344 -70.234375 C 292.292969 -67.902344 311.007812 -66.328125 329.648438 -64 C 344.34375 -62.230469 359.003906 -60.085938 373.554688 -56.808594 C 388.316406 -53.703125 401.855469 -45.757812 411.8125 -34.148438 C 426.664062 -17.886719 432.359375 4.5625 427.269531 26.183594 C 423.257812 44.476562 413.757812 60.347656 401.929688 74.667969 C 383.273438 96.722656 358.945312 110.242188 332.460938 120.320312 C 313.136719 127.261719 293.265625 131.867188 273.027344 134.339844 C 242.546875 138.324219 213.222656 146.226562 183.726562 153.925781 C 152.855469 162.0625 125.839844 177.804688 101.417969 198.367188 Z M 385.433594 87.972656 C 404.238281 72.40625 419.566406 49.273438 424.898438 27.105469 C 430.226562 4.933594 425.074219 -15.175781 410.707031 -32.539062 C 402.976562 -41.460938 392.933594 -48.121094 381.714844 -52.417969 C 369.195312 -57.03125 356.117188 -59.789062 342.691406 -60.863281 C 321.199219 -63.273438 299.667969 -65.300781 278.003906 -67.917969 C 258.230469 -70.355469 240.5625 -76.972656 226.117188 -91.484375 C 214.273438 -103.269531 210.367188 -116.402344 215.46875 -132.117188 C 216.617188 -136.203125 218.3125 -140.042969 220.007812 -143.882812 C 224.296875 -153.003906 229.34375 -162.054688 233.632812 -171.179688 C 236.953125 -178.105469 239.726562 -185.273438 241.742188 -192.515625 C 244.664062 -203.289062 241.570312 -212.917969 234.144531 -221.050781 C 224.667969 -231.660156 212.550781 -234.519531 199.789062 -228.480469 C 189.433594 -223.742188 179.214844 -218.417969 169.167969 -212.886719 C 161.320312 -208.484375 153.816406 -203.664062 146.140625 -199.054688 C 143.527344 -197.585938 140.296875 -197.699219 137.851562 -196.027344 C 125.289062 -188.066406 113.714844 -178.488281 103.71875 -167.425781 C 90.792969 -153.59375 77.863281 -139.761719 65.316406 -125.894531 C 50.90625 -110.484375 37.695312 -93.632812 25.75 -76.085938 C 10.96875 -52.710938 -2.746094 -28.472656 -14.441406 -3.472656 C -21.53125 11.101562 -28.828125 25.84375 -34.445312 40.9375 C -41.960938 60.046875 -44.605469 79.992188 -47.628906 99.902344 C -51.882812 128.84375 -55.929688 157.613281 -63.167969 185.890625 C -65.882812 196.496094 -68.21875 207.136719 -70.007812 218.019531 C -73.242188 240.195312 -69.878906 261.089844 -57.371094 279.988281 C -47.222656 295.617188 -28.253906 302.550781 -11.507812 296.699219 C -7.171875 295.203125 -3.183594 293.292969 0.84375 291.003906 C 17.328125 281.890625 30.5625 268.847656 42.597656 254.359375 C 59.152344 234.390625 77.28125 215.90625 96.605469 198.867188 C 120.652344 178.269531 146.984375 161.699219 177.890625 153.183594 C 200.582031 146.941406 223.785156 141.316406 246.746094 136.242188 C 264.449219 132.386719 282.519531 130.660156 300.394531 127.011719 C 331.636719 121.003906 360.703125 107.742188 385.433594 87.972656 Z M 385.433594 87.972656"/>
            </g>
        </g>
    </g>
    <g id="object_14">
        <g id="object_15" transform="matrix(1 0 0 1 178.934481 432.15534)">
            <g id="object_16">
                <path id="object_17" fill="#000000" stroke="none" d="M 57.453125 -52.015625 L 57.453125 -17 C 57.453125 -14.925781 57.46875 -13.054688 57.5 -11.390625 C 57.53125 -9.722656 57.601562 -8.007812 57.71875 -6.25 C 57.832031 -4.5 57.972656 -2.414062 58.140625 0 L 48.390625 0 L 7.9375 -65.640625 L 7.9375 -17 C 7.9375 -14.925781 7.945312 -13.054688 7.96875 -11.390625 C 8 -9.722656 8.070312 -8.007812 8.1875 -6.25 C 8.3125 -4.5 8.457031 -2.414062 8.625 0 L 6.03125 0 C 6.207031 -2.414062 6.351562 -4.5 6.46875 -6.25 C 6.582031 -8.007812 6.65625 -9.722656 6.6875 -11.390625 C 6.71875 -13.054688 6.734375 -14.925781 6.734375 -17 L 6.734375 -52.015625 C 6.734375 -54.140625 6.71875 -56.019531 6.6875 -57.65625 C 6.65625 -59.300781 6.582031 -61 6.46875 -62.75 C 6.351562 -64.507812 6.207031 -66.597656 6.03125 -69.015625 L 15.78125 -69.015625 L 56.25 -3.359375 L 56.25 -52.015625 C 56.25 -54.140625 56.234375 -56.019531 56.203125 -57.65625 C 56.171875 -59.300781 56.113281 -61 56.03125 -62.75 C 55.945312 -64.507812 55.789062 -66.597656 55.5625 -69.015625 L 58.140625 -69.015625 C 57.972656 -66.597656 57.832031 -64.507812 57.71875 -62.75 C 57.601562 -61 57.53125 -59.300781 57.5 -57.65625 C 57.46875 -56.019531 57.453125 -54.140625 57.453125 -52.015625 Z M 57.453125 -52.015625"/>
            </g>
        </g>
    </g>
    <g id="object_18">
        <g id="object_19" transform="matrix(1 0 0 1 243.111469 432.15534)">
            <g id="object_20">
                <path id="object_21" fill="#000000" stroke="none" d="M 6.03125 -69.015625 L 46.75 -69.015625 L 42.875 -64.1875 C 40.457031 -65.15625 37.96875 -65.882812 35.40625 -66.375 C 32.851562 -66.863281 30.507812 -67.191406 28.375 -67.359375 C 26.25 -67.535156 24.523438 -67.625 23.203125 -67.625 L 15.359375 -67.625 L 15.359375 -37.265625 L 20.875 -37.265625 C 23.175781 -37.265625 25.617188 -37.304688 28.203125 -37.390625 C 30.796875 -37.484375 34.101562 -37.726562 38.125 -38.125 L 38.125 -35.03125 C 34.101562 -35.488281 30.796875 -35.742188 28.203125 -35.796875 C 25.617188 -35.859375 23.175781 -35.890625 20.875 -35.890625 L 15.359375 -35.890625 L 15.359375 -1.375 L 25.015625 -1.375 C 27.890625 -1.375 30.535156 -1.445312 32.953125 -1.59375 C 35.367188 -1.738281 37.851562 -2.054688 40.40625 -2.546875 C 42.96875 -3.035156 45.859375 -3.738281 49.078125 -4.65625 L 46.578125 0 L 6.03125 0 C 6.269531 -2.414062 6.445312 -4.5 6.5625 -6.25 C 6.675781 -8.007812 6.742188 -9.722656 6.765625 -11.390625 C 6.796875 -13.054688 6.8125 -14.925781 6.8125 -17 L 6.8125 -52.015625 C 6.8125 -54.140625 6.796875 -56.019531 6.765625 -57.65625 C 6.742188 -59.300781 6.675781 -61 6.5625 -62.75 C 6.445312 -64.507812 6.269531 -66.597656 6.03125 -69.015625 Z M 6.03125 -69.015625"/>
            </g>
        </g>
    </g>
    <g id="object_22">
        <g id="object_23" transform="matrix(1 0 0 1 294.780857 432.15534)">
            <g id="object_24">
                <path id="object_25" fill="#000000" stroke="none" d="M 78.59375 -60.296875 L 62.890625 -4.65625 C 62.660156 -3.738281 62.546875 -2.976562 62.546875 -2.375 C 62.546875 -1.769531 62.6875 -0.976562 62.96875 0 L 52.796875 0 L 43.125 -34.25 L 34.765625 -4.65625 C 34.535156 -3.738281 34.429688 -2.976562 34.453125 -2.375 C 34.484375 -1.769531 34.644531 -0.976562 34.9375 0 L 24.765625 0 L 7.84375 -59.78125 C 7.332031 -61.789062 6.832031 -63.414062 6.34375 -64.65625 C 5.851562 -65.894531 5.175781 -67.347656 4.3125 -69.015625 L 15.09375 -69.015625 C 15.207031 -67.054688 15.40625 -65.488281 15.6875 -64.3125 C 15.976562 -63.132812 16.382812 -61.625 16.90625 -59.78125 L 32.953125 -2.9375 L 42.53125 -36.578125 L 35.96875 -59.78125 C 35.394531 -61.789062 34.863281 -63.414062 34.375 -64.65625 C 33.882812 -65.894531 33.207031 -67.347656 32.34375 -69.015625 L 43.125 -69.015625 C 43.25 -67.054688 43.453125 -65.488281 43.734375 -64.3125 C 44.023438 -63.132812 44.425781 -61.625 44.9375 -59.78125 L 47.015625 -52.53125 L 49.171875 -60.21875 C 49.628906 -61.882812 50.03125 -63.304688 50.375 -64.484375 C 50.71875 -65.660156 50.945312 -67.171875 51.0625 -69.015625 L 53.65625 -69.015625 C 52.738281 -67.117188 52.101562 -65.59375 51.75 -64.4375 C 51.40625 -63.289062 51.003906 -61.910156 50.546875 -60.296875 L 47.703125 -50.125 L 60.984375 -2.9375 L 77.203125 -60.21875 C 77.660156 -61.882812 78.0625 -63.304688 78.40625 -64.484375 C 78.757812 -65.660156 79.019531 -67.171875 79.1875 -69.015625 L 81.6875 -69.015625 C 80.769531 -67.117188 80.140625 -65.59375 79.796875 -64.4375 C 79.453125 -63.289062 79.050781 -61.910156 78.59375 -60.296875 Z M 78.59375 -60.296875"/>
            </g>
        </g>
    </g>
    <g id="object_26">
        <g id="object_27" transform="matrix(1 0 0 1 407.004349 432.15534)">
            <g id="object_28">
                <path id="object_29" fill="#000000" stroke="none" d="M 6.03125 0 C 6.207031 -2.414062 6.351562 -4.5 6.46875 -6.25 C 6.582031 -8.007812 6.65625 -9.722656 6.6875 -11.390625 C 6.71875 -13.054688 6.734375 -14.925781 6.734375 -17 L 6.734375 -52.015625 C 6.734375 -54.140625 6.71875 -56.019531 6.6875 -57.65625 C 6.65625 -59.300781 6.582031 -61 6.46875 -62.75 C 6.351562 -64.507812 6.207031 -66.597656 6.03125 -69.015625 L 22 -69.015625 C 25.851562 -69.015625 29.503906 -68.738281 32.953125 -68.1875 C 36.398438 -67.644531 39.460938 -66.695312 42.140625 -65.34375 C 44.816406 -63.988281 46.914062 -62.101562 48.4375 -59.6875 C 49.957031 -57.28125 50.71875 -54.207031 50.71875 -50.46875 C 50.71875 -46.726562 49.957031 -43.648438 48.4375 -41.234375 C 46.914062 -38.816406 44.816406 -36.929688 42.140625 -35.578125 C 39.460938 -34.234375 36.398438 -33.285156 32.953125 -32.734375 C 29.503906 -32.191406 25.851562 -31.921875 22 -31.921875 L 15.1875 -31.921875 L 15.1875 -17 C 15.1875 -14.925781 15.195312 -13.054688 15.21875 -11.390625 C 15.25 -9.722656 15.320312 -8.007812 15.4375 -6.25 C 15.550781 -4.5 15.695312 -2.414062 15.875 0 Z M 15.1875 -33.296875 L 21.90625 -33.296875 C 24.4375 -33.296875 26.894531 -33.550781 29.28125 -34.0625 C 31.664062 -34.582031 33.804688 -35.472656 35.703125 -36.734375 C 37.609375 -38.003906 39.117188 -39.75 40.234375 -41.96875 C 41.359375 -44.1875 41.921875 -47.019531 41.921875 -50.46875 C 41.921875 -53.914062 41.359375 -56.742188 40.234375 -58.953125 C 39.117188 -61.171875 37.609375 -62.910156 35.703125 -64.171875 C 33.804688 -65.441406 31.664062 -66.332031 29.28125 -66.84375 C 26.894531 -67.363281 24.4375 -67.625 21.90625 -67.625 L 15.1875 -67.625 Z M 15.1875 -33.296875"/>
            </g>
        </g>
    </g>
    <g id="object_30">
        <g id="object_31" transform="matrix(1 0 0 1 462.037852 432.15534)">
            <g id="object_32">
                <path id="object_33" fill="#000000" stroke="none" d="M 43.734375 1.71875 C 38.210938 1.71875 33.109375 0.828125 28.421875 -0.953125 C 23.734375 -2.734375 19.648438 -5.234375 16.171875 -8.453125 C 12.691406 -11.671875 9.988281 -15.492188 8.0625 -19.921875 C 6.132812 -24.347656 5.171875 -29.207031 5.171875 -34.5 C 5.171875 -39.789062 6.132812 -44.648438 8.0625 -49.078125 C 9.988281 -53.515625 12.691406 -57.34375 16.171875 -60.5625 C 19.648438 -63.78125 23.734375 -66.28125 28.421875 -68.0625 C 33.109375 -69.84375 38.210938 -70.734375 43.734375 -70.734375 C 49.253906 -70.734375 54.359375 -69.84375 59.046875 -68.0625 C 63.734375 -66.28125 67.832031 -63.78125 71.34375 -60.5625 C 74.851562 -57.34375 77.570312 -53.515625 79.5 -49.078125 C 81.425781 -44.648438 82.390625 -39.789062 82.390625 -34.5 C 82.390625 -29.207031 81.425781 -24.347656 79.5 -19.921875 C 77.570312 -15.492188 74.851562 -11.671875 71.34375 -8.453125 C 67.832031 -5.234375 63.734375 -2.734375 59.046875 -0.953125 C 54.359375 0.828125 49.253906 1.71875 43.734375 1.71875 Z M 43.734375 0.34375 C 48.335938 0.34375 52.4375 -0.601562 56.03125 -2.5 C 59.625 -4.394531 62.695312 -6.984375 65.25 -10.265625 C 67.8125 -13.546875 69.753906 -17.269531 71.078125 -21.4375 C 72.398438 -25.601562 73.0625 -29.957031 73.0625 -34.5 C 73.0625 -39.050781 72.398438 -43.410156 71.078125 -47.578125 C 69.753906 -51.742188 67.8125 -55.460938 65.25 -58.734375 C 62.695312 -62.015625 59.625 -64.601562 56.03125 -66.5 C 52.4375 -68.40625 48.335938 -69.359375 43.734375 -69.359375 C 39.191406 -69.359375 35.109375 -68.40625 31.484375 -66.5 C 27.859375 -64.601562 24.78125 -62.015625 22.25 -58.734375 C 19.71875 -55.460938 17.789062 -51.742188 16.46875 -47.578125 C 15.15625 -43.410156 14.5 -39.050781 14.5 -34.5 C 14.5 -29.957031 15.15625 -25.601562 16.46875 -21.4375 C 17.789062 -17.269531 19.71875 -13.546875 22.25 -10.265625 C 24.78125 -6.984375 27.859375 -4.394531 31.484375 -2.5 C 35.109375 -0.601562 39.191406 0.34375 43.734375 0.34375 Z M 43.734375 0.34375"/>
            </g>
        </g>
    </g>
    <g id="object_34">
        <g id="object_35" transform="matrix(1 0 0 1 549.591128 432.15534)">
            <g id="object_36">
                <path id="object_37" fill="#000000" stroke="none" d="M 3.453125 -20.625 L 10.359375 -23.984375 C 10.929688 -19.210938 12.207031 -15 14.1875 -11.34375 C 16.175781 -7.6875 18.691406 -4.820312 21.734375 -2.75 C 24.785156 -0.6875 28.207031 0.34375 32 0.34375 C 35.96875 0.34375 39.273438 -0.734375 41.921875 -2.890625 C 44.566406 -5.046875 45.890625 -8.3125 45.890625 -12.6875 C 45.890625 -15.21875 45.066406 -17.570312 43.421875 -19.75 C 41.785156 -21.9375 39.429688 -24.238281 36.359375 -26.65625 C 33.285156 -29.070312 29.59375 -31.921875 25.28125 -35.203125 C 21.195312 -38.242188 17.859375 -40.84375 15.265625 -43 C 12.679688 -45.15625 10.785156 -47.296875 9.578125 -49.421875 C 8.367188 -51.554688 7.765625 -54.03125 7.765625 -56.84375 C 7.765625 -61.332031 9.390625 -64.769531 12.640625 -67.15625 C 15.890625 -69.539062 20.015625 -70.734375 25.015625 -70.734375 C 30.128906 -70.734375 34.597656 -69.410156 38.421875 -66.765625 C 42.253906 -64.117188 45.664062 -60.125 48.65625 -54.78125 L 41.75 -52.1875 C 41.226562 -55.007812 40.320312 -57.726562 39.03125 -60.34375 C 37.738281 -62.957031 35.925781 -65.113281 33.59375 -66.8125 C 31.269531 -68.507812 28.265625 -69.359375 24.578125 -69.359375 C 20.898438 -69.359375 18.007812 -68.492188 15.90625 -66.765625 C 13.8125 -65.046875 12.765625 -62.75 12.765625 -59.875 C 12.765625 -57.625 13.320312 -55.664062 14.4375 -54 C 15.5625 -52.332031 17.289062 -50.609375 19.625 -48.828125 C 21.957031 -47.046875 24.90625 -44.832031 28.46875 -42.1875 C 33.351562 -38.613281 37.445312 -35.472656 40.75 -32.765625 C 44.0625 -30.066406 46.566406 -27.394531 48.265625 -24.75 C 49.960938 -22.113281 50.8125 -19.007812 50.8125 -15.4375 C 50.8125 -11.582031 49.929688 -8.390625 48.171875 -5.859375 C 46.421875 -3.335938 44.078125 -1.441406 41.140625 -0.171875 C 38.210938 1.085938 34.992188 1.71875 31.484375 1.71875 C 27.460938 1.71875 23.679688 1.015625 20.140625 -0.390625 C 16.609375 -1.796875 13.429688 -4.140625 10.609375 -7.421875 C 7.796875 -10.703125 5.410156 -15.101562 3.453125 -20.625 Z M 3.453125 -20.625"/>
            </g>
        </g>
    </g>
    <g id="object_38">
        <g id="object_39" transform="matrix(1 0 0 1 603.848284 432.15534)">
            <g id="object_40">
                <path id="object_41" fill="#000000" stroke="none" d="M 55.5625 -69.015625 L 51.765625 -64.1875 C 48.078125 -65.675781 44.648438 -66.617188 41.484375 -67.015625 C 38.328125 -67.421875 35.800781 -67.625 33.90625 -67.625 L 32.859375 -67.625 L 32.859375 -17 C 32.859375 -14.925781 32.890625 -13.054688 32.953125 -11.390625 C 33.015625 -9.722656 33.085938 -8.007812 33.171875 -6.25 C 33.253906 -4.5 33.382812 -2.414062 33.5625 0 L 23.71875 0 C 23.894531 -2.414062 24.023438 -4.5 24.109375 -6.25 C 24.191406 -8.007812 24.257812 -9.722656 24.3125 -11.390625 C 24.375 -13.054688 24.40625 -14.925781 24.40625 -17 L 24.40625 -67.625 L 23.375 -67.625 C 21.476562 -67.625 18.960938 -67.421875 15.828125 -67.015625 C 12.691406 -66.617188 9.253906 -65.675781 5.515625 -64.1875 L 1.71875 -69.015625 Z M 55.5625 -69.015625"/>
            </g>
        </g>
    </g>
    <g id="object_42">
        <g id="object_43" transform="matrix(1 0 0 1 300.840485 458.143454)">
            <g id="object_44">
                <path id="object_45" fill="#bd8334" stroke="none" d="M 35.0625 -18.046875 C 35.375 -17.773438 35.554688 -17.429688 35.609375 -17.015625 C 35.660156 -16.597656 35.53125 -16.226562 35.21875 -15.90625 C 33.695312 -14.125 32.015625 -12.15625 30.171875 -10 C 28.335938 -7.851562 26.539062 -5.753906 24.78125 -3.703125 C 23.019531 -1.648438 21.507812 0.117188 20.25 1.609375 C 18.988281 3.109375 18.144531 4.117188 17.71875 4.640625 C 16.832031 5.796875 15.96875 6.925781 15.125 8.03125 C 15.8125 11.082031 15.878906 13.957031 15.328125 16.65625 C 14.773438 19.363281 13.851562 21.765625 12.5625 23.859375 C 11.28125 25.960938 9.929688 27.59375 8.515625 28.75 C 7.035156 30.007812 5.664062 30.640625 4.40625 30.640625 C 3.625 30.640625 2.96875 30.378906 2.4375 29.859375 C 1.550781 29.015625 1.25 27.765625 1.53125 26.109375 C 1.820312 24.460938 2.492188 22.585938 3.546875 20.484375 C 4.597656 18.378906 5.859375 16.195312 7.328125 13.9375 C 8.796875 11.6875 10.289062 9.507812 11.8125 7.40625 C 11.550781 6.457031 11.179688 5.5 10.703125 4.53125 C 10.234375 3.5625 9.6875 2.578125 9.0625 1.578125 C 6.90625 -1.679688 5.078125 -4.738281 3.578125 -7.59375 C 2.085938 -10.457031 1.394531 -13.070312 1.5 -15.4375 C 1.757812 -19.800781 3.703125 -23.054688 7.328125 -25.203125 C 8.796875 -26.097656 10.34375 -26.625 11.96875 -26.78125 C 13.601562 -26.9375 15.101562 -26.703125 16.46875 -26.078125 C 16.832031 -25.867188 17.078125 -25.566406 17.203125 -25.171875 C 17.335938 -24.773438 17.328125 -24.394531 17.171875 -24.03125 C 16.960938 -23.664062 16.660156 -23.414062 16.265625 -23.28125 C 15.867188 -23.144531 15.488281 -23.15625 15.125 -23.3125 C 13.238281 -24.207031 11.164062 -23.972656 8.90625 -22.609375 C 6.175781 -20.984375 4.726562 -18.539062 4.5625 -15.28125 C 4.457031 -13.34375 5.113281 -11.054688 6.53125 -8.421875 C 7.957031 -5.796875 9.640625 -3.039062 11.578125 -0.15625 C 12.578125 1.363281 13.390625 2.910156 14.015625 4.484375 C 14.441406 3.960938 14.890625 3.382812 15.359375 2.75 C 15.785156 2.226562 16.640625 1.207031 17.921875 -0.3125 C 19.210938 -1.832031 20.722656 -3.617188 22.453125 -5.671875 C 24.179688 -7.722656 25.976562 -9.820312 27.84375 -11.96875 C 29.707031 -14.125 31.40625 -16.097656 32.9375 -17.890625 C 33.195312 -18.203125 33.535156 -18.382812 33.953125 -18.4375 C 34.367188 -18.488281 34.738281 -18.359375 35.0625 -18.046875 Z M 9.453125 23.15625 C 9.816406 22.582031 10.257812 21.753906 10.78125 20.671875 C 11.3125 19.597656 11.773438 18.285156 12.171875 16.734375 C 12.566406 15.191406 12.6875 13.472656 12.53125 11.578125 C 10.113281 14.992188 8.3125 17.832031 7.125 20.09375 C 5.945312 22.351562 5.1875 24.070312 4.84375 25.25 C 4.5 26.425781 4.378906 27.203125 4.484375 27.578125 C 4.859375 27.578125 5.515625 27.234375 6.453125 26.546875 C 7.398438 25.867188 8.398438 24.738281 9.453125 23.15625 Z M 9.453125 23.15625"/>
            </g>
        </g>
    </g>
    <g id="object_46">
        <g id="object_47" transform="matrix(1 0 0 1 334.164723 458.143454)">
            <g id="object_48">
                <path id="object_49" fill="#bd8334" stroke="none" d="M 48.296875 -17.71875 C 48.554688 -17.457031 48.695312 -17.117188 48.71875 -16.703125 C 48.75 -16.285156 48.609375 -15.914062 48.296875 -15.59375 C 45.828125 -13.070312 43.316406 -11.3125 40.765625 -10.3125 C 38.222656 -9.320312 35.875 -9.140625 33.71875 -9.765625 C 32.769531 -10.078125 31.769531 -10.601562 30.71875 -11.34375 C 29.675781 -12.082031 28.757812 -13.238281 27.96875 -14.8125 C 27.175781 -11.875 26.28125 -9.0625 25.28125 -6.375 C 24.1875 -3.488281 23.203125 -1.351562 22.328125 0.03125 C 21.460938 1.425781 20.6875 2.347656 20 2.796875 C 19.320312 3.242188 18.722656 3.46875 18.203125 3.46875 C 17.253906 3.46875 16.515625 3.113281 15.984375 2.40625 C 15.460938 1.695312 15.070312 0.921875 14.8125 0.078125 C 14.550781 -0.765625 14.367188 -1.421875 14.265625 -1.890625 C 14.097656 -2.785156 13.960938 -3.835938 13.859375 -5.046875 C 12.078125 -2.253906 10.644531 -0.164062 9.5625 1.21875 C 8.488281 2.613281 7.535156 3.703125 6.703125 4.484375 C 6.015625 5.171875 5.378906 5.628906 4.796875 5.859375 C 4.222656 6.097656 3.703125 6.21875 3.234375 6.21875 C 2.859375 6.21875 2.515625 6.164062 2.203125 6.0625 C 1.890625 5.957031 1.65625 5.828125 1.5 5.671875 C 0.1875 4.828125 -0.597656 3.015625 -0.859375 0.234375 C -1.128906 -2.546875 -0.894531 -5.957031 -0.15625 -10 C 0.582031 -14.050781 1.789062 -18.4375 3.46875 -23.15625 C 3.625 -23.53125 3.882812 -23.804688 4.25 -23.984375 C 4.625 -24.171875 5.019531 -24.1875 5.4375 -24.03125 C 5.800781 -23.925781 6.070312 -23.675781 6.25 -23.28125 C 6.4375 -22.882812 6.453125 -22.503906 6.296875 -22.140625 C 4.410156 -16.890625 3.191406 -12.4375 2.640625 -8.78125 C 2.085938 -5.132812 1.914062 -2.3125 2.125 -0.3125 C 2.332031 1.675781 2.675781 2.832031 3.15625 3.15625 C 3.363281 3.3125 3.859375 3.019531 4.640625 2.28125 C 5.273438 1.707031 5.972656 0.9375 6.734375 -0.03125 C 7.492188 -1.007812 8.4375 -2.335938 9.5625 -4.015625 C 10.695312 -5.691406 12.128906 -7.898438 13.859375 -10.640625 C 14.234375 -11.265625 14.785156 -11.472656 15.515625 -11.265625 C 16.253906 -11.054688 16.625 -10.554688 16.625 -9.765625 C 16.625 -8.816406 16.675781 -7.660156 16.78125 -6.296875 C 16.882812 -4.929688 17.039062 -3.644531 17.25 -2.4375 C 17.457031 -1.550781 17.640625 -0.894531 17.796875 -0.46875 C 17.960938 -0.0507812 18.097656 0.234375 18.203125 0.390625 C 18.722656 0.078125 19.363281 -0.8125 20.125 -2.28125 C 20.882812 -3.75 21.671875 -5.535156 22.484375 -7.640625 C 23.304688 -9.742188 24.046875 -11.945312 24.703125 -14.25 C 25.359375 -16.5625 25.816406 -18.71875 26.078125 -20.71875 C 26.234375 -21.5625 26.734375 -21.984375 27.578125 -21.984375 C 28.410156 -22.035156 28.910156 -21.640625 29.078125 -20.796875 C 29.960938 -16.222656 31.796875 -13.519531 34.578125 -12.6875 C 36.160156 -12.207031 37.972656 -12.414062 40.015625 -13.3125 C 42.066406 -14.207031 44.117188 -15.675781 46.171875 -17.71875 C 46.429688 -18.039062 46.769531 -18.203125 47.1875 -18.203125 C 47.601562 -18.203125 47.972656 -18.039062 48.296875 -17.71875 Z M 48.296875 -17.71875"/>
            </g>
        </g>
    </g>
    <g id="object_50">
        <g id="object_51" transform="matrix(1 0 0 1 380.566423 458.143454)">
            <g id="object_52">
                <path id="object_53" fill="#bd8334" stroke="none" d="M 23.078125 -17.96875 C 23.453125 -17.75 23.675781 -17.429688 23.75 -17.015625 C 23.832031 -16.597656 23.769531 -16.203125 23.5625 -15.828125 C 22.5625 -14.253906 21.296875 -12.492188 19.765625 -10.546875 C 18.242188 -8.609375 16.585938 -6.757812 14.796875 -5 C 13.015625 -3.238281 11.242188 -1.78125 9.484375 -0.625 C 7.734375 0.53125 6.117188 1.109375 4.640625 1.109375 C 4.015625 1.109375 3.46875 1 3 0.78125 C 1.207031 0 0.21875 -1.898438 0.03125 -4.921875 C -0.144531 -7.941406 0.472656 -12.207031 1.890625 -17.71875 C 1.992188 -18.144531 2.226562 -18.460938 2.59375 -18.671875 C 2.96875 -18.878906 3.335938 -18.929688 3.703125 -18.828125 C 4.117188 -18.722656 4.429688 -18.484375 4.640625 -18.109375 C 4.859375 -17.742188 4.914062 -17.378906 4.8125 -17.015625 C 3.96875 -13.648438 3.441406 -10.984375 3.234375 -9.015625 C 3.023438 -7.046875 2.984375 -5.5625 3.109375 -4.5625 C 3.242188 -3.570312 3.441406 -2.90625 3.703125 -2.5625 C 3.960938 -2.21875 4.117188 -2.046875 4.171875 -2.046875 C 4.859375 -1.734375 5.859375 -1.957031 7.171875 -2.71875 C 8.484375 -3.476562 9.953125 -4.601562 11.578125 -6.09375 C 13.203125 -7.59375 14.84375 -9.328125 16.5 -11.296875 C 18.15625 -13.273438 19.640625 -15.335938 20.953125 -17.484375 C 21.210938 -17.859375 21.539062 -18.082031 21.9375 -18.15625 C 22.332031 -18.238281 22.710938 -18.175781 23.078125 -17.96875 Z M 4.484375 -24.265625 C 3.441406 -24.316406 2.90625 -24.617188 2.875 -25.171875 C 2.851562 -25.722656 3.085938 -26.285156 3.578125 -26.859375 C 4.078125 -27.441406 4.59375 -27.835938 5.125 -28.046875 C 5.957031 -28.304688 6.570312 -28.253906 6.96875 -27.890625 C 7.363281 -27.523438 7.546875 -27.050781 7.515625 -26.46875 C 7.492188 -25.894531 7.234375 -25.367188 6.734375 -24.890625 C 6.234375 -24.421875 5.484375 -24.210938 4.484375 -24.265625 Z M 4.484375 -24.265625"/>
            </g>
        </g>
    </g>
    <g id="object_54">
        <g id="object_55" transform="matrix(1 0 0 1 402.073658 458.143454)">
            <g id="object_56">
                <path id="object_57" fill="#bd8334" stroke="none" d="M 16.859375 -29.234375 C 18.429688 -28.753906 19.476562 -27.503906 20 -25.484375 C 20.53125 -23.460938 20.457031 -21.113281 19.78125 -18.4375 C 18.988281 -15.550781 17.660156 -13.03125 15.796875 -10.875 C 13.929688 -8.71875 12.160156 -6.957031 10.484375 -5.59375 C 8.429688 -3.914062 6.171875 -2.445312 3.703125 -1.1875 C 2.859375 2.125 1.988281 5.816406 1.09375 9.890625 C 0.207031 13.960938 -0.679688 18.132812 -1.578125 22.40625 C -2.472656 26.6875 -3.3125 30.863281 -4.09375 34.9375 C -4.882812 39.007812 -5.609375 42.765625 -6.265625 46.203125 C -6.921875 49.640625 -7.429688 52.515625 -7.796875 54.828125 C -7.953125 55.671875 -8.453125 56.09375 -9.296875 56.09375 C -9.398438 56.09375 -9.476562 56.09375 -9.53125 56.09375 C -9.945312 56.039062 -10.273438 55.84375 -10.515625 55.5 C -10.753906 55.15625 -10.847656 54.773438 -10.796875 54.359375 C -10.367188 51.367188 -9.8125 47.820312 -9.125 43.71875 C -8.445312 39.625 -7.703125 35.195312 -6.890625 30.4375 C -6.078125 25.6875 -5.238281 20.816406 -4.375 15.828125 C -3.507812 10.835938 -2.628906 5.929688 -1.734375 1.109375 C -2.359375 1.316406 -2.988281 1.5 -3.625 1.65625 C -4.039062 1.8125 -4.429688 1.785156 -4.796875 1.578125 C -5.171875 1.367188 -5.410156 1.050781 -5.515625 0.625 C -5.617188 0.207031 -5.566406 -0.179688 -5.359375 -0.546875 C -5.148438 -0.921875 -4.832031 -1.160156 -4.40625 -1.265625 C -3.363281 -1.523438 -2.289062 -1.890625 -1.1875 -2.359375 C -0.914062 -3.773438 -0.648438 -5.164062 -0.390625 -6.53125 C -0.128906 -7.90625 0.101562 -9.25 0.3125 -10.5625 C 1.050781 -14.707031 1.734375 -18.523438 2.359375 -22.015625 C 2.992188 -25.515625 3.503906 -28.40625 3.890625 -30.6875 C 4.285156 -32.96875 4.484375 -34.265625 4.484375 -34.578125 C 4.484375 -35.523438 4.957031 -36.023438 5.90625 -36.078125 C 6.320312 -36.128906 6.6875 -36.007812 7 -35.71875 C 7.320312 -35.4375 7.507812 -35.082031 7.5625 -34.65625 C 7.5625 -34.550781 7.519531 -34.179688 7.4375 -33.546875 C 7.363281 -32.921875 7.191406 -31.875 6.921875 -30.40625 C 6.660156 -28.9375 6.28125 -26.8125 5.78125 -24.03125 C 5.289062 -21.25 4.648438 -17.648438 3.859375 -13.234375 C 5.273438 -17.273438 6.648438 -20.4375 7.984375 -22.71875 C 9.328125 -25.007812 10.578125 -26.640625 11.734375 -27.609375 C 12.890625 -28.585938 13.898438 -29.140625 14.765625 -29.265625 C 15.640625 -29.398438 16.335938 -29.390625 16.859375 -29.234375 Z M 16.859375 -19.21875 C 17.378906 -21.269531 17.492188 -22.925781 17.203125 -24.1875 C 16.921875 -25.445312 16.519531 -26.15625 16 -26.3125 C 15.9375 -26.363281 15.851562 -26.390625 15.75 -26.390625 C 15.332031 -26.390625 14.664062 -26.007812 13.75 -25.25 C 12.832031 -24.488281 11.753906 -23.070312 10.515625 -21 C 9.285156 -18.925781 7.988281 -15.863281 6.625 -11.8125 C 6.09375 -10.238281 5.460938 -8.035156 4.734375 -5.203125 C 7.566406 -6.929688 10.109375 -9.003906 12.359375 -11.421875 C 14.617188 -13.835938 16.117188 -16.4375 16.859375 -19.21875 Z M 16.859375 -19.21875"/>
            </g>
        </g>
    </g>
    <g id="object_58">
        <g id="object_59" transform="matrix(1 0 0 1 427.441125 458.143454)">
            <g id="object_60">
                <path id="object_61" fill="#bd8334" stroke="none" d="M 26.625 -17.5625 C 26.988281 -17.351562 27.195312 -17.039062 27.25 -16.625 C 27.3125 -16.207031 27.234375 -15.835938 27.015625 -15.515625 C 23.921875 -11.210938 21.085938 -7.65625 18.515625 -4.84375 C 15.941406 -2.03125 13.367188 0.289062 10.796875 2.125 C 8.847656 3.488281 6.929688 4.171875 5.046875 4.171875 C 3.578125 4.171875 2.289062 3.78125 1.1875 3 C 0.445312 2.46875 -0.273438 1.53125 -0.984375 0.1875 C -1.691406 -1.144531 -2.070312 -3.082031 -2.125 -5.625 C -2.175781 -8.175781 -1.546875 -11.523438 -0.234375 -15.671875 C -0.234375 -15.671875 -0.234375 -15.695312 -0.234375 -15.75 C 1.335938 -20.789062 3.1875 -24.640625 5.3125 -27.296875 C 7.445312 -29.953125 9.273438 -31.304688 10.796875 -31.359375 C 12.003906 -31.410156 12.789062 -30.882812 13.15625 -29.78125 C 13.726562 -28.257812 13.039062 -26.09375 11.09375 -23.28125 C 9.15625 -20.46875 6.296875 -17.488281 2.515625 -14.34375 C 1.359375 -10.664062 0.804688 -7.785156 0.859375 -5.703125 C 0.921875 -3.628906 1.210938 -2.132812 1.734375 -1.21875 C 2.253906 -0.300781 2.675781 0.285156 3 0.546875 C 4.570312 1.703125 6.59375 1.390625 9.0625 -0.390625 C 11.476562 -2.078125 13.921875 -4.269531 16.390625 -6.96875 C 18.859375 -9.675781 21.5625 -13.101562 24.5 -17.25 C 24.757812 -17.5625 25.097656 -17.757812 25.515625 -17.84375 C 25.941406 -17.925781 26.3125 -17.832031 26.625 -17.5625 Z M 10.234375 -28.046875 C 9.660156 -27.679688 8.875 -26.90625 7.875 -25.71875 C 6.875 -24.539062 5.851562 -22.820312 4.8125 -20.5625 C 6.695312 -22.394531 8.03125 -23.953125 8.8125 -25.234375 C 9.601562 -26.523438 10.078125 -27.460938 10.234375 -28.046875 Z M 10.234375 -28.046875"/>
            </g>
        </g>
    </g>
    <g id="object_62">
        <g id="object_63" transform="matrix(1 0 0 1 477.703387 458.143454)">
            <g id="object_64">
                <path id="object_65" fill="#bd8334" stroke="none" d="M 31.4375 -17.015625 C 31.75 -16.804688 31.957031 -16.488281 32.0625 -16.0625 C 32.164062 -15.644531 32.113281 -15.28125 31.90625 -14.96875 C 31.488281 -14.28125 30.816406 -13.226562 29.890625 -11.8125 C 28.972656 -10.394531 27.867188 -8.832031 26.578125 -7.125 C 25.296875 -5.414062 23.929688 -3.757812 22.484375 -2.15625 C 21.046875 -0.5625 19.617188 0.757812 18.203125 1.8125 C 16.785156 2.863281 15.472656 3.390625 14.265625 3.390625 C 13.835938 3.390625 13.46875 3.3125 13.15625 3.15625 C 11.84375 2.675781 11.015625 1.46875 10.671875 -0.46875 C 10.328125 -2.414062 10.445312 -5.226562 11.03125 -8.90625 C 10.34375 -8.007812 9.601562 -7.085938 8.8125 -6.140625 C 8.03125 -5.203125 7.191406 -4.335938 6.296875 -3.546875 C 4.929688 -2.390625 3.773438 -1.914062 2.828125 -2.125 C 1.890625 -2.332031 1.265625 -2.597656 0.953125 -2.921875 C 0.00390625 -3.703125 -0.585938 -4.894531 -0.828125 -6.5 C -1.066406 -8.101562 -0.988281 -9.890625 -0.59375 -11.859375 C -0.195312 -13.828125 0.523438 -15.726562 1.578125 -17.5625 C 1.785156 -17.9375 2.097656 -18.175781 2.515625 -18.28125 C 2.941406 -18.382812 3.335938 -18.332031 3.703125 -18.125 C 4.066406 -17.90625 4.300781 -17.597656 4.40625 -17.203125 C 4.507812 -16.816406 4.457031 -16.441406 4.25 -16.078125 C 3.3125 -14.492188 2.679688 -12.925781 2.359375 -11.375 C 2.046875 -9.832031 1.953125 -8.507812 2.078125 -7.40625 C 2.210938 -6.300781 2.46875 -5.59375 2.84375 -5.28125 C 3.050781 -5.125 3.320312 -5.160156 3.65625 -5.390625 C 4 -5.628906 4.222656 -5.773438 4.328125 -5.828125 C 5.328125 -6.722656 6.273438 -7.75 7.171875 -8.90625 C 8.066406 -10.0625 8.828125 -11.109375 9.453125 -12.046875 C 10.296875 -13.203125 10.992188 -14.054688 11.546875 -14.609375 C 12.097656 -15.160156 12.738281 -15.28125 13.46875 -14.96875 C 14.207031 -14.707031 14.578125 -14.128906 14.578125 -13.234375 C 14.578125 -12.335938 14.445312 -11.128906 14.1875 -9.609375 C 13.65625 -6.566406 13.414062 -4.347656 13.46875 -2.953125 C 13.519531 -1.554688 13.648438 -0.660156 13.859375 -0.265625 C 14.078125 0.117188 14.210938 0.3125 14.265625 0.3125 C 14.890625 0.570312 16.617188 -0.671875 19.453125 -3.421875 C 22.296875 -6.179688 25.582031 -10.554688 29.3125 -16.546875 C 29.519531 -16.910156 29.832031 -17.128906 30.25 -17.203125 C 30.664062 -17.285156 31.0625 -17.222656 31.4375 -17.015625 Z M 31.4375 -17.015625"/>
            </g>
        </g>
    </g>
    <g id="object_66">
        <g id="object_67" transform="matrix(1 0 0 1 507.482522 458.143454)">
            <g id="object_68">
                <path id="object_69" fill="#bd8334" stroke="none" d="M 16.859375 -29.234375 C 18.429688 -28.753906 19.476562 -27.503906 20 -25.484375 C 20.53125 -23.460938 20.457031 -21.113281 19.78125 -18.4375 C 18.988281 -15.550781 17.660156 -13.03125 15.796875 -10.875 C 13.929688 -8.71875 12.160156 -6.957031 10.484375 -5.59375 C 8.429688 -3.914062 6.171875 -2.445312 3.703125 -1.1875 C 2.859375 2.125 1.988281 5.816406 1.09375 9.890625 C 0.207031 13.960938 -0.679688 18.132812 -1.578125 22.40625 C -2.472656 26.6875 -3.3125 30.863281 -4.09375 34.9375 C -4.882812 39.007812 -5.609375 42.765625 -6.265625 46.203125 C -6.921875 49.640625 -7.429688 52.515625 -7.796875 54.828125 C -7.953125 55.671875 -8.453125 56.09375 -9.296875 56.09375 C -9.398438 56.09375 -9.476562 56.09375 -9.53125 56.09375 C -9.945312 56.039062 -10.273438 55.84375 -10.515625 55.5 C -10.753906 55.15625 -10.847656 54.773438 -10.796875 54.359375 C -10.367188 51.367188 -9.8125 47.820312 -9.125 43.71875 C -8.445312 39.625 -7.703125 35.195312 -6.890625 30.4375 C -6.078125 25.6875 -5.238281 20.816406 -4.375 15.828125 C -3.507812 10.835938 -2.628906 5.929688 -1.734375 1.109375 C -2.359375 1.316406 -2.988281 1.5 -3.625 1.65625 C -4.039062 1.8125 -4.429688 1.785156 -4.796875 1.578125 C -5.171875 1.367188 -5.410156 1.050781 -5.515625 0.625 C -5.617188 0.207031 -5.566406 -0.179688 -5.359375 -0.546875 C -5.148438 -0.921875 -4.832031 -1.160156 -4.40625 -1.265625 C -3.363281 -1.523438 -2.289062 -1.890625 -1.1875 -2.359375 C -0.914062 -3.773438 -0.648438 -5.164062 -0.390625 -6.53125 C -0.128906 -7.90625 0.101562 -9.25 0.3125 -10.5625 C 1.050781 -14.707031 1.734375 -18.523438 2.359375 -22.015625 C 2.992188 -25.515625 3.503906 -28.40625 3.890625 -30.6875 C 4.285156 -32.96875 4.484375 -34.265625 4.484375 -34.578125 C 4.484375 -35.523438 4.957031 -36.023438 5.90625 -36.078125 C 6.320312 -36.128906 6.6875 -36.007812 7 -35.71875 C 7.320312 -35.4375 7.507812 -35.082031 7.5625 -34.65625 C 7.5625 -34.550781 7.519531 -34.179688 7.4375 -33.546875 C 7.363281 -32.921875 7.191406 -31.875 6.921875 -30.40625 C 6.660156 -28.9375 6.28125 -26.8125 5.78125 -24.03125 C 5.289062 -21.25 4.648438 -17.648438 3.859375 -13.234375 C 5.273438 -17.273438 6.648438 -20.4375 7.984375 -22.71875 C 9.328125 -25.007812 10.578125 -26.640625 11.734375 -27.609375 C 12.890625 -28.585938 13.898438 -29.140625 14.765625 -29.265625 C 15.640625 -29.398438 16.335938 -29.390625 16.859375 -29.234375 Z M 16.859375 -19.21875 C 17.378906 -21.269531 17.492188 -22.925781 17.203125 -24.1875 C 16.921875 -25.445312 16.519531 -26.15625 16 -26.3125 C 15.9375 -26.363281 15.851562 -26.390625 15.75 -26.390625 C 15.332031 -26.390625 14.664062 -26.007812 13.75 -25.25 C 12.832031 -24.488281 11.753906 -23.070312 10.515625 -21 C 9.285156 -18.925781 7.988281 -15.863281 6.625 -11.8125 C 6.09375 -10.238281 5.460938 -8.035156 4.734375 -5.203125 C 7.566406 -6.929688 10.109375 -9.003906 12.359375 -11.421875 C 14.617188 -13.835938 16.117188 -16.4375 16.859375 -19.21875 Z M 16.859375 -19.21875"/>
            </g>
        </g>
    </g>
</svg>
