<?xml version="1.0" encoding="utf-8"?>
<svg height="1210.4857208251954" viewBox="63.80218505859375 14.257139587402342 372.3956298828125 121.48572082519532" width="1000.3956298828125" xmlns="http://www.w3.org/2000/svg">
<defs>
<filter height="3" id="editing-hover" width="3" x="-1" y="-1">
<feFlood color-interpolation-filters="linearRGB" flood-color="#052b4a" flood-opacity="1" result="flood"/>
<feComposite color-interpolation-filters="linearRGB" in="flood" in2="SourceAlpha" operator="in" result="shadow"/>
<feOffset color-interpolation-filters="linearRGB" dx="-4" dy="-4" in="SourceGraphic" result="offset-1"/>
<feOffset color-interpolation-filters="linearRGB" dx="4" dy="4" in="shadow" result="offset-2"/>
<feMerge color-interpolation-filters="linearRGB" result="result5">
<feMergeNode in="offset-2"/>
<feMergeNode in="offset-1"/>
</feMerge>
</filter>
</defs>
<g filter="url(#editing-hover)" id="object_2">
<g id="object_3" transform="matrix(1 0 0 1 120.1647346 98.67999268)">
<path d="M 2.11 -6.4 L 2.11 -6.4 L 2.11 -6.4 C 2.11 -7.55333333 2.41 -9.58 3.01 -12.48 L 3.01 -12.48 L 6.4 -29.76 L 2.62 -29.76 L 2.88 -31.68 L 2.88 -31.68 C 8 -33.21333333 13.03333333 -35.86 17.98 -39.62 L 17.98 -39.62 L 21.06 -39.62 L 19.52 -32.64 L 24.51 -32.64 L 23.94 -29.76 L 19.01 -29.76 L 15.74 -12.48 L 15.74 -12.48 C 15.18666667 -9.83333333 14.91 -8.06333333 14.91 -7.17 L 14.91 -7.17 L 14.91 -7.17 C 14.91 -5.12333333 15.80666667 -3.88666667 17.6 -3.46 L 17.6 -3.46 L 17.6 -3.46 C 17.17333333 -2.00666667 16.19333333 -0.85333333 14.66 0 L 14.66 0 L 14.66 0 C 13.12 0.85333333 11.26333333 1.28 9.09 1.28 L 9.09 1.28 L 9.09 1.28 C 6.91 1.28 5.20333333 0.59666667 3.97 -0.77 L 3.97 -0.77 L 3.97 -0.77 C 2.73 -2.13666667 2.11 -4.01333333 2.11 -6.4 Z M 49.86 -10.82 L 49.86 -10.82 L 49.86 -10.82 C 50.92666667 -10.09333333 51.46 -8.93 51.46 -7.33 L 51.46 -7.33 L 51.46 -7.33 C 51.46 -5.73 51.05333333 -4.41666667 50.24 -3.39 L 50.24 -3.39 L 50.24 -3.39 C 49.42666667 -2.37 48.36 -1.51666667 47.04 -0.83 L 47.04 -0.83 L 47.04 -0.83 C 44.30666667 0.57666667 41.47 1.28 38.53 1.28 L 38.53 1.28 L 38.53 1.28 C 35.58333333 1.28 33.24666667 0.96 31.52 0.32 L 31.52 0.32 L 31.52 0.32 C 29.79333333 -0.32 28.35333333 -1.23666667 27.2 -2.43 L 27.2 -2.43 L 27.2 -2.43 C 24.94 -4.69 23.81 -7.89 23.81 -12.03 L 23.81 -12.03 L 23.81 -12.03 C 23.81 -18.47666667 25.56 -23.66 29.06 -27.58 L 29.06 -27.58 L 29.06 -27.58 C 32.81333333 -31.80666667 37.95333333 -33.92 44.48 -33.92 L 44.48 -33.92 L 44.48 -33.92 C 48.53333333 -33.92 51.56333333 -33.06666667 53.57 -31.36 L 53.57 -31.36 L 53.57 -31.36 C 55.06333333 -30.08 55.81 -28.39333333 55.81 -26.3 L 55.81 -26.3 L 55.81 -26.3 C 55.81 -18.79333333 49.32333333 -15.04 36.35 -15.04 L 36.35 -15.04 L 36.35 -15.04 C 36.18333333 -13.93333333 36.1 -12.91 36.1 -11.97 L 36.1 -11.97 L 36.1 -11.97 C 36.1 -10.00333333 36.53666667 -8.64666667 37.41 -7.9 L 37.41 -7.9 L 37.41 -7.9 C 38.28333333 -7.15333333 39.53 -6.78 41.15 -6.78 L 41.15 -6.78 L 41.15 -6.78 C 42.77 -6.78 44.44666667 -7.15333333 46.18 -7.9 L 46.18 -7.9 L 46.18 -7.9 C 47.90666667 -8.64666667 49.13333333 -9.62 49.86 -10.82 Z M 36.8 -17.79 L 36.8 -17.79 L 36.8 -17.79 C 39.82666667 -17.79 42.21666667 -18.73 43.97 -20.61 L 43.97 -20.61 L 43.97 -20.61 C 45.71666667 -22.40333333 46.59 -24.72666667 46.59 -27.58 L 46.59 -27.58 L 46.59 -27.58 C 46.59 -28.56666667 46.41 -29.32666667 46.05 -29.86 L 46.05 -29.86 L 46.05 -29.86 C 45.68333333 -30.39333333 45.14 -30.66 44.42 -30.66 L 44.42 -30.66 L 44.42 -30.66 C 43.69333333 -30.66 43.02 -30.52 42.4 -30.24 L 42.4 -30.24 L 42.4 -30.24 C 41.78 -29.96 41.15 -29.35333333 40.51 -28.42 L 40.51 -28.42 L 40.51 -28.42 C 38.93 -26.28666667 37.69333333 -22.74333333 36.8 -17.79 Z M 66.5 0.19 L 66.5 0.19 L 66.5 0.19 C 65.13333333 0.91666667 63.51 1.28 61.63 1.28 L 61.63 1.28 L 61.63 1.28 C 59.75666667 1.28 58.30666667 0.8 57.28 -0.16 L 57.28 -0.16 L 57.28 -0.16 C 56.25333333 -1.12 55.74 -2.52666667 55.74 -4.38 L 55.74 -4.38 L 55.74 -4.38 C 55.74 -6.24 56.39333333 -8.07666667 57.7 -9.89 L 57.7 -9.89 L 57.7 -9.89 C 59 -11.70333333 60.62 -13.12 62.56 -14.14 L 62.56 -14.14 L 62.56 -14.14 C 64.5 -15.16666667 66.15333333 -15.98 67.52 -16.58 L 67.52 -16.58 L 63.49 -25.86 L 63.49 -25.86 C 62.76333333 -27.43333333 61.71666667 -28.22 60.35 -28.22 L 60.35 -28.22 L 59.84 -28.16 L 59.65 -28.16 L 59.65 -28.16 C 59.90333333 -29.65333333 60.90666667 -30.97666667 62.66 -32.13 L 62.66 -32.13 L 62.66 -32.13 C 64.40666667 -33.32333333 66.28333333 -33.92 68.29 -33.92 L 68.29 -33.92 L 68.29 -33.92 C 71.53 -33.92 73.89666667 -32.3 75.39 -29.06 L 75.39 -29.06 L 75.9 -28.03 L 78.66 -21.25 L 78.66 -21.25 C 79.80666667 -21.76333333 80.62666667 -22.5 81.12 -23.46 L 81.12 -23.46 L 81.12 -23.46 C 81.61333333 -24.42 81.86 -25.84666667 81.86 -27.74 L 81.86 -27.74 L 81.86 -27.74 C 81.86 -29.64 81.34666667 -31.18666667 80.32 -32.38 L 80.32 -32.38 L 80.32 -32.38 C 81.94 -33.40666667 83.81666667 -33.92 85.95 -33.92 L 85.95 -33.92 L 85.95 -33.92 C 89.79 -33.92 91.71 -32.06333333 91.71 -28.35 L 91.71 -28.35 L 91.71 -28.35 C 91.71 -24.29666667 89.17333333 -21.09666667 84.1 -18.75 L 84.1 -18.75 L 80.26 -16.96 L 83.71 -8.06 L 83.71 -8.06 C 84.39666667 -6.27333333 85.35666667 -4.99333333 86.59 -4.22 L 86.59 -4.22 L 86.59 -4.22 C 87.10333333 -3.88 87.66 -3.69 88.26 -3.65 L 88.26 -3.65 L 88.26 -3.65 C 86.98 -1.55666667 84.95333333 -0.04 82.18 0.9 L 82.18 0.9 L 82.18 0.9 C 81.32666667 1.15333333 80.32333333 1.28 79.17 1.28 L 79.17 1.28 L 79.17 1.28 C 78.01666667 1.28 76.78 0.88666667 75.46 0.1 L 75.46 0.1 L 75.46 0.1 C 74.13333333 -0.69333333 73.23666667 -1.70666667 72.77 -2.94 L 72.77 -2.94 L 69.25 -12.1 L 69.25 -12.1 C 66.85666667 -11.03333333 65.66 -8.55666667 65.66 -4.67 L 65.66 -4.67 L 65.66 -4.67 C 65.66 -2.87666667 65.94 -1.25666667 66.5 0.19 Z M 94.46 -6.4 L 94.46 -6.4 L 94.46 -6.4 C 94.46 -7.55333333 94.76 -9.58 95.36 -12.48 L 95.36 -12.48 L 98.75 -29.76 L 94.98 -29.76 L 95.23 -31.68 L 95.23 -31.68 C 100.35 -33.21333333 105.38666667 -35.86 110.34 -39.62 L 110.34 -39.62 L 113.41 -39.62 L 111.87 -32.64 L 116.86 -32.64 L 116.29 -29.76 L 111.36 -29.76 L 108.1 -12.48 L 108.1 -12.48 C 107.54 -9.83333333 107.26 -8.06333333 107.26 -7.17 L 107.26 -7.17 L 107.26 -7.17 C 107.26 -5.12333333 108.15666667 -3.88666667 109.95 -3.46 L 109.95 -3.46 L 109.95 -3.46 C 109.52333333 -2.00666667 108.54333333 -0.85333333 107.01 0 L 107.01 0 L 107.01 0 C 105.47 0.85333333 103.61333333 1.28 101.44 1.28 L 101.44 1.28 L 101.44 1.28 C 99.26666667 1.28 97.56 0.59666667 96.32 -0.77 L 96.32 -0.77 L 96.32 -0.77 C 95.08 -2.13666667 94.46 -4.01333333 94.46 -6.4 Z M 161.15 -26.62 L 161.15 -26.62 L 161.15 -26.62 C 161.15 -24.83333333 160.40333333 -23.38333333 158.91 -22.27 L 158.91 -22.27 L 158.91 -22.27 C 157.41666667 -21.16333333 155.45333333 -20.61 153.02 -20.61 L 153.02 -20.61 L 153.02 -20.61 C 152 -20.61 151.19 -20.76 150.59 -21.06 L 150.59 -21.06 L 150.59 -21.06 C 151.06333333 -22.16666667 151.37333333 -23.41333333 151.52 -24.8 L 151.52 -24.8 L 151.52 -24.8 C 151.66666667 -26.18666667 151.74 -27.07333333 151.74 -27.46 L 151.74 -27.46 L 151.74 -27.46 C 151.74 -29.24666667 151.12333333 -30.14 149.89 -30.14 L 149.89 -30.14 L 149.89 -30.14 C 149.03666667 -30.14 148.13 -29.60666667 147.17 -28.54 L 147.17 -28.54 L 147.17 -28.54 C 146.21 -27.47333333 145.32333333 -26.11 144.51 -24.45 L 144.51 -24.45 L 144.51 -24.45 C 142.71666667 -20.61 141.82 -16.74666667 141.82 -12.86 L 141.82 -12.86 L 141.82 -12.86 C 141.82 -10.72666667 142.22666667 -9.18 143.04 -8.22 L 143.04 -8.22 L 143.04 -8.22 C 143.85333333 -7.26 145.15333333 -6.78 146.94 -6.78 L 146.94 -6.78 L 146.94 -6.78 C 149.42 -6.78 151.64 -7.80666667 153.6 -9.86 L 153.6 -9.86 L 153.6 -9.86 C 154.15333333 -10.5 154.58 -11.18 154.88 -11.9 L 154.88 -11.9 L 154.88 -11.9 C 156.5 -11.04666667 157.31 -9.44666667 157.31 -7.1 L 157.31 -7.1 L 157.31 -7.1 C 157.31 -4.71333333 155.98666667 -2.73 153.34 -1.15 L 153.34 -1.15 L 153.34 -1.15 C 150.61333333 0.47 147.07333333 1.28 142.72 1.28 L 142.72 1.28 L 142.72 1.28 C 134.06 1.28 129.73 -3.30666667 129.73 -12.48 L 129.73 -12.48 L 129.73 -12.48 C 129.73 -19.18 131.62666667 -24.45 135.42 -28.29 L 135.42 -28.29 L 135.42 -28.29 C 139.09333333 -32.04333333 144.3 -33.92 151.04 -33.92 L 151.04 -33.92 L 151.04 -33.92 C 157.78 -33.92 161.15 -31.48666667 161.15 -26.62 Z M 176.83 1.28 L 176.83 1.28 L 176.83 1.28 C 167.44333333 1.28 162.75 -3.13666667 162.75 -11.97 L 162.75 -11.97 L 162.75 -11.97 C 162.75 -18.24333333 164.48 -23.40666667 167.94 -27.46 L 167.94 -27.46 L 167.94 -27.46 C 171.60666667 -31.76666667 176.62 -33.92 182.98 -33.92 L 182.98 -33.92 L 182.98 -33.92 C 187.58666667 -33.92 191.06333333 -32.85333333 193.41 -30.72 L 193.41 -30.72 L 193.41 -30.72 C 195.75666667 -28.58666667 196.93 -25.28 196.93 -20.8 L 196.93 -20.8 L 196.93 -20.8 C 196.93 -13.97333333 195.09333333 -8.57666667 191.42 -4.61 L 191.42 -4.61 L 191.42 -4.61 C 187.84 -0.68333333 182.97666667 1.28 176.83 1.28 Z M 178.5 -26.56 L 178.5 -26.56 L 178.5 -26.56 C 177.98666667 -25.40666667 177.52666667 -23.96666667 177.12 -22.24 L 177.12 -22.24 L 177.12 -22.24 C 176.71333333 -20.51333333 176.25333333 -18.28333333 175.74 -15.55 L 175.74 -15.55 L 175.74 -15.55 C 175.23333333 -12.82333333 174.98 -9.77333333 174.98 -6.4 L 174.98 -6.4 L 174.98 -6.4 C 174.98 -5.29333333 175.16 -4.37666667 175.52 -3.65 L 175.52 -3.65 L 175.52 -3.65 C 175.88 -2.92333333 176.55333333 -2.56 177.54 -2.56 L 177.54 -2.56 L 177.54 -2.56 C 178.52 -2.56 179.32 -2.79333333 179.94 -3.26 L 179.94 -3.26 L 179.94 -3.26 C 180.55333333 -3.73333333 181.09666667 -4.52333333 181.57 -5.63 L 181.57 -5.63 L 181.57 -5.63 C 182.42333333 -7.59666667 183.19 -10.40333333 183.87 -14.05 L 183.87 -14.05 L 183.87 -14.05 C 184.55666667 -17.69666667 184.93 -20.31 184.99 -21.89 L 184.99 -21.89 L 184.99 -21.89 C 185.05666667 -23.47 185.09 -24.84666667 185.09 -26.02 L 185.09 -26.02 L 185.09 -26.02 C 185.09 -27.19333333 184.92 -28.16333333 184.58 -28.93 L 184.58 -28.93 L 184.58 -28.93 C 184.23333333 -29.69666667 183.58 -30.08 182.62 -30.08 L 182.62 -30.08 L 182.62 -30.08 C 181.66 -30.08 180.86 -29.78 180.22 -29.18 L 180.22 -29.18 L 180.22 -29.18 C 179.58 -28.58666667 179.00666667 -27.71333333 178.5 -26.56 Z M 214.66 1.28 L 214.66 1.28 L 214.66 1.28 C 205.27333333 1.28 200.58 -3.13666667 200.58 -11.97 L 200.58 -11.97 L 200.58 -11.97 C 200.58 -18.24333333 202.30666667 -23.40666667 205.76 -27.46 L 205.76 -27.46 L 205.76 -27.46 C 209.42666667 -31.76666667 214.44 -33.92 220.8 -33.92 L 220.8 -33.92 L 220.8 -33.92 C 225.40666667 -33.92 228.88333333 -32.85333333 231.23 -30.72 L 231.23 -30.72 L 231.23 -30.72 C 233.57666667 -28.58666667 234.75 -25.28 234.75 -20.8 L 234.75 -20.8 L 234.75 -20.8 C 234.75 -13.97333333 232.91666667 -8.57666667 229.25 -4.61 L 229.25 -4.61 L 229.25 -4.61 C 225.66333333 -0.68333333 220.8 1.28 214.66 1.28 Z M 216.32 -26.56 L 216.32 -26.56 L 216.32 -26.56 C 215.80666667 -25.40666667 215.34666667 -23.96666667 214.94 -22.24 L 214.94 -22.24 L 214.94 -22.24 C 214.54 -20.51333333 214.08333333 -18.28333333 213.57 -15.55 L 213.57 -15.55 L 213.57 -15.55 C 213.05666667 -12.82333333 212.8 -9.77333333 212.8 -6.4 L 212.8 -6.4 L 212.8 -6.4 C 212.8 -5.29333333 212.98 -4.37666667 213.34 -3.65 L 213.34 -3.65 L 213.34 -3.65 C 213.70666667 -2.92333333 214.38 -2.56 215.36 -2.56 L 215.36 -2.56 L 215.36 -2.56 C 216.34 -2.56 217.14 -2.79333333 217.76 -3.26 L 217.76 -3.26 L 217.76 -3.26 C 218.38 -3.73333333 218.92333333 -4.52333333 219.39 -5.63 L 219.39 -5.63 L 219.39 -5.63 C 220.24333333 -7.59666667 221.01333333 -10.40333333 221.7 -14.05 L 221.7 -14.05 L 221.7 -14.05 C 222.38 -17.69666667 222.75333333 -20.31 222.82 -21.89 L 222.82 -21.89 L 222.82 -21.89 C 222.88 -23.47 222.91 -24.84666667 222.91 -26.02 L 222.91 -26.02 L 222.91 -26.02 C 222.91 -27.19333333 222.74 -28.16333333 222.4 -28.93 L 222.4 -28.93 L 222.4 -28.93 C 222.06 -29.69666667 221.41 -30.08 220.45 -30.08 L 220.45 -30.08 L 220.45 -30.08 C 219.49 -30.08 218.69 -29.78 218.05 -29.18 L 218.05 -29.18 L 218.05 -29.18 C 217.41 -28.58666667 216.83333333 -27.71333333 216.32 -26.56 Z M 253.82 -3.52 L 253.82 -3.52 L 253.82 -3.52 C 252.5 -0.32 249.72666667 1.28 245.5 1.28 L 245.5 1.28 L 245.5 1.28 C 243.36666667 1.28 241.62 0.53333333 240.26 -0.96 L 240.26 -0.96 L 240.26 -0.96 C 239.14666667 -2.2 238.59 -3.52333333 238.59 -4.93 L 238.59 -4.93 L 238.59 -4.93 C 238.59 -8.13 239.33666667 -13.22666667 240.83 -20.22 L 240.83 -20.22 L 245.5 -44.8 L 258.5 -46.08 L 252.29 -13.7 L 252.29 -13.7 C 251.56333333 -10.54 251.2 -8.40666667 251.2 -7.3 L 251.2 -7.3 L 251.2 -7.3 C 251.2 -4.86666667 252.07333333 -3.60666667 253.82 -3.52 Z" fill="#ffd5af" stroke="none"/>
</g>
</g>
<g><rect fill="none" height="47.36" stroke="red" width="256.39" x="122.27473460197449" y="52.59999267578125"/><text fill="red" font-size="7px" x="127.27473460197449" y="62.59999267578125">object_1</text></g></svg>