<?xml version="1.0" encoding="utf-8"?>
<svg height="1080" viewBox="0 0 810 809.999993" width="1080" xmlns="http://www.w3.org/2000/svg">
 <defs>
  <clipPath id="7604a88896">
   <path d="M 21.75 24.457031 L 788.25 24.457031 L 788.25 790.957031 L 21.75 790.957031 Z M 21.75 24.457031" fill="#000000" stroke="none"/>
  </clipPath>
  <clipPath id="8d9aa164fd">
   <path d="M 446 573 L 810 573 L 810 810 L 446 810 Z M 446 573" fill="#000000" stroke="none"/>
  </clipPath>
  <clipPath id="4a5e5f5129">
   <path d="M 977 737.140625 L 631.332031 1052.636719 L 415.945312 816.652344 L 761.613281 501.15625 Z M 977 737.140625" fill="#000000" stroke="none"/>
  </clipPath>
  <clipPath id="94e6933b91">
   <path d="M 977 737.140625 L 631.332031 1052.636719 L 415.945312 816.652344 L 761.613281 501.15625 Z M 977 737.140625" fill="#000000" stroke="none"/>
  </clipPath>
  <clipPath id="525fdae6b2">
   <path d="M 0 0 L 430 0 L 430 301 L 0 301 Z M 0 0" fill="#000000" stroke="none"/>
  </clipPath>
  <clipPath id="21dbe80016">
   <path d="M -217.546875 92.765625 L 219.257812 -268.746094 L 465.527344 28.8125 L 28.722656 390.324219 Z M -217.546875 92.765625" fill="#000000" stroke="none"/>
  </clipPath>
  <clipPath id="d292085ede">
   <path d="M -217.546875 92.765625 L 219.257812 -268.746094 L 465.527344 28.8125 L 28.722656 390.324219 Z M -217.546875 92.765625" fill="#000000" stroke="none"/>
  </clipPath>
 </defs>
 <path d="M -81 -80.999999 L 891 -80.999999 L 891 890.999993 L -81 890.999993 Z" fill="#ffffff" stroke="none"/>
 <path d="M -81 -80.999999 L 891 -80.999999 L 891 890.999993 L -81 890.999993 Z" fill="#ffffff" stroke="none"/>
 <g clip-path="url(#8d9aa164fd)" id="object_6">
  <g clip-path="url(#4a5e5f5129)" id="object_7">
   <g clip-path="url(#94e6933b91)" id="object_8">
    <path d="M 712.75 660.578125 C 727.179688 646.808594 740.414062 631.730469 752.585938 615.820312 C 759.914062 606.433594 766.945312 596.71875 776.527344 589.46875 C 782.539062 584.882812 788.851562 580.625 795.445312 577.003906 C 811.6875 568.179688 829.6875 575.742188 838.835938 588.394531 C 850.042969 603.960938 853.488281 621.210938 851.695312 639.945312 C 850.917969 646.65625 850.140625 653.363281 848.589844 659.878906 C 843.703125 684.433594 840.222656 709.207031 838.304688 734.054688 C 836.550781 751.851562 834.648438 769.488281 829.941406 786.679688 C 826.019531 800.457031 820.101562 813.359375 814.179688 826.261719 C 805.753906 845.949219 796.417969 864.972656 786.15625 883.632812 C 776.636719 899.824219 765.742188 915.164062 753.640625 929.511719 C 743.679688 941.601562 733.730469 953.378906 723.621094 965.308594 C 715.148438 975.742188 705.179688 984.539062 694.019531 992.027344 C 691.117188 993.777344 687.480469 994.394531 684.726562 996.308594 C 673.371094 1004.570312 661.300781 1011.390625 649.375 1018.375 C 648.410156 1018.957031 647.128906 1019.527344 646.160156 1020.109375 C 632.851562 1026.558594 616.953125 1020.972656 610.652344 1007.824219 C 610.519531 1007.347656 610.21875 1007.019531 610.082031 1006.542969 C 607.0625 1000.605469 606.585938 993.839844 608.453125 987.339844 C 610.65625 980.226562 613.640625 973.304688 616.472656 966.21875 C 619.660156 958.210938 623.160156 950.214844 626.351562 942.207031 C 627.269531 939.269531 628.035156 936.167969 628.328125 933.203125 C 629.425781 922.902344 625.402344 914.875 617.863281 908.257812 C 607.023438 898.355469 593.03125 892.230469 578.335938 891.246094 C 562.863281 890.066406 547.363281 889.515625 531.894531 888.339844 C 519.699219 887.472656 507.523438 886.289062 495.386719 884.164062 C 483.089844 882.191406 471.601562 876.179688 462.925781 867.003906 C 450.023438 854.183594 444.429688 835.890625 447.761719 817.851562 C 450.339844 802.601562 457.539062 789.128906 466.726562 776.847656 C 481.234375 757.90625 500.761719 745.78125 522.203125 736.410156 C 537.867188 729.910156 554.074219 725.320312 570.667969 722.46875 C 595.652344 717.964844 619.527344 710.269531 643.550781 702.742188 C 668.691406 694.792969 690.347656 680.726562 709.667969 662.792969 Z M 479.800781 765.210938 C 464.910156 778.804688 453.191406 798.5 449.679688 817 C 446.171875 835.5 451.226562 851.882812 463.769531 865.628906 C 470.507812 872.679688 479.054688 877.773438 488.480469 880.871094 C 498.992188 884.171875 509.890625 885.925781 521.007812 886.277344 C 538.835938 887.402344 556.675781 888.21875 574.652344 889.507812 C 591.0625 890.726562 605.898438 895.480469 618.394531 906.871094 C 628.636719 916.121094 632.382812 926.800781 628.804688 939.964844 C 628.019531 943.378906 626.777344 946.617188 625.53125 949.851562 C 622.355469 957.550781 618.554688 965.21875 615.382812 972.914062 C 612.921875 978.761719 610.921875 984.785156 609.546875 990.839844 C 607.566406 999.84375 610.503906 1007.660156 616.953125 1014.070312 C 625.195312 1022.445312 635.304688 1024.320312 645.59375 1018.828125 C 653.945312 1014.503906 662.160156 1009.707031 670.226562 1004.742188 C 676.523438 1000.792969 682.523438 996.519531 688.667969 992.410156 C 690.765625 991.09375 693.433594 991.058594 695.382812 989.582031 C 705.429688 982.511719 714.59375 974.148438 722.398438 964.625 C 732.507812 952.695312 742.621094 940.769531 752.417969 928.828125 C 763.6875 915.542969 773.910156 901.109375 783.0625 886.160156 C 794.320312 866.285156 804.664062 845.746094 813.3125 824.65625 C 818.578125 812.347656 824.007812 799.894531 828.035156 787.21875 C 833.472656 771.15625 834.855469 754.597656 836.554688 738.050781 C 838.90625 714.007812 841.09375 690.117188 845.933594 666.5 C 847.75 657.644531 849.253906 648.773438 850.292969 639.726562 C 852.074219 621.300781 848.464844 604.199219 837.390625 589.113281 C 828.394531 576.625 812.46875 571.664062 798.886719 577.160156 C 795.375 578.570312 792.15625 580.304688 788.929688 582.351562 C 775.695312 590.53125 765.300781 601.816406 755.953125 614.25 C 743.09375 631.382812 728.878906 647.359375 713.617188 662.1875 C 694.605469 680.136719 673.550781 694.859375 648.394531 703.121094 C 629.925781 709.179688 611.011719 714.746094 592.273438 719.847656 C 577.824219 723.738281 562.984375 725.882812 548.390625 729.605469 C 522.859375 735.8125 499.410156 747.914062 479.800781 765.210938 Z M 479.800781 765.210938" fill="#bd8334" stroke="none"/>
   </g>
  </g>
 </g>
 <g clip-path="url(#525fdae6b2)" id="object_10">
  <g clip-path="url(#21dbe80016)" id="object_11">
   <g clip-path="url(#d292085ede)" id="object_12">
    <path d="M 97.5625 200.859375 C 79.304688 216.667969 62.414062 234.128906 46.757812 252.65625 C 37.34375 263.582031 28.273438 274.921875 16.257812 283.125 C 8.71875 288.320312 0.835938 293.101562 -7.351562 297.089844 C -27.511719 306.8125 -48.839844 296.609375 -59.160156 280.773438 C -71.804688 261.289062 -74.960938 240.222656 -71.691406 217.667969 C -70.359375 209.601562 -69.027344 201.535156 -66.765625 193.746094 C -59.421875 164.335938 -53.753906 134.574219 -49.980469 104.636719 C -46.816406 83.214844 -43.480469 62 -36.78125 41.480469 C -31.230469 25.046875 -23.3125 9.789062 -15.398438 -5.46875 C -4.050781 -28.785156 8.355469 -51.242188 21.859375 -73.214844 C 34.324219 -92.234375 48.398438 -110.148438 63.875 -126.789062 C 76.632812 -140.832031 89.351562 -154.492188 102.277344 -168.324219 C 113.140625 -180.445312 125.710938 -190.503906 139.648438 -198.90625 C 143.261719 -200.851562 147.695312 -201.386719 151.136719 -203.539062 C 165.355469 -212.867188 180.355469 -220.40625 195.183594 -228.152344 C 196.390625 -228.800781 197.972656 -229.414062 199.175781 -230.0625 C 215.652344 -237.082031 234.550781 -229.394531 241.398438 -213.125 C 241.535156 -212.539062 241.878906 -212.128906 242.011719 -211.542969 C 245.320312 -204.179688 245.5 -195.972656 242.863281 -188.21875 C 239.777344 -179.746094 235.765625 -171.550781 231.921875 -163.148438 C 227.597656 -153.648438 222.894531 -144.183594 218.570312 -134.683594 C 217.285156 -131.183594 216.175781 -127.476562 215.648438 -123.90625 C 213.714844 -111.515625 218.113281 -101.574219 226.84375 -93.128906 C 239.371094 -80.515625 255.933594 -72.285156 273.652344 -70.234375 C 292.292969 -67.902344 311.007812 -66.328125 329.648438 -64 C 344.34375 -62.230469 359.003906 -60.085938 373.554688 -56.808594 C 388.316406 -53.703125 401.855469 -45.757812 411.8125 -34.148438 C 426.664062 -17.886719 432.359375 4.5625 427.269531 26.183594 C 423.257812 44.476562 413.757812 60.347656 401.929688 74.667969 C 383.273438 96.722656 358.945312 110.242188 332.460938 120.320312 C 313.136719 127.261719 293.265625 131.867188 273.027344 134.339844 C 242.546875 138.324219 213.222656 146.226562 183.726562 153.925781 C 152.855469 162.0625 125.839844 177.804688 101.417969 198.367188 Z M 385.433594 87.972656 C 404.238281 72.40625 419.566406 49.273438 424.898438 27.105469 C 430.226562 4.933594 425.074219 -15.175781 410.707031 -32.539062 C 402.976562 -41.460938 392.933594 -48.121094 381.714844 -52.417969 C 369.195312 -57.03125 356.117188 -59.789062 342.691406 -60.863281 C 321.199219 -63.273438 299.667969 -65.300781 278.003906 -67.917969 C 258.230469 -70.355469 240.5625 -76.972656 226.117188 -91.484375 C 214.273438 -103.269531 210.367188 -116.402344 215.46875 -132.117188 C 216.617188 -136.203125 218.3125 -140.042969 220.007812 -143.882812 C 224.296875 -153.003906 229.34375 -162.054688 233.632812 -171.179688 C 236.953125 -178.105469 239.726562 -185.273438 241.742188 -192.515625 C 244.664062 -203.289062 241.570312 -212.917969 234.144531 -221.050781 C 224.667969 -231.660156 212.550781 -234.519531 199.789062 -228.480469 C 189.433594 -223.742188 179.214844 -218.417969 169.167969 -212.886719 C 161.320312 -208.484375 153.816406 -203.664062 146.140625 -199.054688 C 143.527344 -197.585938 140.296875 -197.699219 137.851562 -196.027344 C 125.289062 -188.066406 113.714844 -178.488281 103.71875 -167.425781 C 90.792969 -153.59375 77.863281 -139.761719 65.316406 -125.894531 C 50.90625 -110.484375 37.695312 -93.632812 25.75 -76.085938 C 10.96875 -52.710938 -2.746094 -28.472656 -14.441406 -3.472656 C -21.53125 11.101562 -28.828125 25.84375 -34.445312 40.9375 C -41.960938 60.046875 -44.605469 79.992188 -47.628906 99.902344 C -51.882812 128.84375 -55.929688 157.613281 -63.167969 185.890625 C -65.882812 196.496094 -68.21875 207.136719 -70.007812 218.019531 C -73.242188 240.195312 -69.878906 261.089844 -57.371094 279.988281 C -47.222656 295.617188 -28.253906 302.550781 -11.507812 296.699219 C -7.171875 295.203125 -3.183594 293.292969 0.84375 291.003906 C 17.328125 281.890625 30.5625 268.847656 42.597656 254.359375 C 59.152344 234.390625 77.28125 215.90625 96.605469 198.867188 C 120.652344 178.269531 146.984375 161.699219 177.890625 153.183594 C 200.582031 146.941406 223.785156 141.316406 246.746094 136.242188 C 264.449219 132.386719 282.519531 130.660156 300.394531 127.011719 C 331.636719 121.003906 360.703125 107.742188 385.433594 87.972656 Z M 385.433594 87.972656" fill="#bd8334" stroke="none"/>
   </g>
  </g>
 </g>
 <text color="green" x="276.0" y="395.9999965777778">
  NEW
 </text>
 <text color="green" x="533.625" y="395.9999965777778">
  POST
 </text>
 <text color="green" x="379.5" y="463.8749959912037">
  swipe
 </text>
 <text color="green" x="499.875" y="460.87499601712966">
  up
 </text>
</svg>
