<?xml version="1.0" encoding="utf-8"?>
<svg height="1080" viewBox="0 0 810 809.999993" width="1080" xmlns="http://www.w3.org/2000/svg">
 <defs/>
 <path d="M -81 -80.999999 L 891 -80.999999 L 891 890.999993 L -81 890.999993 Z" fill="#ffffff" stroke="none"/>
 <path d="M -81 -80.999999 L 891 -80.999999 L 891 890.999993 L -81 890.999993 Z" fill="#f6f0ef" stroke="none"/>
 <g id="object_164">
  <g id="object_165" transform="matrix(1 0 0 1 606.082461 695.172465)">
   <g id="object_166">
    <path d="M 4.734375 0 C 4.015625 0 3.457031 -0.09375 3.0625 -0.28125 C 2.664062 -0.476562 2.390625 -0.769531 2.234375 -1.15625 C 2.085938 -1.550781 2.015625 -2.046875 2.015625 -2.640625 L 2.015625 -7.609375 L 0.3125 -7.609375 L 0.3125 -8.546875 L 2.171875 -9.203125 L 2.921875 -11.03125 L 3.8125 -11.03125 L 3.8125 -9 L 6.703125 -9 L 6.703125 -7.609375 L 3.8125 -7.609375 L 3.8125 -1.4375 L 6.515625 -1.4375 L 6.515625 0 Z M 4.734375 0" fill="#31356e" stroke="none"/>
   </g>
  </g>
 </g>
 <g id="object_168">
  <g id="object_169" transform="matrix(1 0 0 1 614.758456 695.172465)">
   <g id="object_170">
    <path d="M 5.46875 0.28125 C 4.425781 0.28125 3.5625 0.0664062 2.875 -0.359375 C 2.1875 -0.796875 1.671875 -1.375 1.328125 -2.09375 C 0.992188 -2.820312 0.828125 -3.628906 0.828125 -4.515625 C 0.828125 -5.390625 0.992188 -6.1875 1.328125 -6.90625 C 1.671875 -7.625 2.1875 -8.195312 2.875 -8.625 C 3.5625 -9.0625 4.425781 -9.28125 5.46875 -9.28125 C 6.507812 -9.28125 7.375 -9.0625 8.0625 -8.625 C 8.75 -8.195312 9.257812 -7.625 9.59375 -6.90625 C 9.9375 -6.1875 10.109375 -5.390625 10.109375 -4.515625 C 10.109375 -3.640625 9.9375 -2.835938 9.59375 -2.109375 C 9.257812 -1.378906 8.75 -0.796875 8.0625 -0.359375 C 7.375 0.0664062 6.507812 0.28125 5.46875 0.28125 Z M 2.640625 -4.5 C 2.640625 -3.300781 2.867188 -2.441406 3.328125 -1.921875 C 3.785156 -1.410156 4.5 -1.15625 5.46875 -1.15625 C 6.445312 -1.15625 7.160156 -1.410156 7.609375 -1.921875 C 8.066406 -2.441406 8.296875 -3.300781 8.296875 -4.5 C 8.296875 -5.695312 8.066406 -6.550781 7.609375 -7.0625 C 7.160156 -7.582031 6.445312 -7.84375 5.46875 -7.84375 C 4.5 -7.84375 3.785156 -7.582031 3.328125 -7.0625 C 2.867188 -6.550781 2.640625 -5.695312 2.640625 -4.5 Z M 2.640625 -4.5" fill="#31356e" stroke="none"/>
   </g>
  </g>
 </g>
 <path d="M 428.878906 223.800781 C 432.742188 223.800781 436.601562 223.925781 440.457031 224.179688 C 444.308594 224.429688 448.152344 224.808594 451.984375 225.3125 C 455.8125 225.816406 459.621094 226.445312 463.410156 227.199219 C 467.199219 227.953125 470.960938 228.832031 474.691406 229.832031 C 478.425781 230.832031 482.117188 231.953125 485.777344 233.195312 C 489.433594 234.433594 493.050781 235.796875 496.617188 237.273438 C 500.1875 238.753906 503.703125 240.34375 507.167969 242.054688 C 510.632812 243.761719 514.039062 245.582031 517.382812 247.515625 C 520.730469 249.445312 524.007812 251.484375 527.222656 253.632812 C 530.433594 255.777344 533.570312 258.027344 536.636719 260.378906 C 539.703125 262.730469 542.6875 265.179688 545.589844 267.726562 C 548.496094 270.273438 551.3125 272.914062 554.046875 275.644531 C 556.777344 278.375 559.417969 281.195312 561.964844 284.097656 C 564.511719 287.003906 566.960938 289.988281 569.3125 293.054688 C 571.664062 296.117188 573.914062 299.257812 576.058594 302.46875 C 578.207031 305.679688 580.246094 308.960938 582.175781 312.304688 C 584.109375 315.652344 585.925781 319.054688 587.636719 322.519531 C 589.34375 325.984375 590.9375 329.503906 592.417969 333.074219 C 593.894531 336.640625 595.253906 340.253906 596.496094 343.914062 C 597.738281 347.570312 598.859375 351.265625 599.859375 354.996094 C 600.859375 358.730469 601.734375 362.488281 602.488281 366.277344 C 603.242188 370.066406 603.871094 373.878906 604.375 377.707031 C 604.882812 381.539062 605.257812 385.378906 605.511719 389.234375 C 605.765625 393.089844 605.890625 396.949219 605.890625 400.8125 C 605.890625 404.675781 605.765625 408.535156 605.511719 412.390625 C 605.257812 416.246094 604.882812 420.085938 604.375 423.917969 C 603.871094 427.746094 603.242188 431.558594 602.488281 435.34375 C 601.734375 439.132812 600.859375 442.894531 599.859375 446.625 C 598.859375 450.359375 597.738281 454.054688 596.496094 457.710938 C 595.253906 461.371094 593.894531 464.984375 592.417969 468.550781 C 590.9375 472.121094 589.34375 475.636719 587.636719 479.101562 C 585.925781 482.566406 584.109375 485.972656 582.175781 489.320312 L 505.527344 445.066406 C 506.492188 443.390625 507.402344 441.691406 508.257812 439.957031 C 509.113281 438.226562 509.910156 436.464844 510.648438 434.683594 C 511.386719 432.898438 512.066406 431.089844 512.6875 429.261719 C 513.308594 427.433594 513.867188 425.585938 514.367188 423.71875 C 514.867188 421.855469 515.308594 419.972656 515.683594 418.078125 C 516.0625 416.183594 516.375 414.28125 516.628906 412.363281 C 516.878906 410.449219 517.070312 408.527344 517.195312 406.601562 C 517.320312 404.671875 517.382812 402.742188 517.382812 400.8125 C 517.382812 398.878906 517.320312 396.949219 517.195312 395.023438 C 517.070312 393.097656 516.878906 391.175781 516.628906 389.257812 C 516.375 387.34375 516.0625 385.441406 515.683594 383.546875 C 515.308594 381.652344 514.867188 379.769531 514.367188 377.90625 C 513.867188 376.039062 513.308594 374.191406 512.6875 372.363281 C 512.066406 370.535156 511.386719 368.726562 510.648438 366.941406 C 509.910156 365.15625 509.113281 363.398438 508.257812 361.667969 C 507.402344 359.933594 506.492188 358.230469 505.527344 356.558594 C 504.5625 354.886719 503.542969 353.246094 502.46875 351.640625 C 501.394531 350.035156 500.269531 348.464844 499.09375 346.933594 C 497.917969 345.402344 496.695312 343.90625 495.421875 342.457031 C 494.148438 341.003906 492.828125 339.59375 491.460938 338.230469 C 490.097656 336.863281 488.6875 335.542969 487.234375 334.269531 C 485.78125 332.996094 484.289062 331.769531 482.757812 330.59375 C 481.226562 329.417969 479.65625 328.292969 478.050781 327.222656 C 476.445312 326.148438 474.804688 325.128906 473.132812 324.164062 C 471.457031 323.199219 469.757812 322.289062 468.023438 321.433594 C 466.292969 320.578125 464.53125 319.78125 462.75 319.042969 C 460.964844 318.304688 459.15625 317.625 457.328125 317.003906 C 455.5 316.382812 453.652344 315.820312 451.785156 315.320312 C 449.917969 314.820312 448.039062 314.382812 446.144531 314.007812 C 444.25 313.628906 442.347656 313.316406 440.429688 313.0625 C 438.515625 312.8125 436.59375 312.621094 434.667969 312.496094 C 432.738281 312.367188 430.808594 312.304688 428.878906 312.304688 Z M 428.878906 223.800781" fill="#79a7c8" stroke="none"/>
 <path d="M 582.175781 489.320312 C 580.246094 492.664062 578.207031 495.941406 576.058594 499.15625 C 573.914062 502.367188 571.664062 505.503906 569.3125 508.570312 C 566.960938 511.636719 564.511719 514.621094 561.964844 517.523438 C 559.417969 520.429688 556.777344 523.246094 554.046875 525.980469 C 551.3125 528.710938 548.496094 531.351562 545.589844 533.898438 C 542.6875 536.445312 539.703125 538.894531 536.636719 541.246094 C 533.570312 543.597656 530.433594 545.847656 527.222656 547.992188 C 524.007812 550.140625 520.730469 552.179688 517.382812 554.109375 C 514.039062 556.042969 510.632812 557.863281 507.167969 559.570312 C 503.703125 561.277344 500.1875 562.871094 496.617188 564.351562 C 493.050781 565.828125 489.433594 567.1875 485.777344 568.429688 C 482.117188 569.671875 478.425781 570.792969 474.691406 571.792969 C 470.960938 572.792969 467.199219 573.671875 463.410156 574.421875 C 459.621094 575.175781 455.8125 575.804688 451.984375 576.3125 C 448.152344 576.816406 444.308594 577.191406 440.457031 577.445312 C 436.601562 577.699219 432.742188 577.824219 428.878906 577.824219 L 428.878906 489.320312 C 432.746094 489.320312 436.597656 489.066406 440.429688 488.5625 C 444.265625 488.054688 448.050781 487.304688 451.785156 486.304688 C 455.519531 485.300781 459.175781 484.0625 462.75 482.582031 C 466.320312 481.101562 469.78125 479.394531 473.132812 477.460938 C 476.480469 475.527344 479.6875 473.382812 482.757812 471.027344 C 485.824219 468.675781 488.726562 466.128906 491.460938 463.394531 C 494.195312 460.660156 496.742188 457.757812 499.09375 454.691406 C 501.449219 451.625 503.59375 448.414062 505.527344 445.066406 Z M 582.175781 489.320312" fill="#667ba3" stroke="none"/>
 <path d="M 428.878906 577.824219 C 421.144531 577.824219 413.441406 577.320312 405.773438 576.3125 C 398.105469 575.300781 390.535156 573.796875 383.0625 571.792969 C 375.59375 569.792969 368.285156 567.3125 361.136719 564.351562 C 353.992188 561.390625 347.070312 557.976562 340.371094 554.109375 L 384.625 477.460938 C 391.351562 481.34375 398.46875 484.292969 405.972656 486.304688 C 413.472656 488.3125 421.109375 489.320312 428.878906 489.320312 Z M 428.878906 577.824219" fill="#555179" stroke="none"/>
 <path d="M 340.371094 554.109375 C 337.027344 552.179688 333.746094 550.140625 330.535156 547.992188 C 327.324219 545.847656 324.183594 543.597656 321.121094 541.246094 C 318.054688 538.894531 315.070312 536.445312 312.164062 533.898438 C 309.261719 531.351562 306.441406 528.710938 303.710938 525.980469 C 300.980469 523.246094 298.339844 520.429688 295.792969 517.523438 C 293.246094 514.621094 290.796875 511.636719 288.445312 508.570312 C 286.09375 505.507812 283.84375 502.367188 281.699219 499.15625 C 279.550781 495.941406 277.511719 492.664062 275.582031 489.320312 C 273.648438 485.972656 271.828125 482.566406 270.121094 479.101562 C 268.410156 475.636719 266.816406 472.121094 265.339844 468.550781 C 263.863281 464.984375 262.5 461.371094 261.257812 457.710938 C 260.019531 454.054688 258.898438 450.359375 257.898438 446.625 C 256.898438 442.894531 256.019531 439.132812 255.265625 435.34375 C 254.511719 431.558594 253.882812 427.746094 253.378906 423.917969 C 252.875 420.085938 252.496094 416.246094 252.246094 412.390625 C 251.992188 408.535156 251.867188 404.675781 251.867188 400.8125 L 340.371094 400.8125 C 340.371094 404.679688 340.625 408.53125 341.128906 412.363281 C 341.632812 416.199219 342.386719 419.984375 343.386719 423.71875 C 344.386719 427.453125 345.628906 431.109375 347.109375 434.683594 C 348.589844 438.253906 350.296875 441.714844 352.230469 445.066406 C 354.164062 448.414062 356.308594 451.625 358.660156 454.691406 C 361.015625 457.757812 363.558594 460.660156 366.292969 463.394531 C 369.03125 466.128906 371.929688 468.675781 375 471.027344 C 378.066406 473.382812 381.277344 475.527344 384.625 477.460938 Z M 340.371094 554.109375" fill="#422a4d" stroke="none"/>
 <path d="M 251.867188 400.8125 C 251.867188 397.914062 251.9375 395.019531 252.078125 392.128906 C 252.222656 389.234375 252.433594 386.347656 252.71875 383.464844 C 253 380.582031 253.355469 377.707031 253.78125 374.839844 C 254.207031 371.976562 254.703125 369.121094 255.265625 366.28125 C 255.832031 363.441406 256.464844 360.613281 257.167969 357.804688 C 257.875 354.996094 258.644531 352.203125 259.488281 349.429688 C 260.328125 346.660156 261.234375 343.910156 262.210938 341.183594 C 263.1875 338.453125 264.230469 335.753906 265.339844 333.078125 C 266.445312 330.398438 267.621094 327.753906 268.859375 325.132812 C 270.097656 322.515625 271.398438 319.929688 272.765625 317.375 C 274.128906 314.820312 275.558594 312.300781 277.046875 309.816406 C 278.535156 307.328125 280.085938 304.882812 281.695312 302.476562 C 283.304688 300.066406 284.96875 297.699219 286.695312 295.371094 C 288.421875 293.042969 290.203125 290.761719 292.039062 288.523438 C 293.878906 286.28125 295.769531 284.089844 297.714844 281.945312 C 299.660156 279.796875 301.65625 277.699219 303.703125 275.652344 C 305.753906 273.601562 307.851562 271.605469 309.996094 269.660156 C 312.144531 267.714844 314.335938 265.824219 316.574219 263.984375 C 318.8125 262.148438 321.097656 260.367188 323.421875 258.640625 C 325.75 256.914062 328.117188 255.246094 330.527344 253.636719 C 332.933594 252.027344 335.382812 250.480469 337.867188 248.988281 C 340.351562 247.5 342.871094 246.070312 345.425781 244.707031 C 347.980469 243.339844 350.566406 242.039062 353.183594 240.800781 C 355.800781 239.5625 358.449219 238.386719 361.125 237.277344 C 363.800781 236.171875 366.503906 235.128906 369.230469 234.152344 C 371.957031 233.175781 374.707031 232.265625 377.480469 231.425781 C 380.253906 230.585938 383.042969 229.8125 385.851562 229.109375 C 388.664062 228.402344 391.488281 227.769531 394.328125 227.203125 C 397.171875 226.636719 400.023438 226.144531 402.890625 225.71875 C 405.753906 225.292969 408.628906 224.9375 411.511719 224.652344 C 414.394531 224.367188 417.28125 224.15625 420.175781 224.011719 C 423.070312 223.871094 425.964844 223.800781 428.859375 223.800781 L 428.871094 312.304688 C 427.421875 312.304688 425.972656 312.339844 424.527344 312.414062 C 423.082031 312.484375 421.636719 312.589844 420.195312 312.734375 C 418.753906 312.875 417.316406 313.050781 415.882812 313.265625 C 414.449219 313.476562 413.023438 313.726562 411.605469 314.007812 C 410.183594 314.289062 408.769531 314.609375 407.367188 314.960938 C 405.960938 315.3125 404.566406 315.699219 403.179688 316.117188 C 401.792969 316.539062 400.417969 316.992188 399.054688 317.480469 C 397.691406 317.96875 396.339844 318.492188 395.003906 319.046875 C 393.664062 319.601562 392.339844 320.1875 391.03125 320.804688 C 389.722656 321.425781 388.429688 322.078125 387.152344 322.757812 C 385.875 323.441406 384.613281 324.15625 383.371094 324.902344 C 382.128906 325.644531 380.90625 326.421875 379.703125 327.226562 C 378.496094 328.03125 377.3125 328.863281 376.152344 329.726562 C 374.988281 330.589844 373.847656 331.480469 372.726562 332.398438 C 371.605469 333.316406 370.511719 334.261719 369.4375 335.238281 C 368.363281 336.210938 367.316406 337.207031 366.292969 338.230469 C 365.269531 339.257812 364.269531 340.304688 363.296875 341.378906 C 362.324219 342.453125 361.378906 343.546875 360.460938 344.667969 C 359.539062 345.785156 358.648438 346.929688 357.789062 348.09375 C 356.925781 349.253906 356.089844 350.4375 355.285156 351.644531 C 354.480469 352.847656 353.707031 354.070312 352.960938 355.3125 C 352.21875 356.554688 351.503906 357.816406 350.820312 359.09375 C 350.136719 360.371094 349.488281 361.664062 348.867188 362.972656 C 348.25 364.28125 347.664062 365.605469 347.109375 366.945312 C 346.554688 368.28125 346.03125 369.632812 345.546875 370.996094 C 345.058594 372.359375 344.601562 373.734375 344.183594 375.121094 C 343.761719 376.507812 343.375 377.902344 343.023438 379.308594 C 342.671875 380.714844 342.355469 382.125 342.074219 383.546875 C 341.789062 384.96875 341.542969 386.394531 341.328125 387.828125 C 341.117188 389.257812 340.941406 390.695312 340.796875 392.136719 C 340.65625 393.578125 340.550781 395.023438 340.476562 396.46875 C 340.40625 397.917969 340.371094 399.363281 340.371094 400.8125 Z M 251.867188 400.8125" fill="#2a0421" stroke="none"/>
 <g id="object_809">
  <g id="object_810" transform="matrix(1 0 0 1 268.843119 249.729814)">
   <g id="object_811">
    <path d="M 0.65625 0 L 0.65625 -0.15625 L 8.703125 -7.859375 L 4.734375 -7.859375 L 4.734375 -5.1875 L 1.125 -5.1875 L 1.125 -8.640625 L 9.25 -8.640625 C 9.457031 -8.640625 9.613281 -8.597656 9.71875 -8.515625 C 9.832031 -8.429688 9.890625 -8.300781 9.890625 -8.125 C 9.890625 -8.03125 9.863281 -7.925781 9.8125 -7.8125 C 9.757812 -7.707031 9.660156 -7.582031 9.515625 -7.4375 L 1.734375 0 Z M 1.96875 -5.96875 L 3.90625 -5.96875 L 3.90625 -7.859375 L 1.96875 -7.859375 Z M 6.171875 0 L 6.171875 -3.4375 L 9.78125 -3.4375 L 9.78125 0 Z M 7.015625 -0.78125 L 8.9375 -0.78125 L 8.9375 -2.6875 L 7.015625 -2.6875 Z M 7.015625 -0.78125" fill="#31356e" stroke="none"/>
   </g>
  </g>
 </g>
 <g id="object_885">
  <g id="object_886" transform="matrix(1 0 0 1 542.62773 598.701825)">
   <g id="object_887">
    <path d="M 0.65625 0 L 0.65625 -0.15625 L 8.703125 -7.859375 L 4.734375 -7.859375 L 4.734375 -5.1875 L 1.125 -5.1875 L 1.125 -8.640625 L 9.25 -8.640625 C 9.457031 -8.640625 9.613281 -8.597656 9.71875 -8.515625 C 9.832031 -8.429688 9.890625 -8.300781 9.890625 -8.125 C 9.890625 -8.03125 9.863281 -7.925781 9.8125 -7.8125 C 9.757812 -7.707031 9.660156 -7.582031 9.515625 -7.4375 L 1.734375 0 Z M 1.96875 -5.96875 L 3.90625 -5.96875 L 3.90625 -7.859375 L 1.96875 -7.859375 Z M 6.171875 0 L 6.171875 -3.4375 L 9.78125 -3.4375 L 9.78125 0 Z M 7.015625 -0.78125 L 8.9375 -0.78125 L 8.9375 -2.6875 L 7.015625 -2.6875 Z M 7.015625 -0.78125" fill="#31356e" stroke="none"/>
   </g>
  </g>
 </g>
 <g id="object_957">
  <g id="object_958" transform="matrix(1 0 0 1 204.682566 532.308364)">
   <g id="object_959">
    <path d="M 0.8125 0 L 0.8125 -0.890625 L 2.828125 -0.890625 L 2.828125 -7.765625 L 0.8125 -7.765625 L 0.8125 -8.640625 L 2.671875 -8.640625 C 3.117188 -8.640625 3.429688 -8.546875 3.609375 -8.359375 C 3.796875 -8.179688 3.890625 -7.914062 3.890625 -7.5625 L 3.890625 -0.890625 L 5.734375 -0.890625 L 5.734375 0 Z M 0.8125 0" fill="#31356e" stroke="none"/>
   </g>
  </g>
 </g>
 <g id="object_961">
  <g id="object_962" transform="matrix(1 0 0 1 210.374722 532.308364)">
   <g id="object_963">
    <path d="M 4.375 -5.4375 C 4.925781 -5.4375 5.425781 -5.332031 5.875 -5.125 C 6.320312 -4.925781 6.679688 -4.625 6.953125 -4.21875 C 7.222656 -3.8125 7.359375 -3.304688 7.359375 -2.703125 C 7.359375 -2.160156 7.234375 -1.664062 6.984375 -1.21875 C 6.734375 -0.78125 6.363281 -0.429688 5.875 -0.171875 C 5.382812 0.0859375 4.789062 0.21875 4.09375 0.21875 C 3.40625 0.21875 2.800781 0.0703125 2.28125 -0.21875 C 1.757812 -0.507812 1.351562 -0.976562 1.0625 -1.625 C 0.769531 -2.269531 0.625 -3.128906 0.625 -4.203125 C 0.625 -5.671875 0.9375 -6.816406 1.5625 -7.640625 C 2.1875 -8.460938 3.097656 -8.875 4.296875 -8.875 C 5.296875 -8.875 6.035156 -8.648438 6.515625 -8.203125 C 7.003906 -7.753906 7.296875 -7.160156 7.390625 -6.421875 L 6.3125 -6.421875 C 6.238281 -6.898438 6.039062 -7.28125 5.71875 -7.5625 C 5.394531 -7.84375 4.914062 -7.984375 4.28125 -7.984375 C 3.707031 -7.984375 3.222656 -7.847656 2.828125 -7.578125 C 2.429688 -7.316406 2.128906 -6.894531 1.921875 -6.3125 C 1.722656 -5.738281 1.625 -4.960938 1.625 -3.984375 L 1.625 -3.921875 C 1.863281 -4.378906 2.21875 -4.742188 2.6875 -5.015625 C 3.164062 -5.296875 3.726562 -5.4375 4.375 -5.4375 Z M 4.0625 -0.671875 C 4.832031 -0.671875 5.390625 -0.859375 5.734375 -1.234375 C 6.078125 -1.609375 6.25 -2.078125 6.25 -2.640625 C 6.25 -3.234375 6.070312 -3.710938 5.71875 -4.078125 C 5.375 -4.453125 4.851562 -4.640625 4.15625 -4.640625 C 3.488281 -4.640625 2.941406 -4.460938 2.515625 -4.109375 C 2.085938 -3.765625 1.875 -3.28125 1.875 -2.65625 C 1.875 -2.070312 2.066406 -1.59375 2.453125 -1.21875 C 2.835938 -0.851562 3.375 -0.671875 4.0625 -0.671875 Z M 4.0625 -0.671875" fill="#31356e" stroke="none"/>
   </g>
  </g>
 </g>
 <g id="object_965">
  <g id="object_966" transform="matrix(1 0 0 1 218.432222 532.308364)">
   <g id="object_967">
    <path d="M 0.265625 0 L 0.265625 -1.140625 L 1.625 -1.140625 L 1.625 0 Z M 0.265625 0" fill="#31356e" stroke="none"/>
   </g>
  </g>
 </g>
 <g id="object_969">
  <g id="object_970" transform="matrix(1 0 0 1 220.745579 532.308364)">
   <g id="object_971">
    <path d="M 0.296875 -7.765625 L 0.296875 -8.640625 L 6.78125 -8.640625 L 6.78125 -7.90625 C 6.28125 -7.40625 5.816406 -6.890625 5.390625 -6.359375 C 4.960938 -5.835938 4.585938 -5.265625 4.265625 -4.640625 C 3.953125 -4.023438 3.703125 -3.335938 3.515625 -2.578125 C 3.335938 -1.816406 3.238281 -0.957031 3.21875 0 L 2.140625 0 C 2.160156 -1.09375 2.316406 -2.097656 2.609375 -3.015625 C 2.910156 -3.929688 3.316406 -4.78125 3.828125 -5.5625 C 4.347656 -6.351562 4.953125 -7.085938 5.640625 -7.765625 Z M 0.296875 -7.765625" fill="#31356e" stroke="none"/>
   </g>
  </g>
 </g>
 <g id="object_973">
  <g id="object_974" transform="matrix(1 0 0 1 227.815366 532.308364)">
   <g id="object_975">
    <path d="M 0.65625 0 L 0.65625 -0.15625 L 8.703125 -7.859375 L 4.734375 -7.859375 L 4.734375 -5.1875 L 1.125 -5.1875 L 1.125 -8.640625 L 9.25 -8.640625 C 9.457031 -8.640625 9.613281 -8.597656 9.71875 -8.515625 C 9.832031 -8.429688 9.890625 -8.300781 9.890625 -8.125 C 9.890625 -8.03125 9.863281 -7.925781 9.8125 -7.8125 C 9.757812 -7.707031 9.660156 -7.582031 9.515625 -7.4375 L 1.734375 0 Z M 1.96875 -5.96875 L 3.90625 -5.96875 L 3.90625 -7.859375 L 1.96875 -7.859375 Z M 6.171875 0 L 6.171875 -3.4375 L 9.78125 -3.4375 L 9.78125 0 Z M 7.015625 -0.78125 L 8.9375 -0.78125 L 8.9375 -2.6875 L 7.015625 -2.6875 Z M 7.015625 -0.78125" fill="#31356e" stroke="none"/>
   </g>
  </g>
 </g>
 <g id="object_1013">
  <g id="object_1014" transform="matrix(1 0 0 1 373.027095 592.8492)">
   <g id="object_1015">
    <path d="M 7.296875 -2.28125 L 7.296875 -1.375 C 7.296875 -1.050781 7.3125 -0.78125 7.34375 -0.5625 C 7.382812 -0.351562 7.425781 -0.164062 7.46875 0 L 6.40625 0 C 6.363281 -0.144531 6.328125 -0.328125 6.296875 -0.546875 C 6.265625 -0.765625 6.25 -1.03125 6.25 -1.34375 L 6.25 -2.125 C 6.25 -2.75 6.085938 -3.195312 5.765625 -3.46875 C 5.453125 -3.738281 4.992188 -3.875 4.390625 -3.875 L 1.96875 -3.875 L 1.96875 0 L 0.890625 0 L 0.890625 -8.640625 L 4.90625 -8.640625 C 5.800781 -8.640625 6.46875 -8.429688 6.90625 -8.015625 C 7.34375 -7.609375 7.5625 -7.0625 7.5625 -6.375 C 7.5625 -5.789062 7.398438 -5.304688 7.078125 -4.921875 C 6.765625 -4.546875 6.367188 -4.300781 5.890625 -4.1875 C 6.171875 -4.101562 6.410156 -3.992188 6.609375 -3.859375 C 6.816406 -3.734375 6.984375 -3.546875 7.109375 -3.296875 C 7.234375 -3.046875 7.296875 -2.707031 7.296875 -2.28125 Z M 4.78125 -4.6875 C 5.382812 -4.6875 5.8125 -4.828125 6.0625 -5.109375 C 6.3125 -5.390625 6.4375 -5.78125 6.4375 -6.28125 C 6.4375 -6.78125 6.300781 -7.15625 6.03125 -7.40625 C 5.769531 -7.65625 5.359375 -7.78125 4.796875 -7.78125 L 1.96875 -7.78125 L 1.96875 -4.6875 Z M 4.78125 -4.6875" fill="#31356e" stroke="none"/>
   </g>
  </g>
 </g>
 <g id="object_1017">
  <g id="object_1018" transform="matrix(1 0 0 1 381.188513 592.8492)">
   <g id="object_1019">
    <path d="M 3.890625 -0.578125 C 4.523438 -0.578125 5 -0.710938 5.3125 -0.984375 C 5.632812 -1.253906 5.84375 -1.59375 5.9375 -2 L 6.890625 -2 C 6.847656 -1.675781 6.722656 -1.34375 6.515625 -1 C 6.316406 -0.65625 6 -0.367188 5.5625 -0.140625 C 5.132812 0.0859375 4.5625 0.203125 3.84375 0.203125 C 3.101562 0.203125 2.492188 0.0507812 2.015625 -0.25 C 1.535156 -0.5625 1.179688 -0.976562 0.953125 -1.5 C 0.734375 -2.019531 0.625 -2.609375 0.625 -3.265625 C 0.625 -3.910156 0.742188 -4.492188 0.984375 -5.015625 C 1.222656 -5.535156 1.578125 -5.945312 2.046875 -6.25 C 2.523438 -6.550781 3.125 -6.703125 3.84375 -6.703125 C 4.5 -6.703125 5.050781 -6.5625 5.5 -6.28125 C 5.957031 -6.007812 6.304688 -5.628906 6.546875 -5.140625 C 6.785156 -4.660156 6.90625 -4.101562 6.90625 -3.46875 C 6.90625 -3.382812 6.90625 -3.304688 6.90625 -3.234375 C 6.90625 -3.171875 6.894531 -3.097656 6.875 -3.015625 L 1.65625 -3.015625 C 1.695312 -2.117188 1.914062 -1.488281 2.3125 -1.125 C 2.707031 -0.757812 3.234375 -0.578125 3.890625 -0.578125 Z M 3.859375 -5.921875 C 3.242188 -5.921875 2.742188 -5.757812 2.359375 -5.4375 C 1.972656 -5.113281 1.742188 -4.566406 1.671875 -3.796875 L 5.890625 -3.796875 C 5.859375 -4.535156 5.660156 -5.070312 5.296875 -5.40625 C 4.941406 -5.75 4.460938 -5.921875 3.859375 -5.921875 Z M 3.859375 -5.921875" fill="#31356e" stroke="none"/>
   </g>
  </g>
 </g>
 <g id="object_1021">
  <g id="object_1022" transform="matrix(1 0 0 1 388.5832 592.8492)">
   <g id="object_1023">
    <path d="M 6.078125 -9.09375 L 7.109375 -9.09375 L 7.109375 0 L 6.078125 0 L 6.078125 -1.25 C 5.859375 -0.789062 5.539062 -0.429688 5.125 -0.171875 C 4.71875 0.078125 4.210938 0.203125 3.609375 0.203125 C 2.929688 0.203125 2.375 0.0546875 1.9375 -0.234375 C 1.5 -0.535156 1.171875 -0.945312 0.953125 -1.46875 C 0.742188 -2 0.640625 -2.59375 0.640625 -3.25 C 0.640625 -3.914062 0.742188 -4.507812 0.953125 -5.03125 C 1.171875 -5.550781 1.5 -5.957031 1.9375 -6.25 C 2.375 -6.550781 2.929688 -6.703125 3.609375 -6.703125 C 4.210938 -6.703125 4.71875 -6.578125 5.125 -6.328125 C 5.539062 -6.078125 5.859375 -5.722656 6.078125 -5.265625 Z M 3.828125 -0.640625 C 4.515625 -0.640625 5.0625 -0.84375 5.46875 -1.25 C 5.875 -1.664062 6.078125 -2.332031 6.078125 -3.25 C 6.078125 -4.164062 5.875 -4.828125 5.46875 -5.234375 C 5.0625 -5.648438 4.515625 -5.859375 3.828125 -5.859375 C 3.085938 -5.859375 2.546875 -5.640625 2.203125 -5.203125 C 1.859375 -4.773438 1.6875 -4.125 1.6875 -3.25 C 1.6875 -2.382812 1.859375 -1.734375 2.203125 -1.296875 C 2.546875 -0.859375 3.085938 -0.640625 3.828125 -0.640625 Z M 3.828125 -0.640625" fill="#31356e" stroke="none"/>
   </g>
  </g>
 </g>
 <g id="object_1025">
  <g id="object_1026" transform="matrix(1 0 0 1 396.562711 592.8492)">
   <g id="object_1027">
    <path d="M 5.609375 -6.5 L 6.65625 -6.5 L 6.65625 0 L 5.609375 0 L 5.609375 -1.65625 C 5.421875 -1.070312 5.128906 -0.613281 4.734375 -0.28125 C 4.335938 0.0390625 3.828125 0.203125 3.203125 0.203125 C 2.378906 0.203125 1.773438 -0.0078125 1.390625 -0.4375 C 1.003906 -0.863281 0.8125 -1.503906 0.8125 -2.359375 L 0.8125 -6.5 L 1.859375 -6.5 L 1.859375 -2.46875 C 1.859375 -1.988281 1.925781 -1.617188 2.0625 -1.359375 C 2.195312 -1.097656 2.382812 -0.914062 2.625 -0.8125 C 2.875 -0.707031 3.164062 -0.65625 3.5 -0.65625 C 4.175781 -0.65625 4.695312 -0.945312 5.0625 -1.53125 C 5.425781 -2.113281 5.609375 -2.941406 5.609375 -4.015625 Z M 5.609375 -6.5" fill="#31356e" stroke="none"/>
   </g>
  </g>
 </g>
 <g id="object_1029">
  <g id="object_1030" transform="matrix(1 0 0 1 404.074362 592.8492)">
   <g id="object_1031">
    <path d="M 0.625 -3.25 C 0.625 -3.914062 0.742188 -4.507812 0.984375 -5.03125 C 1.234375 -5.550781 1.601562 -5.957031 2.09375 -6.25 C 2.582031 -6.550781 3.175781 -6.703125 3.875 -6.703125 C 4.851562 -6.703125 5.585938 -6.457031 6.078125 -5.96875 C 6.578125 -5.488281 6.851562 -4.875 6.90625 -4.125 L 5.921875 -4.125 C 5.847656 -4.65625 5.644531 -5.078125 5.3125 -5.390625 C 4.988281 -5.703125 4.519531 -5.859375 3.90625 -5.859375 C 3.226562 -5.859375 2.6875 -5.65625 2.28125 -5.25 C 1.875 -4.851562 1.671875 -4.1875 1.671875 -3.25 C 1.671875 -2.300781 1.863281 -1.628906 2.25 -1.234375 C 2.644531 -0.835938 3.1875 -0.640625 3.875 -0.640625 C 4.53125 -0.640625 5.03125 -0.804688 5.375 -1.140625 C 5.726562 -1.484375 5.9375 -1.929688 6 -2.484375 L 6.984375 -2.484375 C 6.953125 -1.984375 6.816406 -1.53125 6.578125 -1.125 C 6.335938 -0.71875 5.988281 -0.394531 5.53125 -0.15625 C 5.082031 0.0820312 4.53125 0.203125 3.875 0.203125 C 3.164062 0.203125 2.566406 0.0546875 2.078125 -0.234375 C 1.597656 -0.535156 1.234375 -0.945312 0.984375 -1.46875 C 0.742188 -2 0.625 -2.59375 0.625 -3.25 Z M 0.625 -3.25" fill="#31356e" stroke="none"/>
   </g>
  </g>
 </g>
 <g id="object_1033">
  <g id="object_1034" transform="matrix(1 0 0 1 411.352052 592.8492)">
   <g id="object_1035">
    <path d="M 3.0625 0 C 2.4375 0 2.019531 -0.117188 1.8125 -0.359375 C 1.601562 -0.609375 1.5 -0.992188 1.5 -1.515625 L 1.5 -5.6875 L 0.265625 -5.6875 L 0.265625 -6.265625 L 1.59375 -6.59375 L 1.96875 -7.9375 L 2.53125 -7.9375 L 2.53125 -6.5 L 4.6875 -6.5 L 4.6875 -5.6875 L 2.53125 -5.6875 L 2.53125 -0.84375 L 4.609375 -0.84375 L 4.609375 0 Z M 3.0625 0" fill="#31356e" stroke="none"/>
   </g>
  </g>
 </g>
 <g id="object_1037">
  <g id="object_1038" transform="matrix(1 0 0 1 416.407479 592.8492)">
   <g id="object_1039">
    <path d="M 0.8125 -7.5625 L 0.8125 -8.640625 L 2.140625 -8.640625 L 2.140625 -7.5625 Z M 0.953125 0 L 0.953125 -6.5 L 1.984375 -6.5 L 1.984375 0 Z M 0.953125 0" fill="#31356e" stroke="none"/>
   </g>
  </g>
 </g>
 <g id="object_1041">
  <g id="object_1042" transform="matrix(1 0 0 1 419.266579 592.8492)">
   <g id="object_1043">
    <path d="M 3.90625 0.203125 C 3.175781 0.203125 2.566406 0.0507812 2.078125 -0.25 C 1.597656 -0.5625 1.234375 -0.976562 0.984375 -1.5 C 0.742188 -2.019531 0.625 -2.609375 0.625 -3.265625 C 0.625 -3.910156 0.742188 -4.492188 0.984375 -5.015625 C 1.234375 -5.535156 1.597656 -5.945312 2.078125 -6.25 C 2.566406 -6.550781 3.175781 -6.703125 3.90625 -6.703125 C 4.625 -6.703125 5.222656 -6.546875 5.703125 -6.234375 C 6.191406 -5.929688 6.554688 -5.519531 6.796875 -5 C 7.035156 -4.476562 7.15625 -3.898438 7.15625 -3.265625 C 7.15625 -2.609375 7.035156 -2.019531 6.796875 -1.5 C 6.554688 -0.976562 6.191406 -0.5625 5.703125 -0.25 C 5.222656 0.0507812 4.625 0.203125 3.90625 0.203125 Z M 1.671875 -3.25 C 1.671875 -2.34375 1.859375 -1.679688 2.234375 -1.265625 C 2.609375 -0.847656 3.164062 -0.640625 3.90625 -0.640625 C 4.632812 -0.640625 5.179688 -0.847656 5.546875 -1.265625 C 5.921875 -1.679688 6.109375 -2.34375 6.109375 -3.25 C 6.109375 -4.164062 5.921875 -4.828125 5.546875 -5.234375 C 5.179688 -5.648438 4.632812 -5.859375 3.90625 -5.859375 C 3.164062 -5.859375 2.609375 -5.648438 2.234375 -5.234375 C 1.859375 -4.828125 1.671875 -4.164062 1.671875 -3.25 Z M 1.671875 -3.25" fill="#31356e" stroke="none"/>
   </g>
  </g>
 </g>
 <g id="object_1045">
  <g id="object_1046" transform="matrix(1 0 0 1 426.84318 592.8492)">
   <g id="object_1047">
    <path d="M 4.484375 -6.703125 C 5.296875 -6.703125 5.882812 -6.484375 6.25 -6.046875 C 6.613281 -5.617188 6.796875 -4.984375 6.796875 -4.140625 L 6.796875 0 L 5.765625 0 L 5.765625 -4.03125 C 5.765625 -4.71875 5.617188 -5.191406 5.328125 -5.453125 C 5.046875 -5.710938 4.671875 -5.84375 4.203125 -5.84375 C 3.484375 -5.84375 2.929688 -5.5625 2.546875 -5 C 2.171875 -4.4375 1.984375 -3.597656 1.984375 -2.484375 L 1.984375 0 L 0.953125 0 L 0.953125 -6.5 L 1.984375 -6.5 L 1.984375 -4.796875 C 2.179688 -5.390625 2.484375 -5.851562 2.890625 -6.1875 C 3.304688 -6.53125 3.835938 -6.703125 4.484375 -6.703125 Z M 4.484375 -6.703125" fill="#31356e" stroke="none"/>
   </g>
  </g>
 </g>
 <g id="object_1061">
  <g id="object_1062" transform="matrix(1 0 0 1 380.340813 607.661732)">
   <g id="object_1063">
    <path d="M 0.65625 0 L 0.65625 -0.15625 L 8.703125 -7.859375 L 4.734375 -7.859375 L 4.734375 -5.1875 L 1.125 -5.1875 L 1.125 -8.640625 L 9.25 -8.640625 C 9.457031 -8.640625 9.613281 -8.597656 9.71875 -8.515625 C 9.832031 -8.429688 9.890625 -8.300781 9.890625 -8.125 C 9.890625 -8.03125 9.863281 -7.925781 9.8125 -7.8125 C 9.757812 -7.707031 9.660156 -7.582031 9.515625 -7.4375 L 1.734375 0 Z M 1.96875 -5.96875 L 3.90625 -5.96875 L 3.90625 -7.859375 L 1.96875 -7.859375 Z M 6.171875 0 L 6.171875 -3.4375 L 9.78125 -3.4375 L 9.78125 0 Z M 7.015625 -0.78125 L 8.9375 -0.78125 L 8.9375 -2.6875 L 7.015625 -2.6875 Z M 7.015625 -0.78125" fill="#31356e" stroke="none"/>
   </g>
  </g>
 </g>
 <text color="green" x="292.5" y="76.49999933888888">
  MOMAY
 </text>
 <text color="green" x="373.125" y="76.49999933888888">
  GROUP
 </text>
 <text color="green" x="428.62499999999994" y="76.49999933888888">
  OF
 </text>
 <text color="green" x="511.5" y="76.49999933888888">
  COMPANIES
 </text>
 <text color="green" x="157.125" y="121.87499894675926">
  OUR
 </text>
 <text color="green" x="481.5" y="121.87499894675926">
  SUSTAINABILITY
 </text>
 <text color="green" x="414.0" y="159.37499862268518">
  COMMITMENT
 </text>
 <text color="green" x="241.125" y="230.62499800694445">
  Sustainable
 </text>
 <text color="green" x="302.625" y="230.62499800694445">
  Policies
 </text>
 <text color="green" x="260.625" y="245.24999788055555">
  25
 </text>
 <text color="green" x="634.875" y="297.3749974300926">
  %
 </text>
 <text color="green" x="179.625" y="512.9999955666667">
  Water
 </text>
 <text color="green" x="240.75" y="512.9999955666667">
  Conservation
 </text>
 <text color="green" x="530.625" y="594.374994863426">
  16.7
 </text>
 <text color="green" x="343.875" y="588.749994912037">
  Pollution
 </text>
 <text color="green" x="556.875" y="579.7499949898148">
  Reduction
 </text>
 <text color="green" x="503.625" y="579.7499949898148">
  Waste
 </text>
 <text color="green" x="371.25" y="603.3749947856481">
  8.3
 </text>
 <text color="green" x="599.625" y="280.1249975791667">
  Clean
 </text>
 <text color="green" x="641.25" y="280.8749975726852">
  Energy
 </text>
 <text color="green" x="617.25" y="297.3749974300926">
  33.3
 </text>
 <text color="green" x="157.5" y="690.7499940305555">
  We
 </text>
 <text color="green" x="202.875" y="690.7499940305555">
  have
 </text>
 <text color="green" x="273.75" y="690.7499940305555">
  invested
 </text>
 <text color="green" x="328.5" y="690.7499940305555">
  $
 </text>
 <text color="green" x="347.25" y="690.7499940305555">
  2B
 </text>
 <text color="green" x="375.375" y="690.7499940305555">
  in
 </text>
 <text color="green" x="457.875" y="690.7499940305555">
  sustainability
 </text>
 <text color="green" x="564.75" y="690.7499940305555">
  efforts
 </text>
 <text color="green" x="315.375" y="711.3749938523148">
  to
 </text>
 <text color="green" x="654.75" y="690.7499940305555">
  date
 </text>
 <text color="green" x="679.5" y="690.7499940305555">
  ,
 </text>
 <text color="green" x="153.0" y="711.3749938523148">
  and
 </text>
 <text color="green" x="193.875" y="711.3749938523148">
  are
 </text>
 <text color="green" x="228.0" y="711.3749938523148">
  on
 </text>
 <text color="green" x="272.25" y="711.3749938523148">
  track
 </text>
 <text color="green" x="380.625" y="711.3749938523148">
  becoming
 </text>
 <text color="green" x="470.25" y="711.3749938523148">
  carbon
 </text>
 <text color="green" x="528.0" y="711.3749938523148">
  net
 </text>
 <text color="green" x="549.0" y="711.3749938523148">
  -
 </text>
 <text color="green" x="575.625" y="711.3749938523148">
  zero
 </text>
 <text color="green" x="616.125" y="711.3749938523148">
  by
 </text>
 <text color="green" x="661.5" y="711.3749938523148">
  2030
 </text>
 <text color="green" x="690.375" y="711.3749938523148">
  .
 </text>
 <text color="green" x="337.5" y="755.6249934699074">
  REFERENCE
 </text>
 <text color="green" x="385.125" y="755.6249934699074">
  :
 </text>
 <text color="green" x="431.625" y="755.6249934699074">
  INTERNAL
 </text>
 <text color="green" x="506.25" y="755.6249934699074">
  REPORT
 </text>
</svg>
